<svg width="101" height="28" viewBox="0 0 101 28" fill="none" xmlns="http://www.w3.org/2000/svg">
<path d="M98.2516 19.748C97.9073 19.7435 97.7497 20.0522 97.779 20.674C97.8042 21.0412 97.6578 21.3538 97.34 21.6117C97.0372 21.8623 96.65 21.9845 96.1783 21.9784C95.6992 21.9721 95.3154 21.8361 95.0269 21.5702C94.7383 21.3044 94.5966 20.9768 94.6017 20.5875C94.6069 20.1907 94.7082 19.8851 94.9057 19.6705C95.1033 19.4485 95.3492 19.2533 95.6434 19.0849C95.9377 18.9091 96.2543 18.7447 96.5933 18.5919C96.9323 18.4316 97.2492 18.2486 97.5439 18.0428C98.2317 17.5501 98.5804 16.9369 98.59 16.2033C98.5984 15.5669 98.3882 15.0363 97.9594 14.6114C97.5012 14.1487 96.9016 13.9124 96.1604 13.9027C95.5241 13.8944 94.9902 14.0709 94.5586 14.4321C94.0969 14.8154 93.8619 15.3178 93.8538 15.9392C93.8049 16.2455 93.8431 16.4744 93.9684 16.6258C94.0938 16.7697 94.2426 16.8428 94.4148 16.845C94.5795 16.8472 94.7152 16.7741 94.822 16.6257C94.9213 16.4773 94.9685 16.3019 94.9636 16.0997C94.9513 15.8974 94.9648 15.7216 95.0042 15.5723C95.0362 15.4155 95.1017 15.2741 95.2007 15.1481C95.4215 14.8665 95.7752 14.7288 96.2619 14.7352C96.6512 14.7403 96.9344 14.8376 97.1116 15.0271C97.4144 15.353 97.5634 15.6919 97.5588 16.0438C97.5542 16.3956 97.4531 16.6863 97.2554 16.9159C97.0578 17.1379 96.8118 17.3406 96.5174 17.5239C96.2231 17.6998 95.9064 17.8679 95.5674 18.0282C95.2283 18.1884 94.9115 18.3715 94.6167 18.5773C93.9291 19.055 93.5805 19.6607 93.5709 20.3943C93.5617 21.0981 93.7863 21.67 94.2448 22.1103C94.7255 22.5734 95.4 22.8106 96.2684 22.8219C97.017 22.8317 97.645 22.619 98.1524 22.1839C98.6747 21.749 98.9178 21.1981 98.8816 20.5312C98.8584 20.0142 98.6484 19.7532 98.2516 19.748ZM90.6657 16.6724L90.7054 11.922C90.7407 9.22697 90.8566 6.94476 91.0533 5.07543C91.0789 4.83616 91.0213 4.65945 90.8805 4.54529C90.7398 4.42365 90.5797 4.36165 90.4 4.3593C90.2128 4.35685 90.0436 4.41454 89.8923 4.53236C89.7411 4.6427 89.6704 4.89635 89.6802 5.29333C89.6901 5.68281 89.7023 6.1809 89.7168 6.78759C89.724 7.38669 89.7306 8.02322 89.7368 8.69719C89.7491 10.0451 89.7481 11.2656 89.7338 12.3586C89.7195 13.4516 89.7097 14.2002 89.7044 14.6045C89.6917 15.0012 89.6792 15.3866 89.6668 15.7608C89.6033 17.7517 89.4746 19.0117 89.2804 19.5408C89.0863 20.0699 88.8639 20.475 88.6131 20.7563C88.1116 21.3188 87.4715 21.5949 86.6929 21.5848C85.8919 21.5743 85.2332 21.2699 84.7169 20.6716C84.1859 20.0507 83.8827 19.1894 83.8073 18.0877C83.7426 16.7391 83.7155 15.6568 83.7262 14.8408C83.7369 14.0248 83.7498 13.3211 83.765 12.7298C83.7729 12.1309 83.7891 11.4609 83.8138 10.72C83.9019 8.56471 83.9871 6.63027 84.0694 4.91669C84.08 4.67722 84.0187 4.50046 83.8854 4.3864C83.7521 4.27234 83.5994 4.21419 83.4272 4.21194C83.255 4.20968 83.0971 4.26378 82.9534 4.37421C82.8097 4.48464 82.74 4.65969 82.7443 4.89935C82.7597 6.01521 82.764 7.11595 82.7573 8.20156C82.7431 9.28708 82.7327 10.3652 82.7262 11.4358C82.7072 14.0338 82.7314 15.9022 82.7989 17.0412C82.8665 18.1728 82.9826 19.0279 83.1472 19.6066C83.3044 20.1852 83.5372 20.7011 83.8458 21.1544C84.5364 22.1668 85.4768 22.6808 86.6672 22.6963C88.6361 22.7221 89.8781 21.6489 90.3932 19.4767C90.5593 18.7975 90.6479 18.0387 90.6588 17.2002L90.6657 16.6724Z" fill="#BB23FD"/>
<path d="M97.779 20.674L97.2801 20.7082L97.2796 20.6975L97.779 20.674ZM97.34 21.6117L97.0212 21.2265L97.0249 21.2234L97.34 21.6117ZM95.0269 21.5702L95.3656 21.2025L95.0269 21.5702ZM94.9057 19.6705L95.2793 20.0029L95.2736 20.0091L94.9057 19.6705ZM95.6434 19.0849L95.8999 19.5142L95.8917 19.5189L95.6434 19.0849ZM96.5933 18.5919L96.807 19.044L96.7988 19.0477L96.5933 18.5919ZM97.5439 18.0428L97.8351 18.4493L97.8302 18.4527L97.5439 18.0428ZM97.9594 14.6114L97.6074 14.9665L97.6041 14.9632L97.9594 14.6114ZM94.5586 14.4321L94.8796 14.8155L94.878 14.8169L94.5586 14.4321ZM93.8538 15.9392L94.3538 15.9457L94.3533 15.9821L94.3476 16.018L93.8538 15.9392ZM93.9684 16.6258L93.5913 16.9544L93.5832 16.9446L93.9684 16.6258ZM94.822 16.6257L95.2376 16.9037L95.2328 16.9108L95.2278 16.9178L94.822 16.6257ZM94.9636 16.0997L95.4627 16.0693L95.4633 16.0785L95.4635 16.0877L94.9636 16.0997ZM95.0042 15.5723L95.4941 15.6723L95.4913 15.6862L95.4877 15.6999L95.0042 15.5723ZM95.2007 15.1481L95.5942 15.4566L95.5939 15.457L95.2007 15.1481ZM97.1116 15.0271L97.4768 14.6856L97.478 14.6868L97.1116 15.0271ZM97.2554 16.9159L97.6343 17.2422L97.6289 17.2482L97.2554 16.9159ZM96.5174 17.5239L96.7817 17.9484L96.7739 17.9532L96.5174 17.5239ZM94.6167 18.5773L94.903 18.9872L94.902 18.9879L94.6167 18.5773ZM94.2448 22.1103L94.5911 21.7497L94.5917 21.7502L94.2448 22.1103ZM98.1524 22.1839L97.8269 21.8043L97.8324 21.7997L98.1524 22.1839ZM98.8816 20.5312L98.3823 20.5583L98.3821 20.5536L98.8816 20.5312ZM98.2451 20.2479C98.2361 20.2478 98.2572 20.2493 98.2875 20.2309C98.3177 20.2127 98.3254 20.1938 98.3206 20.2034C98.3139 20.2165 98.2983 20.2553 98.2874 20.3346C98.2767 20.4125 98.2722 20.5164 98.2785 20.6505L97.2796 20.6975C97.2636 20.3591 97.2913 20.0204 97.4299 19.7488C97.5038 19.604 97.6136 19.47 97.7693 19.3757C97.9251 19.2813 98.095 19.2459 98.2582 19.248L98.2451 20.2479ZM98.2779 20.6398C98.3155 21.1895 98.0827 21.6529 97.655 22L97.0249 21.2234C97.2329 21.0547 97.2929 20.893 97.2802 20.7082L98.2779 20.6398ZM97.6588 21.9969C97.2472 22.3376 96.7373 22.4857 96.1718 22.4783L96.1849 21.4784C96.5627 21.4834 96.8272 21.3871 97.0212 21.2265L97.6588 21.9969ZM96.1718 22.4783C95.598 22.4708 95.0863 22.3048 94.6881 21.9379L95.3656 21.2025C95.5445 21.3673 95.8005 21.4734 96.1849 21.4784L96.1718 22.4783ZM94.6881 21.9379C94.296 21.5767 94.0948 21.1135 94.1017 20.581L95.1016 20.5941C95.0984 20.8401 95.1806 21.032 95.3656 21.2025L94.6881 21.9379ZM94.1017 20.581C94.1079 20.1059 94.2308 19.6654 94.5378 19.3319L95.2736 20.0091C95.1856 20.1047 95.1058 20.2756 95.1016 20.5941L94.1017 20.581ZM94.5322 19.3381C94.7704 19.0705 95.0604 18.8425 95.3951 18.6509L95.8917 19.5189C95.638 19.6641 95.4362 19.8265 95.2792 20.0029L94.5322 19.3381ZM95.3869 18.6557C95.699 18.4692 96.0328 18.2961 96.3878 18.1361L96.7988 19.0477C96.4759 19.1933 96.1764 19.3489 95.8999 19.5141L95.3869 18.6557ZM96.3796 18.1399C96.6944 17.991 96.9869 17.8219 97.2576 17.6328L97.8302 18.4527C97.5115 18.6752 97.1703 18.8722 96.807 19.0439L96.3796 18.1399ZM97.2527 17.6363C97.8339 17.22 98.0829 16.7456 98.0901 16.1967L99.09 16.2098C99.078 17.1283 98.6295 17.8802 97.8351 18.4493L97.2527 17.6363ZM98.0901 16.1967C98.0967 15.6878 97.9341 15.2903 97.6075 14.9665L98.3114 14.2563C98.8422 14.7823 99.1 15.4461 99.09 16.2098L98.0901 16.1967ZM97.6041 14.9632C97.2512 14.6068 96.7835 14.4109 96.1539 14.4027L96.167 13.4028C97.0196 13.4139 97.7513 13.6905 98.3147 14.2596L97.6041 14.9632ZM96.1539 14.4027C95.6205 14.3957 95.2074 14.5411 94.8796 14.8155L94.2377 14.0487C94.7729 13.6007 95.4277 13.3931 96.167 13.4028L96.1539 14.4027ZM94.878 14.8169C94.5334 15.1029 94.3601 15.4648 94.3538 15.9457L93.3539 15.9326C93.3638 15.1708 93.6603 14.528 94.2393 14.0474L94.878 14.8169ZM94.3476 16.018C94.3083 16.2635 94.3618 16.3169 94.3536 16.307L93.5832 16.9446C93.3244 16.6319 93.3014 16.2275 93.3601 15.8603L94.3476 16.018ZM94.3453 16.2973C94.3886 16.3469 94.4077 16.3449 94.4213 16.3451L94.4082 17.345C94.0774 17.3406 93.799 17.1924 93.5914 16.9543L94.3453 16.2973ZM94.4213 16.3451C94.4243 16.3451 94.4228 16.3448 94.418 16.3459C94.413 16.3471 94.4076 16.3491 94.403 16.3516C94.3985 16.354 94.3973 16.3554 94.3993 16.3537C94.4014 16.3517 94.4074 16.3458 94.4161 16.3336L95.2278 16.9178C95.0379 17.1816 94.7559 17.3495 94.4082 17.345L94.4213 16.3451ZM94.4064 16.3478C94.4409 16.296 94.4665 16.2251 94.4638 16.1117L95.4635 16.0877C95.4705 16.3788 95.4016 16.6585 95.2376 16.9037L94.4064 16.3478ZM94.4646 16.1301C94.4499 15.8903 94.4643 15.6587 94.5208 15.4447L95.4877 15.6999C95.4654 15.7844 95.4527 15.9044 95.4627 16.0693L94.4646 16.1301ZM94.5143 15.4724C94.5619 15.2392 94.6605 15.0263 94.8075 14.8392L95.5939 15.457C95.5429 15.5219 95.5106 15.5918 95.4941 15.6723L94.5143 15.4724ZM94.8072 14.8396C95.1561 14.3946 95.6861 14.2276 96.2684 14.2352L96.2553 15.2352C95.8644 15.23 95.6869 15.3384 95.5942 15.4566L94.8072 14.8396ZM96.2684 14.2352C96.7261 14.2412 97.1687 14.3561 97.4768 14.6856L96.7464 15.3686C96.7001 15.319 96.5762 15.2394 96.2553 15.2352L96.2684 14.2352ZM97.478 14.6868C97.844 15.0809 98.0655 15.5384 98.0588 16.0503L97.0589 16.0372C97.0614 15.8454 96.9847 15.6251 96.7453 15.3674L97.478 14.6868ZM98.0588 16.0503C98.0529 16.4997 97.9207 16.9095 97.6343 17.2421L96.8765 16.5896C96.9854 16.4632 97.0555 16.2916 97.0589 16.0372L98.0588 16.0503ZM97.6289 17.2482C97.3947 17.5114 97.1101 17.7438 96.7817 17.9484L96.2531 17.0995C96.5135 16.9374 96.7209 16.7644 96.8819 16.5835L97.6289 17.2482ZM96.7739 17.9532C96.4645 18.138 96.1334 18.3136 95.7811 18.4802L95.3537 17.5761C95.6794 17.4221 95.9817 17.2616 96.2609 17.0947L96.7739 17.9532ZM95.7811 18.4802C95.4663 18.629 95.1738 18.7981 94.903 18.9872L94.3305 18.1673C94.6491 17.9448 94.9904 17.7479 95.3537 17.5761L95.7811 18.4802ZM94.902 18.9879C94.3254 19.3885 94.078 19.8533 94.0709 20.4009L93.071 20.3878C93.083 19.4681 93.5328 18.7215 94.3315 18.1667L94.902 18.9879ZM94.0709 20.4009C94.0633 20.9827 94.2438 21.4161 94.5911 21.7497L93.8985 22.471C93.3289 21.924 93.0602 21.2134 93.071 20.3878L94.0709 20.4009ZM94.5917 21.7502C94.9558 22.101 95.4941 22.3117 96.2749 22.322L96.2619 23.3219C95.3059 23.3094 94.4951 23.0457 93.8979 22.4704L94.5917 21.7502ZM96.2749 22.322C96.9176 22.3304 97.4231 22.1507 97.8269 21.8044L98.4779 22.5634C97.8669 23.0874 97.1165 23.333 96.2619 23.3219L96.2749 22.322ZM97.8324 21.7997C98.2359 21.4637 98.4098 21.0641 98.3823 20.5583L99.3809 20.5041C99.4258 21.332 99.1135 22.0342 98.4723 22.5681L97.8324 21.7997ZM98.3821 20.5536C98.3728 20.3471 98.328 20.2746 98.3171 20.261C98.3144 20.2577 98.3147 20.2583 98.3133 20.2577C98.3096 20.2561 98.2903 20.2485 98.2451 20.2479L98.2582 19.248C98.5752 19.2522 98.8803 19.3657 99.0963 19.6343C99.2954 19.8818 99.3672 20.1983 99.3811 20.5088L98.3821 20.5536ZM90.6657 16.6724L91.1657 16.6766L91.1657 16.679L90.6657 16.6724ZM90.7054 11.922L90.2054 11.9179L90.2054 11.9155L90.7054 11.922ZM91.0533 5.07543L90.556 5.02311L90.5561 5.02225L91.0533 5.07543ZM90.8805 4.54529L90.5656 4.93365L90.5595 4.92867L90.5535 4.9235L90.8805 4.54529ZM89.8923 4.53236L90.1995 4.92685L90.1934 4.93165L90.1871 4.93625L89.8923 4.53236ZM89.6802 5.29333L89.1804 5.30601L89.1804 5.30564L89.6802 5.29333ZM89.7168 6.78759L90.2167 6.77562L90.2168 6.78163L89.7168 6.78759ZM89.7044 14.6045L90.2045 14.611L90.2042 14.6205L89.7044 14.6045ZM89.6668 15.7608L89.1671 15.7449L89.1671 15.7443L89.6668 15.7608ZM88.6131 20.7563L88.9863 21.089L88.6131 20.7563ZM84.7169 20.6716L84.3384 20.9983L84.3369 20.9966L84.7169 20.6716ZM83.8073 18.0877L83.3083 18.1219L83.3079 18.1117L83.8073 18.0877ZM83.765 12.7298L84.265 12.7363L84.2649 12.7426L83.765 12.7298ZM83.8138 10.72L83.3141 10.7034L83.3142 10.6996L83.8138 10.72ZM84.0694 4.91669L84.5689 4.93884L84.5688 4.94068L84.0694 4.91669ZM82.7443 4.89935L83.2443 4.89027L83.2443 4.89247L82.7443 4.89935ZM82.7573 8.20156L83.2573 8.20465L83.2573 8.2081L82.7573 8.20156ZM82.7262 11.4358L83.2262 11.4389L83.2262 11.4395L82.7262 11.4358ZM82.7989 17.0412L82.2998 17.071L82.2998 17.0708L82.7989 17.0412ZM83.1472 19.6066L83.6282 19.4697L83.6297 19.4755L83.1472 19.6066ZM83.8458 21.1544L83.4327 21.4362L83.4325 21.4358L83.8458 21.1544ZM90.3932 19.4767L89.9067 19.3613L89.9075 19.3579L90.3932 19.4767ZM90.1658 16.6682L90.2054 11.9179L91.2054 11.9262L91.1657 16.6766L90.1658 16.6682ZM90.2054 11.9155C90.2408 9.21108 90.3572 6.9126 90.556 5.02311L91.5505 5.12774C91.356 6.97692 91.2405 9.24285 91.2054 11.9286L90.2054 11.9155ZM90.5561 5.02225C90.5635 4.95292 90.5554 4.923 90.5539 4.91837C90.5533 4.91667 90.5541 4.91948 90.5574 4.92435C90.5608 4.92929 90.5642 4.9325 90.5656 4.93365L91.1954 4.15693C91.5097 4.41177 91.5875 4.78242 91.5505 5.1286L90.5561 5.02225ZM90.5535 4.9235C90.4986 4.87601 90.4509 4.86001 90.3935 4.85926L90.4065 3.85934C90.7085 3.86329 90.9811 3.97129 91.2076 4.16708L90.5535 4.9235ZM90.3935 4.85926C90.3228 4.85833 90.2636 4.87693 90.1995 4.92685L89.5851 4.13788C89.8236 3.95215 90.1029 3.85537 90.4065 3.85934L90.3935 4.85926ZM90.1871 4.93625C90.2329 4.9028 90.2247 4.87792 90.2075 4.93961C90.1904 5.00111 90.1758 5.10958 90.1801 5.28101L89.1804 5.30564C89.1748 5.0801 89.1907 4.86326 89.2443 4.6711C89.2978 4.47914 89.4005 4.27226 89.5976 4.12847L90.1871 4.93625ZM90.18 5.28065C90.1899 5.67046 90.2021 6.16881 90.2167 6.77562L89.217 6.79955C89.2024 6.19299 89.1902 5.69516 89.1804 5.30601L90.18 5.28065ZM90.2168 6.78163C90.2239 7.38125 90.2306 8.01825 90.2367 8.69262L89.2368 8.70176C89.2306 8.0282 89.224 7.39213 89.2168 6.79354L90.2168 6.78163ZM90.2367 8.69262C90.2491 10.0434 90.2481 11.2677 90.2338 12.3651L89.2338 12.3521C89.2481 11.2635 89.2491 10.0468 89.2368 8.70176L90.2367 8.69262ZM90.2338 12.3651C90.2337 12.3673 90.2337 12.3694 90.2337 12.3715C90.2336 12.3737 90.2336 12.3758 90.2336 12.3779C90.2336 12.3801 90.2335 12.3822 90.2335 12.3843C90.2335 12.3864 90.2334 12.3886 90.2334 12.3907C90.2334 12.3928 90.2334 12.3949 90.2333 12.3971C90.2333 12.3992 90.2333 12.4013 90.2333 12.4034C90.2332 12.4055 90.2332 12.4077 90.2332 12.4098C90.2331 12.4119 90.2331 12.414 90.2331 12.4161C90.2331 12.4182 90.233 12.4203 90.233 12.4225C90.233 12.4246 90.2329 12.4267 90.2329 12.4288C90.2329 12.4309 90.2329 12.433 90.2328 12.4351C90.2328 12.4372 90.2328 12.4393 90.2328 12.4414C90.2327 12.4435 90.2327 12.4456 90.2327 12.4477C90.2326 12.4498 90.2326 12.4519 90.2326 12.454C90.2326 12.4561 90.2325 12.4582 90.2325 12.4603C90.2325 12.4624 90.2325 12.4645 90.2324 12.4666C90.2324 12.4687 90.2324 12.4708 90.2323 12.4729C90.2323 12.475 90.2323 12.477 90.2323 12.4791C90.2322 12.4812 90.2322 12.4833 90.2322 12.4854C90.2322 12.4875 90.2321 12.4896 90.2321 12.4916C90.2321 12.4937 90.232 12.4958 90.232 12.4979C90.232 12.5 90.232 12.502 90.2319 12.5041C90.2319 12.5062 90.2319 12.5083 90.2319 12.5104C90.2318 12.5124 90.2318 12.5145 90.2318 12.5166C90.2317 12.5186 90.2317 12.5207 90.2317 12.5228C90.2317 12.5249 90.2316 12.5269 90.2316 12.529C90.2316 12.5311 90.2316 12.5331 90.2315 12.5352C90.2315 12.5372 90.2315 12.5393 90.2314 12.5414C90.2314 12.5434 90.2314 12.5455 90.2314 12.5475C90.2313 12.5496 90.2313 12.5517 90.2313 12.5537C90.2313 12.5558 90.2312 12.5578 90.2312 12.5599C90.2312 12.5619 90.2312 12.564 90.2311 12.566C90.2311 12.5681 90.2311 12.5701 90.231 12.5722C90.231 12.5742 90.231 12.5763 90.231 12.5783C90.2309 12.5804 90.2309 12.5824 90.2309 12.5845C90.2309 12.5865 90.2308 12.5885 90.2308 12.5906C90.2308 12.5926 90.2307 12.5947 90.2307 12.5967C90.2307 12.5987 90.2307 12.6008 90.2306 12.6028C90.2306 12.6048 90.2306 12.6069 90.2306 12.6089C90.2305 12.6109 90.2305 12.613 90.2305 12.615C90.2305 12.617 90.2304 12.6191 90.2304 12.6211C90.2304 12.6231 90.2304 12.6251 90.2303 12.6272C90.2303 12.6292 90.2303 12.6312 90.2302 12.6332C90.2302 12.6353 90.2302 12.6373 90.2302 12.6393C90.2301 12.6413 90.2301 12.6433 90.2301 12.6454C90.2301 12.6474 90.23 12.6494 90.23 12.6514C90.23 12.6534 90.23 12.6554 90.2299 12.6574C90.2299 12.6594 90.2299 12.6615 90.2298 12.6635C90.2298 12.6655 90.2298 12.6675 90.2298 12.6695C90.2297 12.6715 90.2297 12.6735 90.2297 12.6755C90.2297 12.6775 90.2296 12.6795 90.2296 12.6815C90.2296 12.6835 90.2296 12.6855 90.2295 12.6875C90.2295 12.6895 90.2295 12.6915 90.2295 12.6935C90.2294 12.6955 90.2294 12.6975 90.2294 12.6995C90.2294 12.7015 90.2293 12.7035 90.2293 12.7055C90.2293 12.7074 90.2292 12.7094 90.2292 12.7114C90.2292 12.7134 90.2292 12.7154 90.2291 12.7174C90.2291 12.7194 90.2291 12.7213 90.2291 12.7233C90.229 12.7253 90.229 12.7273 90.229 12.7293C90.229 12.7313 90.2289 12.7332 90.2289 12.7352C90.2289 12.7372 90.2289 12.7392 90.2288 12.7411C90.2288 12.7431 90.2288 12.7451 90.2288 12.7471C90.2287 12.749 90.2287 12.751 90.2287 12.753C90.2287 12.7549 90.2286 12.7569 90.2286 12.7589C90.2286 12.7608 90.2285 12.7628 90.2285 12.7648C90.2285 12.7667 90.2285 12.7687 90.2284 12.7707C90.2284 12.7726 90.2284 12.7746 90.2284 12.7765C90.2283 12.7785 90.2283 12.7805 90.2283 12.7824C90.2283 12.7844 90.2282 12.7863 90.2282 12.7883C90.2282 12.7902 90.2282 12.7922 90.2281 12.7941C90.2281 12.7961 90.2281 12.798 90.2281 12.8C90.228 12.8019 90.228 12.8039 90.228 12.8058C90.228 12.8078 90.2279 12.8097 90.2279 12.8117C90.2279 12.8136 90.2279 12.8155 90.2278 12.8175C90.2278 12.8194 90.2278 12.8214 90.2278 12.8233C90.2277 12.8252 90.2277 12.8272 90.2277 12.8291C90.2277 12.831 90.2276 12.833 90.2276 12.8349C90.2276 12.8368 90.2276 12.8388 90.2275 12.8407C90.2275 12.8426 90.2275 12.8446 90.2275 12.8465C90.2274 12.8484 90.2274 12.8503 90.2274 12.8523C90.2274 12.8542 90.2273 12.8561 90.2273 12.858C90.2273 12.86 90.2273 12.8619 90.2272 12.8638C90.2272 12.8657 90.2272 12.8676 90.2272 12.8695C90.2271 12.8715 90.2271 12.8734 90.2271 12.8753C90.2271 12.8772 90.227 12.8791 90.227 12.881C90.227 12.8829 90.227 12.8849 90.2269 12.8868C90.2269 12.8887 90.2269 12.8906 90.2269 12.8925C90.2268 12.8944 90.2268 12.8963 90.2268 12.8982C90.2268 12.9001 90.2267 12.902 90.2267 12.9039C90.2267 12.9058 90.2267 12.9077 90.2266 12.9096C90.2266 12.9115 90.2266 12.9134 90.2266 12.9153C90.2265 12.9172 90.2265 12.9191 90.2265 12.921C90.2265 12.9229 90.2264 12.9248 90.2264 12.9267C90.2264 12.9285 90.2264 12.9304 90.2263 12.9323C90.2263 12.9342 90.2263 12.9361 90.2263 12.938C90.2262 12.9399 90.2262 12.9417 90.2262 12.9436C90.2262 12.9455 90.2261 12.9474 90.2261 12.9493C90.2261 12.9512 90.2261 12.953 90.226 12.9549C90.226 12.9568 90.226 12.9587 90.226 12.9605C90.2259 12.9624 90.2259 12.9643 90.2259 12.9662C90.2259 12.968 90.2258 12.9699 90.2258 12.9718C90.2258 12.9736 90.2258 12.9755 90.2257 12.9774C90.2257 12.9792 90.2257 12.9811 90.2257 12.983C90.2256 12.9848 90.2256 12.9867 90.2256 12.9886C90.2256 12.9904 90.2255 12.9923 90.2255 12.9941C90.2255 12.996 90.2255 12.9979 90.2255 12.9997C90.2254 13.0016 90.2254 13.0034 90.2254 13.0053C90.2254 13.0071 90.2253 13.009 90.2253 13.0108C90.2253 13.0127 90.2253 13.0145 90.2252 13.0164C90.2252 13.0182 90.2252 13.0201 90.2252 13.0219C90.2251 13.0238 90.2251 13.0256 90.2251 13.0275C90.2251 13.0293 90.225 13.0311 90.225 13.033C90.225 13.0348 90.225 13.0367 90.2249 13.0385C90.2249 13.0403 90.2249 13.0422 90.2249 13.044C90.2248 13.0458 90.2248 13.0477 90.2248 13.0495C90.2248 13.0513 90.2248 13.0532 90.2247 13.055C90.2247 13.0568 90.2247 13.0587 90.2247 13.0605C90.2246 13.0623 90.2246 13.0641 90.2246 13.066C90.2246 13.0678 90.2245 13.0696 90.2245 13.0714C90.2245 13.0733 90.2245 13.0751 90.2244 13.0769C90.2244 13.0787 90.2244 13.0805 90.2244 13.0824C90.2243 13.0842 90.2243 13.086 90.2243 13.0878C90.2243 13.0896 90.2243 13.0914 90.2242 13.0932C90.2242 13.0951 90.2242 13.0969 90.2242 13.0987C90.2241 13.1005 90.2241 13.1023 90.2241 13.1041C90.2241 13.1059 90.224 13.1077 90.224 13.1095C90.224 13.1113 90.224 13.1131 90.2239 13.1149C90.2239 13.1167 90.2239 13.1185 90.2239 13.1203C90.2238 13.1221 90.2238 13.1239 90.2238 13.1257C90.2238 13.1275 90.2238 13.1293 90.2237 13.1311C90.2237 13.1329 90.2237 13.1347 90.2237 13.1365C90.2236 13.1383 90.2236 13.1401 90.2236 13.1418C90.2236 13.1436 90.2235 13.1454 90.2235 13.1472C90.2235 13.149 90.2235 13.1508 90.2235 13.1526C90.2234 13.1543 90.2234 13.1561 90.2234 13.1579C90.2234 13.1597 90.2233 13.1615 90.2233 13.1632C90.2233 13.165 90.2233 13.1668 90.2232 13.1686C90.2232 13.1703 90.2232 13.1721 90.2232 13.1739C90.2231 13.1757 90.2231 13.1774 90.2231 13.1792C90.2231 13.181 90.2231 13.1827 90.223 13.1845C90.223 13.1863 90.223 13.188 90.223 13.1898C90.2229 13.1916 90.2229 13.1933 90.2229 13.1951C90.2229 13.1968 90.2228 13.1986 90.2228 13.2004C90.2228 13.2021 90.2228 13.2039 90.2228 13.2056C90.2227 13.2074 90.2227 13.2091 90.2227 13.2109C90.2227 13.2127 90.2226 13.2144 90.2226 13.2162C90.2226 13.2179 90.2226 13.2197 90.2226 13.2214C90.2225 13.2232 90.2225 13.2249 90.2225 13.2267C90.2225 13.2284 90.2224 13.2301 90.2224 13.2319C90.2224 13.2336 90.2224 13.2354 90.2223 13.2371C90.2223 13.2389 90.2223 13.2406 90.2223 13.2423C90.2223 13.2441 90.2222 13.2458 90.2222 13.2475C90.2222 13.2493 90.2222 13.251 90.2221 13.2527C90.2221 13.2545 90.2221 13.2562 90.2221 13.2579C90.2221 13.2597 90.222 13.2614 90.222 13.2631C90.222 13.2649 90.222 13.2666 90.2219 13.2683C90.2219 13.27 90.2219 13.2718 90.2219 13.2735C90.2218 13.2752 90.2218 13.2769 90.2218 13.2786C90.2218 13.2804 90.2218 13.2821 90.2217 13.2838C90.2217 13.2855 90.2217 13.2872 90.2217 13.2889C90.2216 13.2907 90.2216 13.2924 90.2216 13.2941C90.2216 13.2958 90.2216 13.2975 90.2215 13.2992C90.2215 13.3009 90.2215 13.3026 90.2215 13.3043C90.2214 13.306 90.2214 13.3077 90.2214 13.3094C90.2214 13.3112 90.2214 13.3129 90.2213 13.3146C90.2213 13.3163 90.2213 13.318 90.2213 13.3197C90.2212 13.3214 90.2212 13.3231 90.2212 13.3247C90.2212 13.3264 90.2212 13.3281 90.2211 13.3298C90.2211 13.3315 90.2211 13.3332 90.2211 13.3349C90.221 13.3366 90.221 13.3383 90.221 13.34C90.221 13.3417 90.221 13.3434 90.2209 13.345C90.2209 13.3467 90.2209 13.3484 90.2209 13.3501C90.2208 13.3518 90.2208 13.3535 90.2208 13.3551C90.2208 13.3568 90.2208 13.3585 90.2207 13.3602C90.2207 13.3618 90.2207 13.3635 90.2207 13.3652C90.2206 13.3669 90.2206 13.3685 90.2206 13.3702C90.2206 13.3719 90.2206 13.3736 90.2205 13.3752C90.2205 13.3769 90.2205 13.3786 90.2205 13.3802C90.2205 13.3819 90.2204 13.3836 90.2204 13.3852C90.2204 13.3869 90.2204 13.3886 90.2203 13.3902C90.2203 13.3919 90.2203 13.3935 90.2203 13.3952C90.2203 13.3969 90.2202 13.3985 90.2202 13.4002C90.2202 13.4018 90.2202 13.4035 90.2201 13.4051C90.2201 13.4068 90.2201 13.4085 90.2201 13.4101C90.2201 13.4118 90.22 13.4134 90.22 13.4151C90.22 13.4167 90.22 13.4184 90.22 13.42C90.2199 13.4216 90.2199 13.4233 90.2199 13.4249C90.2199 13.4266 90.2198 13.4282 90.2198 13.4299C90.2198 13.4315 90.2198 13.4331 90.2198 13.4348C90.2197 13.4364 90.2197 13.4381 90.2197 13.4397C90.2197 13.4413 90.2197 13.443 90.2196 13.4446C90.2196 13.4462 90.2196 13.4479 90.2196 13.4495C90.2195 13.4511 90.2195 13.4527 90.2195 13.4544C90.2195 13.456 90.2195 13.4576 90.2194 13.4593C90.2194 13.4609 90.2194 13.4625 90.2194 13.4641C90.2194 13.4657 90.2193 13.4674 90.2193 13.469C90.2193 13.4706 90.2193 13.4722 90.2192 13.4738C90.2192 13.4755 90.2192 13.4771 90.2192 13.4787C90.2192 13.4803 90.2191 13.4819 90.2191 13.4835C90.2191 13.4851 90.2191 13.4868 90.2191 13.4884C90.219 13.49 90.219 13.4916 90.219 13.4932C90.219 13.4948 90.219 13.4964 90.2189 13.498C90.2189 13.4996 90.2189 13.5012 90.2189 13.5028C90.2188 13.5044 90.2188 13.506 90.2188 13.5076C90.2188 13.5092 90.2188 13.5108 90.2187 13.5124C90.2187 13.514 90.2187 13.5156 90.2187 13.5172C90.2187 13.5188 90.2186 13.5204 90.2186 13.522C90.2186 13.5236 90.2186 13.5251 90.2186 13.5267C90.2185 13.5283 90.2185 13.5299 90.2185 13.5315C90.2185 13.5331 90.2185 13.5347 90.2184 13.5362C90.2184 13.5378 90.2184 13.5394 90.2184 13.541C90.2183 13.5426 90.2183 13.5442 90.2183 13.5457C90.2183 13.5473 90.2183 13.5489 90.2182 13.5505C90.2182 13.552 90.2182 13.5536 90.2182 13.5552C90.2182 13.5568 90.2181 13.5583 90.2181 13.5599C90.2181 13.5615 90.2181 13.563 90.2181 13.5646C90.218 13.5662 90.218 13.5677 90.218 13.5693C90.218 13.5709 90.218 13.5724 90.2179 13.574C90.2179 13.5755 90.2179 13.5771 90.2179 13.5787C90.2179 13.5802 90.2178 13.5818 90.2178 13.5833C90.2178 13.5849 90.2178 13.5865 90.2178 13.588C90.2177 13.5896 90.2177 13.5911 90.2177 13.5927C90.2177 13.5942 90.2177 13.5958 90.2176 13.5973C90.2176 13.5989 90.2176 13.6004 90.2176 13.602C90.2176 13.6035 90.2175 13.6051 90.2175 13.6066C90.2175 13.6081 90.2175 13.6097 90.2175 13.6112C90.2174 13.6128 90.2174 13.6143 90.2174 13.6158C90.2174 13.6174 90.2174 13.6189 90.2173 13.6205C90.2173 13.622 90.2173 13.6235 90.2173 13.6251C90.2173 13.6266 90.2172 13.6281 90.2172 13.6297C90.2172 13.6312 90.2172 13.6327 90.2172 13.6342C90.2171 13.6358 90.2171 13.6373 90.2171 13.6388C90.2171 13.6403 90.2171 13.6419 90.217 13.6434C90.217 13.6449 90.217 13.6464 90.217 13.648C90.217 13.6495 90.2169 13.651 90.2169 13.6525C90.2169 13.654 90.2169 13.6555 90.2169 13.6571C90.2168 13.6586 90.2168 13.6601 90.2168 13.6616C90.2168 13.6631 90.2168 13.6646 90.2167 13.6661C90.2167 13.6676 90.2167 13.6691 90.2167 13.6707C90.2167 13.6722 90.2166 13.6737 90.2166 13.6752C90.2166 13.6767 90.2166 13.6782 90.2166 13.6797C90.2165 13.6812 90.2165 13.6827 90.2165 13.6842C90.2165 13.6857 90.2165 13.6872 90.2164 13.6887C90.2164 13.6902 90.2164 13.6917 90.2164 13.6932C90.2164 13.6947 90.2163 13.6961 90.2163 13.6976C90.2163 13.6991 90.2163 13.7006 90.2163 13.7021C90.2162 13.7036 90.2162 13.7051 90.2162 13.7066C90.2162 13.7081 90.2162 13.7095 90.2161 13.711C90.2161 13.7125 90.2161 13.714 90.2161 13.7155C90.2161 13.7169 90.216 13.7184 90.216 13.7199C90.216 13.7214 90.216 13.7229 90.216 13.7243C90.216 13.7258 90.2159 13.7273 90.2159 13.7288C90.2159 13.7302 90.2159 13.7317 90.2159 13.7332C90.2158 13.7346 90.2158 13.7361 90.2158 13.7376C90.2158 13.739 90.2158 13.7405 90.2157 13.742C90.2157 13.7434 90.2157 13.7449 90.2157 13.7464C90.2157 13.7478 90.2156 13.7493 90.2156 13.7507C90.2156 13.7522 90.2156 13.7537 90.2156 13.7551C90.2156 13.7566 90.2155 13.758 90.2155 13.7595C90.2155 13.7609 90.2155 13.7624 90.2155 13.7638C90.2154 13.7653 90.2154 13.7668 90.2154 13.7682C90.2154 13.7696 90.2154 13.7711 90.2153 13.7725C90.2153 13.774 90.2153 13.7754 90.2153 13.7769C90.2153 13.7783 90.2152 13.7798 90.2152 13.7812C90.2152 13.7826 90.2152 13.7841 90.2152 13.7855C90.2152 13.787 90.2151 13.7884 90.2151 13.7898C90.2151 13.7913 90.2151 13.7927 90.2151 13.7941C90.215 13.7956 90.215 13.797 90.215 13.7984C90.215 13.7999 90.215 13.8013 90.2149 13.8027C90.2149 13.8042 90.2149 13.8056 90.2149 13.807C90.2149 13.8084 90.2149 13.8099 90.2148 13.8113C90.2148 13.8127 90.2148 13.8141 90.2148 13.8155C90.2148 13.817 90.2147 13.8184 90.2147 13.8198C90.2147 13.8212 90.2147 13.8226 90.2147 13.824C90.2146 13.8255 90.2146 13.8269 90.2146 13.8283C90.2146 13.8297 90.2146 13.8311 90.2146 13.8325C90.2145 13.8339 90.2145 13.8353 90.2145 13.8367C90.2145 13.8382 90.2145 13.8396 90.2144 13.841C90.2144 13.8424 90.2144 13.8438 90.2144 13.8452C90.2144 13.8466 90.2144 13.848 90.2143 13.8494C90.2143 13.8508 90.2143 13.8522 90.2143 13.8536C90.2143 13.855 90.2142 13.8564 90.2142 13.8578C90.2142 13.8591 90.2142 13.8605 90.2142 13.8619C90.2142 13.8633 90.2141 13.8647 90.2141 13.8661C90.2141 13.8675 90.2141 13.8689 90.2141 13.8703C90.214 13.8716 90.214 13.873 90.214 13.8744C90.214 13.8758 90.214 13.8772 90.214 13.8786C90.2139 13.8799 90.2139 13.8813 90.2139 13.8827C90.2139 13.8841 90.2139 13.8855 90.2138 13.8868C90.2138 13.8882 90.2138 13.8896 90.2138 13.891C90.2138 13.8923 90.2138 13.8937 90.2137 13.8951C90.2137 13.8964 90.2137 13.8978 90.2137 13.8992C90.2137 13.9005 90.2136 13.9019 90.2136 13.9033C90.2136 13.9046 90.2136 13.906 90.2136 13.9074C90.2136 13.9087 90.2135 13.9101 90.2135 13.9114C90.2135 13.9128 90.2135 13.9142 90.2135 13.9155C90.2135 13.9169 90.2134 13.9182 90.2134 13.9196C90.2134 13.9209 90.2134 13.9223 90.2134 13.9236C90.2133 13.925 90.2133 13.9264 90.2133 13.9277C90.2133 13.929 90.2133 13.9304 90.2133 13.9317C90.2132 13.9331 90.2132 13.9344 90.2132 13.9358C90.2132 13.9371 90.2132 13.9385 90.2132 13.9398C90.2131 13.9411 90.2131 13.9425 90.2131 13.9438C90.2131 13.9452 90.2131 13.9465 90.213 13.9478C90.213 13.9492 90.213 13.9505 90.213 13.9518C90.213 13.9532 90.213 13.9545 90.2129 13.9558C90.2129 13.9572 90.2129 13.9585 90.2129 13.9598C90.2129 13.9612 90.2129 13.9625 90.2128 13.9638C90.2128 13.9651 90.2128 13.9665 90.2128 13.9678C90.2128 13.9691 90.2128 13.9704 90.2127 13.9717C90.2127 13.9731 90.2127 13.9744 90.2127 13.9757C90.2127 13.977 90.2126 13.9783 90.2126 13.9797C90.2126 13.981 90.2126 13.9823 90.2126 13.9836C90.2126 13.9849 90.2125 13.9862 90.2125 13.9875C90.2125 13.9888 90.2125 13.9901 90.2125 13.9915C90.2125 13.9928 90.2124 13.9941 90.2124 13.9954C90.2124 13.9967 90.2124 13.998 90.2124 13.9993C90.2124 14.0006 90.2123 14.0019 90.2123 14.0032C90.2123 14.0045 90.2123 14.0058 90.2123 14.0071C90.2123 14.0084 90.2122 14.0097 90.2122 14.011C90.2122 14.0123 90.2122 14.0135 90.2122 14.0148C90.2122 14.0161 90.2121 14.0174 90.2121 14.0187C90.2121 14.02 90.2121 14.0213 90.2121 14.0226C90.2121 14.0239 90.212 14.0251 90.212 14.0264C90.212 14.0277 90.212 14.029 90.212 14.0303C90.212 14.0316 90.2119 14.0328 90.2119 14.0341C90.2119 14.0354 90.2119 14.0367 90.2119 14.0379C90.2119 14.0392 90.2118 14.0405 90.2118 14.0418C90.2118 14.043 90.2118 14.0443 90.2118 14.0456C90.2118 14.0469 90.2117 14.0481 90.2117 14.0494C90.2117 14.0507 90.2117 14.0519 90.2117 14.0532C90.2117 14.0545 90.2116 14.0557 90.2116 14.057C90.2116 14.0582 90.2116 14.0595 90.2116 14.0608C90.2116 14.062 90.2115 14.0633 90.2115 14.0645C90.2115 14.0658 90.2115 14.0671 90.2115 14.0683C90.2115 14.0696 90.2114 14.0708 90.2114 14.0721C90.2114 14.0733 90.2114 14.0746 90.2114 14.0758C90.2114 14.0771 90.2113 14.0783 90.2113 14.0796C90.2113 14.0808 90.2113 14.0821 90.2113 14.0833C90.2113 14.0845 90.2112 14.0858 90.2112 14.087C90.2112 14.0883 90.2112 14.0895 90.2112 14.0907C90.2112 14.092 90.2111 14.0932 90.2111 14.0945C90.2111 14.0957 90.2111 14.0969 90.2111 14.0982C90.2111 14.0994 90.2111 14.1006 90.211 14.1019C90.211 14.1031 90.211 14.1043 90.211 14.1055C90.211 14.1068 90.211 14.108 90.2109 14.1092C90.2109 14.1105 90.2109 14.1117 90.2109 14.1129C90.2109 14.1141 90.2109 14.1153 90.2108 14.1166C90.2108 14.1178 90.2108 14.119 90.2108 14.1202C90.2108 14.1214 90.2108 14.1227 90.2107 14.1239C90.2107 14.1251 90.2107 14.1263 90.2107 14.1275C90.2107 14.1287 90.2107 14.1299 90.2107 14.1312C90.2106 14.1324 90.2106 14.1336 90.2106 14.1348C90.2106 14.136 90.2106 14.1372 90.2106 14.1384C90.2105 14.1396 90.2105 14.1408 90.2105 14.142C90.2105 14.1432 90.2105 14.1444 90.2105 14.1456C90.2104 14.1468 90.2104 14.148 90.2104 14.1492C90.2104 14.1504 90.2104 14.1516 90.2104 14.1528C90.2104 14.154 90.2103 14.1552 90.2103 14.1564C90.2103 14.1576 90.2103 14.1587 90.2103 14.1599C90.2103 14.1611 90.2102 14.1623 90.2102 14.1635C90.2102 14.1647 90.2102 14.1659 90.2102 14.1671C90.2102 14.1682 90.2102 14.1694 90.2101 14.1706C90.2101 14.1718 90.2101 14.173 90.2101 14.1741C90.2101 14.1753 90.2101 14.1765 90.21 14.1777C90.21 14.1788 90.21 14.18 90.21 14.1812C90.21 14.1824 90.21 14.1835 90.21 14.1847C90.2099 14.1859 90.2099 14.1871 90.2099 14.1882C90.2099 14.1894 90.2099 14.1906 90.2099 14.1917C90.2098 14.1929 90.2098 14.194 90.2098 14.1952C90.2098 14.1964 90.2098 14.1975 90.2098 14.1987C90.2098 14.1999 90.2097 14.201 90.2097 14.2022C90.2097 14.2033 90.2097 14.2045 90.2097 14.2056C90.2097 14.2068 90.2096 14.2079 90.2096 14.2091C90.2096 14.2103 90.2096 14.2114 90.2096 14.2126C90.2096 14.2137 90.2096 14.2149 90.2095 14.216C90.2095 14.2171 90.2095 14.2183 90.2095 14.2194C90.2095 14.2206 90.2095 14.2217 90.2095 14.2229C90.2094 14.224 90.2094 14.2251 90.2094 14.2263C90.2094 14.2274 90.2094 14.2286 90.2094 14.2297C90.2093 14.2308 90.2093 14.232 90.2093 14.2331C90.2093 14.2342 90.2093 14.2354 90.2093 14.2365C90.2093 14.2376 90.2092 14.2388 90.2092 14.2399C90.2092 14.241 90.2092 14.2421 90.2092 14.2433C90.2092 14.2444 90.2092 14.2455 90.2091 14.2466C90.2091 14.2478 90.2091 14.2489 90.2091 14.25C90.2091 14.2511 90.2091 14.2523 90.2091 14.2534C90.209 14.2545 90.209 14.2556 90.209 14.2567C90.209 14.2578 90.209 14.2589 90.209 14.2601C90.209 14.2612 90.2089 14.2623 90.2089 14.2634C90.2089 14.2645 90.2089 14.2656 90.2089 14.2667C90.2089 14.2678 90.2088 14.2689 90.2088 14.27C90.2088 14.2711 90.2088 14.2722 90.2088 14.2734C90.2088 14.2745 90.2088 14.2756 90.2087 14.2767C90.2087 14.2778 90.2087 14.2789 90.2087 14.2799C90.2087 14.281 90.2087 14.2821 90.2087 14.2832C90.2086 14.2843 90.2086 14.2854 90.2086 14.2865C90.2086 14.2876 90.2086 14.2887 90.2086 14.2898C90.2086 14.2909 90.2085 14.292 90.2085 14.293C90.2085 14.2941 90.2085 14.2952 90.2085 14.2963C90.2085 14.2974 90.2085 14.2985 90.2084 14.2996C90.2084 14.3006 90.2084 14.3017 90.2084 14.3028C90.2084 14.3039 90.2084 14.3049 90.2084 14.306C90.2083 14.3071 90.2083 14.3082 90.2083 14.3092C90.2083 14.3103 90.2083 14.3114 90.2083 14.3125C90.2083 14.3135 90.2083 14.3146 90.2082 14.3157C90.2082 14.3167 90.2082 14.3178 90.2082 14.3189C90.2082 14.3199 90.2082 14.321 90.2082 14.3221C90.2081 14.3231 90.2081 14.3242 90.2081 14.3252C90.2081 14.3263 90.2081 14.3274 90.2081 14.3284C90.2081 14.3295 90.208 14.3305 90.208 14.3316C90.208 14.3326 90.208 14.3337 90.208 14.3348C90.208 14.3358 90.208 14.3369 90.2079 14.3379C90.2079 14.339 90.2079 14.34 90.2079 14.3411C90.2079 14.3421 90.2079 14.3431 90.2079 14.3442C90.2079 14.3452 90.2078 14.3463 90.2078 14.3473C90.2078 14.3484 90.2078 14.3494 90.2078 14.3504C90.2078 14.3515 90.2078 14.3525 90.2077 14.3536C90.2077 14.3546 90.2077 14.3556 90.2077 14.3567C90.2077 14.3577 90.2077 14.3587 90.2077 14.3598C90.2076 14.3608 90.2076 14.3618 90.2076 14.3628C90.2076 14.3639 90.2076 14.3649 90.2076 14.3659C90.2076 14.367 90.2076 14.368 90.2075 14.369C90.2075 14.37 90.2075 14.371 90.2075 14.3721C90.2075 14.3731 90.2075 14.3741 90.2075 14.3751C90.2074 14.3761 90.2074 14.3772 90.2074 14.3782C90.2074 14.3792 90.2074 14.3802 90.2074 14.3812C90.2074 14.3822 90.2074 14.3832 90.2073 14.3843C90.2073 14.3853 90.2073 14.3863 90.2073 14.3873C90.2073 14.3883 90.2073 14.3893 90.2073 14.3903C90.2072 14.3913 90.2072 14.3923 90.2072 14.3933C90.2072 14.3943 90.2072 14.3953 90.2072 14.3963C90.2072 14.3973 90.2072 14.3983 90.2071 14.3993C90.2071 14.4003 90.2071 14.4013 90.2071 14.4023C90.2071 14.4033 90.2071 14.4043 90.2071 14.4053C90.2071 14.4063 90.207 14.4073 90.207 14.4083C90.207 14.4092 90.207 14.4102 90.207 14.4112C90.207 14.4122 90.207 14.4132 90.2069 14.4142C90.2069 14.4152 90.2069 14.4161 90.2069 14.4171C90.2069 14.4181 90.2069 14.4191 90.2069 14.4201C90.2069 14.421 90.2068 14.422 90.2068 14.423C90.2068 14.424 90.2068 14.4249 90.2068 14.4259C90.2068 14.4269 90.2068 14.4279 90.2068 14.4288C90.2067 14.4298 90.2067 14.4308 90.2067 14.4317C90.2067 14.4327 90.2067 14.4337 90.2067 14.4346C90.2067 14.4356 90.2067 14.4366 90.2066 14.4375C90.2066 14.4385 90.2066 14.4395 90.2066 14.4404C90.2066 14.4414 90.2066 14.4423 90.2066 14.4433C90.2066 14.4443 90.2065 14.4452 90.2065 14.4462C90.2065 14.4471 90.2065 14.4481 90.2065 14.449C90.2065 14.45 90.2065 14.4509 90.2065 14.4519C90.2064 14.4528 90.2064 14.4538 90.2064 14.4547C90.2064 14.4557 90.2064 14.4566 90.2064 14.4576C90.2064 14.4585 90.2064 14.4595 90.2063 14.4604C90.2063 14.4613 90.2063 14.4623 90.2063 14.4632C90.2063 14.4642 90.2063 14.4651 90.2063 14.466C90.2063 14.467 90.2062 14.4679 90.2062 14.4688C90.2062 14.4698 90.2062 14.4707 90.2062 14.4716C90.2062 14.4726 90.2062 14.4735 90.2062 14.4744C90.2061 14.4754 90.2061 14.4763 90.2061 14.4772C90.2061 14.4781 90.2061 14.4791 90.2061 14.48C90.2061 14.4809 90.2061 14.4818 90.2061 14.4827C90.206 14.4837 90.206 14.4846 90.206 14.4855C90.206 14.4864 90.206 14.4873 90.206 14.4883C90.206 14.4892 90.206 14.4901 90.2059 14.491C90.2059 14.4919 90.2059 14.4928 90.2059 14.4937C90.2059 14.4946 90.2059 14.4956 90.2059 14.4965C90.2059 14.4974 90.2058 14.4983 90.2058 14.4992C90.2058 14.5001 90.2058 14.501 90.2058 14.5019C90.2058 14.5028 90.2058 14.5037 90.2058 14.5046C90.2058 14.5055 90.2057 14.5064 90.2057 14.5073C90.2057 14.5082 90.2057 14.5091 90.2057 14.51C90.2057 14.5109 90.2057 14.5118 90.2057 14.5127C90.2056 14.5136 90.2056 14.5144 90.2056 14.5153C90.2056 14.5162 90.2056 14.5171 90.2056 14.518C90.2056 14.5189 90.2056 14.5198 90.2056 14.5207C90.2055 14.5215 90.2055 14.5224 90.2055 14.5233C90.2055 14.5242 90.2055 14.5251 90.2055 14.5259C90.2055 14.5268 90.2055 14.5277 90.2055 14.5286C90.2054 14.5295 90.2054 14.5303 90.2054 14.5312C90.2054 14.5321 90.2054 14.5329 90.2054 14.5338C90.2054 14.5347 90.2054 14.5356 90.2053 14.5364C90.2053 14.5373 90.2053 14.5382 90.2053 14.539C90.2053 14.5399 90.2053 14.5408 90.2053 14.5416C90.2053 14.5425 90.2053 14.5433 90.2052 14.5442C90.2052 14.5451 90.2052 14.5459 90.2052 14.5468C90.2052 14.5476 90.2052 14.5485 90.2052 14.5494C90.2052 14.5502 90.2052 14.5511 90.2051 14.5519C90.2051 14.5528 90.2051 14.5536 90.2051 14.5545C90.2051 14.5553 90.2051 14.5562 90.2051 14.557C90.2051 14.5579 90.2051 14.5587 90.205 14.5596C90.205 14.5604 90.205 14.5612 90.205 14.5621C90.205 14.5629 90.205 14.5638 90.205 14.5646C90.205 14.5654 90.205 14.5663 90.2049 14.5671C90.2049 14.568 90.2049 14.5688 90.2049 14.5696C90.2049 14.5705 90.2049 14.5713 90.2049 14.5721C90.2049 14.573 90.2049 14.5738 90.2049 14.5746C90.2048 14.5754 90.2048 14.5763 90.2048 14.5771C90.2048 14.5779 90.2048 14.5788 90.2048 14.5796C90.2048 14.5804 90.2048 14.5812 90.2048 14.582C90.2047 14.5829 90.2047 14.5837 90.2047 14.5845C90.2047 14.5853 90.2047 14.5861 90.2047 14.587C90.2047 14.5878 90.2047 14.5886 90.2047 14.5894C90.2046 14.5902 90.2046 14.591 90.2046 14.5918C90.2046 14.5926 90.2046 14.5935 90.2046 14.5943C90.2046 14.5951 90.2046 14.5959 90.2046 14.5967C90.2046 14.5975 90.2045 14.5983 90.2045 14.5991C90.2045 14.5999 90.2045 14.6007 90.2045 14.6015C90.2045 14.6023 90.2045 14.6031 90.2045 14.6039C90.2045 14.6047 90.2044 14.6055 90.2044 14.6063C90.2044 14.6071 90.2044 14.6079 90.2044 14.6087C90.2044 14.6095 90.2044 14.6102 90.2044 14.611L89.2045 14.598C89.2045 14.5972 89.2045 14.5964 89.2045 14.5956C89.2045 14.5948 89.2045 14.594 89.2045 14.5932C89.2045 14.5924 89.2045 14.5916 89.2046 14.5908C89.2046 14.59 89.2046 14.5892 89.2046 14.5884C89.2046 14.5876 89.2046 14.5868 89.2046 14.586C89.2046 14.5852 89.2046 14.5844 89.2046 14.5836C89.2047 14.5828 89.2047 14.582 89.2047 14.5812C89.2047 14.5804 89.2047 14.5796 89.2047 14.5788C89.2047 14.5779 89.2047 14.5771 89.2047 14.5763C89.2048 14.5755 89.2048 14.5747 89.2048 14.5739C89.2048 14.5731 89.2048 14.5722 89.2048 14.5714C89.2048 14.5706 89.2048 14.5698 89.2048 14.569C89.2048 14.5681 89.2049 14.5673 89.2049 14.5665C89.2049 14.5657 89.2049 14.5649 89.2049 14.564C89.2049 14.5632 89.2049 14.5624 89.2049 14.5615C89.2049 14.5607 89.205 14.5599 89.205 14.559C89.205 14.5582 89.205 14.5574 89.205 14.5566C89.205 14.5557 89.205 14.5549 89.205 14.554C89.205 14.5532 89.2051 14.5524 89.2051 14.5515C89.2051 14.5507 89.2051 14.5498 89.2051 14.549C89.2051 14.5482 89.2051 14.5473 89.2051 14.5465C89.2051 14.5456 89.2052 14.5448 89.2052 14.5439C89.2052 14.5431 89.2052 14.5422 89.2052 14.5414C89.2052 14.5405 89.2052 14.5397 89.2052 14.5388C89.2052 14.538 89.2053 14.5371 89.2053 14.5363C89.2053 14.5354 89.2053 14.5346 89.2053 14.5337C89.2053 14.5328 89.2053 14.532 89.2053 14.5311C89.2053 14.5303 89.2054 14.5294 89.2054 14.5285C89.2054 14.5277 89.2054 14.5268 89.2054 14.526C89.2054 14.5251 89.2054 14.5242 89.2054 14.5233C89.2054 14.5225 89.2055 14.5216 89.2055 14.5207C89.2055 14.5199 89.2055 14.519 89.2055 14.5181C89.2055 14.5173 89.2055 14.5164 89.2055 14.5155C89.2055 14.5146 89.2056 14.5137 89.2056 14.5129C89.2056 14.512 89.2056 14.5111 89.2056 14.5102C89.2056 14.5093 89.2056 14.5085 89.2056 14.5076C89.2057 14.5067 89.2057 14.5058 89.2057 14.5049C89.2057 14.504 89.2057 14.5031 89.2057 14.5023C89.2057 14.5014 89.2057 14.5005 89.2057 14.4996C89.2058 14.4987 89.2058 14.4978 89.2058 14.4969C89.2058 14.496 89.2058 14.4951 89.2058 14.4942C89.2058 14.4933 89.2058 14.4924 89.2059 14.4915C89.2059 14.4906 89.2059 14.4897 89.2059 14.4888C89.2059 14.4879 89.2059 14.487 89.2059 14.4861C89.2059 14.4852 89.2059 14.4843 89.206 14.4834C89.206 14.4825 89.206 14.4816 89.206 14.4807C89.206 14.4797 89.206 14.4788 89.206 14.4779C89.206 14.477 89.2061 14.4761 89.2061 14.4752C89.2061 14.4743 89.2061 14.4733 89.2061 14.4724C89.2061 14.4715 89.2061 14.4706 89.2061 14.4697C89.2061 14.4687 89.2062 14.4678 89.2062 14.4669C89.2062 14.466 89.2062 14.4651 89.2062 14.4641C89.2062 14.4632 89.2062 14.4623 89.2062 14.4613C89.2063 14.4604 89.2063 14.4595 89.2063 14.4586C89.2063 14.4576 89.2063 14.4567 89.2063 14.4558C89.2063 14.4548 89.2063 14.4539 89.2064 14.453C89.2064 14.452 89.2064 14.4511 89.2064 14.4501C89.2064 14.4492 89.2064 14.4483 89.2064 14.4473C89.2064 14.4464 89.2065 14.4454 89.2065 14.4445C89.2065 14.4435 89.2065 14.4426 89.2065 14.4416C89.2065 14.4407 89.2065 14.4398 89.2065 14.4388C89.2066 14.4379 89.2066 14.4369 89.2066 14.4359C89.2066 14.435 89.2066 14.434 89.2066 14.4331C89.2066 14.4321 89.2066 14.4312 89.2067 14.4302C89.2067 14.4293 89.2067 14.4283 89.2067 14.4273C89.2067 14.4264 89.2067 14.4254 89.2067 14.4245C89.2067 14.4235 89.2068 14.4225 89.2068 14.4216C89.2068 14.4206 89.2068 14.4196 89.2068 14.4187C89.2068 14.4177 89.2068 14.4167 89.2068 14.4158C89.2069 14.4148 89.2069 14.4138 89.2069 14.4128C89.2069 14.4119 89.2069 14.4109 89.2069 14.4099C89.2069 14.4089 89.2069 14.408 89.207 14.407C89.207 14.406 89.207 14.405 89.207 14.404C89.207 14.4031 89.207 14.4021 89.207 14.4011C89.207 14.4001 89.2071 14.3991 89.2071 14.3981C89.2071 14.3971 89.2071 14.3962 89.2071 14.3952C89.2071 14.3942 89.2071 14.3932 89.2072 14.3922C89.2072 14.3912 89.2072 14.3902 89.2072 14.3892C89.2072 14.3882 89.2072 14.3872 89.2072 14.3862C89.2072 14.3852 89.2073 14.3842 89.2073 14.3832C89.2073 14.3822 89.2073 14.3812 89.2073 14.3802C89.2073 14.3792 89.2073 14.3782 89.2073 14.3772C89.2074 14.3762 89.2074 14.3752 89.2074 14.3742C89.2074 14.3732 89.2074 14.3722 89.2074 14.3712C89.2074 14.3702 89.2075 14.3692 89.2075 14.3681C89.2075 14.3671 89.2075 14.3661 89.2075 14.3651C89.2075 14.3641 89.2075 14.3631 89.2075 14.3621C89.2076 14.361 89.2076 14.36 89.2076 14.359C89.2076 14.358 89.2076 14.3569 89.2076 14.3559C89.2076 14.3549 89.2077 14.3539 89.2077 14.3529C89.2077 14.3518 89.2077 14.3508 89.2077 14.3498C89.2077 14.3487 89.2077 14.3477 89.2077 14.3467C89.2078 14.3456 89.2078 14.3446 89.2078 14.3436C89.2078 14.3425 89.2078 14.3415 89.2078 14.3405C89.2078 14.3394 89.2079 14.3384 89.2079 14.3374C89.2079 14.3363 89.2079 14.3353 89.2079 14.3342C89.2079 14.3332 89.2079 14.3322 89.2079 14.3311C89.208 14.3301 89.208 14.329 89.208 14.328C89.208 14.3269 89.208 14.3259 89.208 14.3248C89.208 14.3238 89.2081 14.3227 89.2081 14.3217C89.2081 14.3206 89.2081 14.3196 89.2081 14.3185C89.2081 14.3175 89.2081 14.3164 89.2082 14.3153C89.2082 14.3143 89.2082 14.3132 89.2082 14.3122C89.2082 14.3111 89.2082 14.31 89.2082 14.309C89.2083 14.3079 89.2083 14.3069 89.2083 14.3058C89.2083 14.3047 89.2083 14.3037 89.2083 14.3026C89.2083 14.3015 89.2084 14.3005 89.2084 14.2994C89.2084 14.2983 89.2084 14.2972 89.2084 14.2962C89.2084 14.2951 89.2084 14.294 89.2084 14.2929C89.2085 14.2919 89.2085 14.2908 89.2085 14.2897C89.2085 14.2886 89.2085 14.2876 89.2085 14.2865C89.2085 14.2854 89.2086 14.2843 89.2086 14.2832C89.2086 14.2821 89.2086 14.2811 89.2086 14.28C89.2086 14.2789 89.2086 14.2778 89.2087 14.2767C89.2087 14.2756 89.2087 14.2745 89.2087 14.2734C89.2087 14.2723 89.2087 14.2712 89.2087 14.2702C89.2088 14.2691 89.2088 14.268 89.2088 14.2669C89.2088 14.2658 89.2088 14.2647 89.2088 14.2636C89.2088 14.2625 89.2089 14.2614 89.2089 14.2603C89.2089 14.2592 89.2089 14.2581 89.2089 14.257C89.2089 14.2559 89.2089 14.2547 89.209 14.2536C89.209 14.2525 89.209 14.2514 89.209 14.2503C89.209 14.2492 89.209 14.2481 89.2091 14.247C89.2091 14.2459 89.2091 14.2448 89.2091 14.2436C89.2091 14.2425 89.2091 14.2414 89.2091 14.2403C89.2092 14.2392 89.2092 14.2381 89.2092 14.2369C89.2092 14.2358 89.2092 14.2347 89.2092 14.2336C89.2092 14.2324 89.2093 14.2313 89.2093 14.2302C89.2093 14.2291 89.2093 14.2279 89.2093 14.2268C89.2093 14.2257 89.2093 14.2246 89.2094 14.2234C89.2094 14.2223 89.2094 14.2212 89.2094 14.22C89.2094 14.2189 89.2094 14.2178 89.2094 14.2166C89.2095 14.2155 89.2095 14.2143 89.2095 14.2132C89.2095 14.2121 89.2095 14.2109 89.2095 14.2098C89.2096 14.2086 89.2096 14.2075 89.2096 14.2064C89.2096 14.2052 89.2096 14.2041 89.2096 14.2029C89.2096 14.2018 89.2097 14.2006 89.2097 14.1995C89.2097 14.1983 89.2097 14.1972 89.2097 14.196C89.2097 14.1949 89.2097 14.1937 89.2098 14.1926C89.2098 14.1914 89.2098 14.1903 89.2098 14.1891C89.2098 14.1879 89.2098 14.1868 89.2099 14.1856C89.2099 14.1845 89.2099 14.1833 89.2099 14.1821C89.2099 14.181 89.2099 14.1798 89.2099 14.1786C89.21 14.1775 89.21 14.1763 89.21 14.1751C89.21 14.174 89.21 14.1728 89.21 14.1716C89.2101 14.1705 89.2101 14.1693 89.2101 14.1681C89.2101 14.1669 89.2101 14.1658 89.2101 14.1646C89.2101 14.1634 89.2102 14.1622 89.2102 14.1611C89.2102 14.1599 89.2102 14.1587 89.2102 14.1575C89.2102 14.1563 89.2103 14.1552 89.2103 14.154C89.2103 14.1528 89.2103 14.1516 89.2103 14.1504C89.2103 14.1492 89.2103 14.148 89.2104 14.1469C89.2104 14.1457 89.2104 14.1445 89.2104 14.1433C89.2104 14.1421 89.2104 14.1409 89.2105 14.1397C89.2105 14.1385 89.2105 14.1373 89.2105 14.1361C89.2105 14.1349 89.2105 14.1337 89.2105 14.1325C89.2106 14.1313 89.2106 14.1301 89.2106 14.1289C89.2106 14.1277 89.2106 14.1265 89.2106 14.1253C89.2107 14.1241 89.2107 14.1229 89.2107 14.1217C89.2107 14.1205 89.2107 14.1193 89.2107 14.1181C89.2108 14.1169 89.2108 14.1157 89.2108 14.1144C89.2108 14.1132 89.2108 14.112 89.2108 14.1108C89.2108 14.1096 89.2109 14.1084 89.2109 14.1071C89.2109 14.1059 89.2109 14.1047 89.2109 14.1035C89.2109 14.1023 89.211 14.101 89.211 14.0998C89.211 14.0986 89.211 14.0974 89.211 14.0962C89.211 14.0949 89.2111 14.0937 89.2111 14.0925C89.2111 14.0912 89.2111 14.09 89.2111 14.0888C89.2111 14.0876 89.2112 14.0863 89.2112 14.0851C89.2112 14.0839 89.2112 14.0826 89.2112 14.0814C89.2112 14.0801 89.2112 14.0789 89.2113 14.0777C89.2113 14.0764 89.2113 14.0752 89.2113 14.0739C89.2113 14.0727 89.2113 14.0715 89.2114 14.0702C89.2114 14.069 89.2114 14.0677 89.2114 14.0665C89.2114 14.0652 89.2114 14.064 89.2115 14.0627C89.2115 14.0615 89.2115 14.0602 89.2115 14.059C89.2115 14.0577 89.2115 14.0565 89.2116 14.0552C89.2116 14.054 89.2116 14.0527 89.2116 14.0515C89.2116 14.0502 89.2116 14.0489 89.2117 14.0477C89.2117 14.0464 89.2117 14.0452 89.2117 14.0439C89.2117 14.0426 89.2117 14.0414 89.2118 14.0401C89.2118 14.0388 89.2118 14.0376 89.2118 14.0363C89.2118 14.035 89.2118 14.0338 89.2119 14.0325C89.2119 14.0312 89.2119 14.03 89.2119 14.0287C89.2119 14.0274 89.2119 14.0261 89.212 14.0249C89.212 14.0236 89.212 14.0223 89.212 14.021C89.212 14.0198 89.212 14.0185 89.2121 14.0172C89.2121 14.0159 89.2121 14.0146 89.2121 14.0133C89.2121 14.0121 89.2121 14.0108 89.2122 14.0095C89.2122 14.0082 89.2122 14.0069 89.2122 14.0056C89.2122 14.0043 89.2122 14.0031 89.2123 14.0018C89.2123 14.0005 89.2123 13.9992 89.2123 13.9979C89.2123 13.9966 89.2123 13.9953 89.2124 13.994C89.2124 13.9927 89.2124 13.9914 89.2124 13.9901C89.2124 13.9888 89.2124 13.9875 89.2125 13.9862C89.2125 13.9849 89.2125 13.9836 89.2125 13.9823C89.2125 13.981 89.2125 13.9797 89.2126 13.9784C89.2126 13.9771 89.2126 13.9758 89.2126 13.9744C89.2126 13.9731 89.2126 13.9718 89.2127 13.9705C89.2127 13.9692 89.2127 13.9679 89.2127 13.9666C89.2127 13.9653 89.2128 13.9639 89.2128 13.9626C89.2128 13.9613 89.2128 13.96 89.2128 13.9587C89.2128 13.9573 89.2129 13.956 89.2129 13.9547C89.2129 13.9534 89.2129 13.9521 89.2129 13.9507C89.2129 13.9494 89.213 13.9481 89.213 13.9467C89.213 13.9454 89.213 13.9441 89.213 13.9428C89.213 13.9414 89.2131 13.9401 89.2131 13.9388C89.2131 13.9374 89.2131 13.9361 89.2131 13.9348C89.2132 13.9334 89.2132 13.9321 89.2132 13.9307C89.2132 13.9294 89.2132 13.9281 89.2132 13.9267C89.2133 13.9254 89.2133 13.924 89.2133 13.9227C89.2133 13.9214 89.2133 13.92 89.2133 13.9187C89.2134 13.9173 89.2134 13.916 89.2134 13.9146C89.2134 13.9133 89.2134 13.9119 89.2135 13.9106C89.2135 13.9092 89.2135 13.9079 89.2135 13.9065C89.2135 13.9052 89.2135 13.9038 89.2136 13.9024C89.2136 13.9011 89.2136 13.8997 89.2136 13.8984C89.2136 13.897 89.2136 13.8956 89.2137 13.8943C89.2137 13.8929 89.2137 13.8916 89.2137 13.8902C89.2137 13.8888 89.2138 13.8875 89.2138 13.8861C89.2138 13.8847 89.2138 13.8834 89.2138 13.882C89.2138 13.8806 89.2139 13.8792 89.2139 13.8779C89.2139 13.8765 89.2139 13.8751 89.2139 13.8737C89.214 13.8724 89.214 13.871 89.214 13.8696C89.214 13.8682 89.214 13.8669 89.214 13.8655C89.2141 13.8641 89.2141 13.8627 89.2141 13.8613C89.2141 13.86 89.2141 13.8586 89.2141 13.8572C89.2142 13.8558 89.2142 13.8544 89.2142 13.853C89.2142 13.8516 89.2142 13.8502 89.2143 13.8488C89.2143 13.8475 89.2143 13.8461 89.2143 13.8447C89.2143 13.8433 89.2143 13.8419 89.2144 13.8405C89.2144 13.8391 89.2144 13.8377 89.2144 13.8363C89.2144 13.8349 89.2145 13.8335 89.2145 13.8321C89.2145 13.8307 89.2145 13.8293 89.2145 13.8279C89.2146 13.8265 89.2146 13.8251 89.2146 13.8237C89.2146 13.8223 89.2146 13.8208 89.2146 13.8194C89.2147 13.818 89.2147 13.8166 89.2147 13.8152C89.2147 13.8138 89.2147 13.8124 89.2148 13.811C89.2148 13.8096 89.2148 13.8081 89.2148 13.8067C89.2148 13.8053 89.2148 13.8039 89.2149 13.8025C89.2149 13.801 89.2149 13.7996 89.2149 13.7982C89.2149 13.7968 89.215 13.7954 89.215 13.7939C89.215 13.7925 89.215 13.7911 89.215 13.7896C89.2151 13.7882 89.2151 13.7868 89.2151 13.7854C89.2151 13.7839 89.2151 13.7825 89.2151 13.7811C89.2152 13.7796 89.2152 13.7782 89.2152 13.7768C89.2152 13.7753 89.2152 13.7739 89.2153 13.7724C89.2153 13.771 89.2153 13.7696 89.2153 13.7681C89.2153 13.7667 89.2154 13.7652 89.2154 13.7638C89.2154 13.7624 89.2154 13.7609 89.2154 13.7595C89.2154 13.758 89.2155 13.7566 89.2155 13.7551C89.2155 13.7537 89.2155 13.7522 89.2155 13.7508C89.2156 13.7493 89.2156 13.7479 89.2156 13.7464C89.2156 13.745 89.2156 13.7435 89.2157 13.742C89.2157 13.7406 89.2157 13.7391 89.2157 13.7377C89.2157 13.7362 89.2158 13.7347 89.2158 13.7333C89.2158 13.7318 89.2158 13.7304 89.2158 13.7289C89.2158 13.7274 89.2159 13.726 89.2159 13.7245C89.2159 13.723 89.2159 13.7216 89.2159 13.7201C89.216 13.7186 89.216 13.7171 89.216 13.7157C89.216 13.7142 89.216 13.7127 89.2161 13.7113C89.2161 13.7098 89.2161 13.7083 89.2161 13.7068C89.2161 13.7053 89.2162 13.7039 89.2162 13.7024C89.2162 13.7009 89.2162 13.6994 89.2162 13.6979C89.2163 13.6965 89.2163 13.695 89.2163 13.6935C89.2163 13.692 89.2163 13.6905 89.2163 13.689C89.2164 13.6875 89.2164 13.686 89.2164 13.6846C89.2164 13.6831 89.2164 13.6816 89.2165 13.6801C89.2165 13.6786 89.2165 13.6771 89.2165 13.6756C89.2165 13.6741 89.2166 13.6726 89.2166 13.6711C89.2166 13.6696 89.2166 13.6681 89.2166 13.6666C89.2167 13.6651 89.2167 13.6636 89.2167 13.6621C89.2167 13.6606 89.2167 13.6591 89.2168 13.6576C89.2168 13.6561 89.2168 13.6546 89.2168 13.6531C89.2168 13.6515 89.2169 13.65 89.2169 13.6485C89.2169 13.647 89.2169 13.6455 89.2169 13.644C89.217 13.6425 89.217 13.6409 89.217 13.6394C89.217 13.6379 89.217 13.6364 89.2171 13.6349C89.2171 13.6334 89.2171 13.6318 89.2171 13.6303C89.2171 13.6288 89.2172 13.6273 89.2172 13.6257C89.2172 13.6242 89.2172 13.6227 89.2172 13.6212C89.2173 13.6196 89.2173 13.6181 89.2173 13.6166C89.2173 13.615 89.2173 13.6135 89.2174 13.612C89.2174 13.6104 89.2174 13.6089 89.2174 13.6074C89.2174 13.6058 89.2175 13.6043 89.2175 13.6028C89.2175 13.6012 89.2175 13.5997 89.2175 13.5981C89.2176 13.5966 89.2176 13.5951 89.2176 13.5935C89.2176 13.592 89.2176 13.5904 89.2177 13.5889C89.2177 13.5873 89.2177 13.5858 89.2177 13.5842C89.2177 13.5827 89.2178 13.5811 89.2178 13.5796C89.2178 13.578 89.2178 13.5765 89.2178 13.5749C89.2179 13.5734 89.2179 13.5718 89.2179 13.5703C89.2179 13.5687 89.2179 13.5671 89.218 13.5656C89.218 13.564 89.218 13.5625 89.218 13.5609C89.218 13.5593 89.2181 13.5578 89.2181 13.5562C89.2181 13.5547 89.2181 13.5531 89.2181 13.5515C89.2182 13.55 89.2182 13.5484 89.2182 13.5468C89.2182 13.5452 89.2182 13.5437 89.2183 13.5421C89.2183 13.5405 89.2183 13.539 89.2183 13.5374C89.2184 13.5358 89.2184 13.5342 89.2184 13.5326C89.2184 13.5311 89.2184 13.5295 89.2185 13.5279C89.2185 13.5263 89.2185 13.5247 89.2185 13.5232C89.2185 13.5216 89.2186 13.52 89.2186 13.5184C89.2186 13.5168 89.2186 13.5152 89.2186 13.5137C89.2187 13.5121 89.2187 13.5105 89.2187 13.5089C89.2187 13.5073 89.2187 13.5057 89.2188 13.5041C89.2188 13.5025 89.2188 13.5009 89.2188 13.4993C89.2189 13.4977 89.2189 13.4961 89.2189 13.4945C89.2189 13.4929 89.2189 13.4913 89.219 13.4897C89.219 13.4881 89.219 13.4865 89.219 13.4849C89.219 13.4833 89.2191 13.4817 89.2191 13.4801C89.2191 13.4785 89.2191 13.4769 89.2191 13.4753C89.2192 13.4737 89.2192 13.4721 89.2192 13.4704C89.2192 13.4688 89.2192 13.4672 89.2193 13.4656C89.2193 13.464 89.2193 13.4624 89.2193 13.4608C89.2194 13.4591 89.2194 13.4575 89.2194 13.4559C89.2194 13.4543 89.2194 13.4527 89.2195 13.451C89.2195 13.4494 89.2195 13.4478 89.2195 13.4462C89.2195 13.4445 89.2196 13.4429 89.2196 13.4413C89.2196 13.4397 89.2196 13.438 89.2197 13.4364C89.2197 13.4348 89.2197 13.4331 89.2197 13.4315C89.2197 13.4299 89.2198 13.4282 89.2198 13.4266C89.2198 13.425 89.2198 13.4233 89.2198 13.4217C89.2199 13.4201 89.2199 13.4184 89.2199 13.4168C89.2199 13.4151 89.22 13.4135 89.22 13.4119C89.22 13.4102 89.22 13.4086 89.22 13.4069C89.2201 13.4053 89.2201 13.4036 89.2201 13.402C89.2201 13.4003 89.2201 13.3987 89.2202 13.397C89.2202 13.3954 89.2202 13.3937 89.2202 13.3921C89.2203 13.3904 89.2203 13.3888 89.2203 13.3871C89.2203 13.3854 89.2203 13.3838 89.2204 13.3821C89.2204 13.3805 89.2204 13.3788 89.2204 13.3771C89.2204 13.3755 89.2205 13.3738 89.2205 13.3722C89.2205 13.3705 89.2205 13.3688 89.2206 13.3672C89.2206 13.3655 89.2206 13.3638 89.2206 13.3622C89.2206 13.3605 89.2207 13.3588 89.2207 13.3571C89.2207 13.3555 89.2207 13.3538 89.2208 13.3521C89.2208 13.3504 89.2208 13.3488 89.2208 13.3471C89.2208 13.3454 89.2209 13.3437 89.2209 13.3421C89.2209 13.3404 89.2209 13.3387 89.221 13.337C89.221 13.3353 89.221 13.3336 89.221 13.332C89.221 13.3303 89.2211 13.3286 89.2211 13.3269C89.2211 13.3252 89.2211 13.3235 89.2212 13.3218C89.2212 13.3201 89.2212 13.3184 89.2212 13.3168C89.2212 13.3151 89.2213 13.3134 89.2213 13.3117C89.2213 13.31 89.2213 13.3083 89.2214 13.3066C89.2214 13.3049 89.2214 13.3032 89.2214 13.3015C89.2214 13.2998 89.2215 13.2981 89.2215 13.2964C89.2215 13.2947 89.2215 13.293 89.2216 13.2913C89.2216 13.2895 89.2216 13.2878 89.2216 13.2861C89.2216 13.2844 89.2217 13.2827 89.2217 13.281C89.2217 13.2793 89.2217 13.2776 89.2218 13.2759C89.2218 13.2741 89.2218 13.2724 89.2218 13.2707C89.2218 13.269 89.2219 13.2673 89.2219 13.2656C89.2219 13.2638 89.2219 13.2621 89.222 13.2604C89.222 13.2587 89.222 13.2569 89.222 13.2552C89.222 13.2535 89.2221 13.2518 89.2221 13.25C89.2221 13.2483 89.2221 13.2466 89.2222 13.2449C89.2222 13.2431 89.2222 13.2414 89.2222 13.2397C89.2222 13.2379 89.2223 13.2362 89.2223 13.2345C89.2223 13.2327 89.2223 13.231 89.2224 13.2293C89.2224 13.2275 89.2224 13.2258 89.2224 13.224C89.2225 13.2223 89.2225 13.2206 89.2225 13.2188C89.2225 13.2171 89.2225 13.2153 89.2226 13.2136C89.2226 13.2118 89.2226 13.2101 89.2226 13.2083C89.2227 13.2066 89.2227 13.2048 89.2227 13.2031C89.2227 13.2013 89.2228 13.1996 89.2228 13.1978C89.2228 13.1961 89.2228 13.1943 89.2228 13.1926C89.2229 13.1908 89.2229 13.189 89.2229 13.1873C89.2229 13.1855 89.223 13.1838 89.223 13.182C89.223 13.1802 89.223 13.1785 89.223 13.1767C89.2231 13.175 89.2231 13.1732 89.2231 13.1714C89.2231 13.1697 89.2232 13.1679 89.2232 13.1661C89.2232 13.1643 89.2232 13.1626 89.2233 13.1608C89.2233 13.159 89.2233 13.1573 89.2233 13.1555C89.2234 13.1537 89.2234 13.1519 89.2234 13.1502C89.2234 13.1484 89.2234 13.1466 89.2235 13.1448C89.2235 13.143 89.2235 13.1413 89.2235 13.1395C89.2236 13.1377 89.2236 13.1359 89.2236 13.1341C89.2236 13.1323 89.2237 13.1305 89.2237 13.1288C89.2237 13.127 89.2237 13.1252 89.2237 13.1234C89.2238 13.1216 89.2238 13.1198 89.2238 13.118C89.2238 13.1162 89.2239 13.1144 89.2239 13.1126C89.2239 13.1108 89.2239 13.109 89.224 13.1072C89.224 13.1054 89.224 13.1036 89.224 13.1018C89.2241 13.1 89.2241 13.0982 89.2241 13.0964C89.2241 13.0946 89.2241 13.0928 89.2242 13.091C89.2242 13.0892 89.2242 13.0874 89.2242 13.0856C89.2243 13.0838 89.2243 13.082 89.2243 13.0802C89.2243 13.0784 89.2244 13.0765 89.2244 13.0747C89.2244 13.0729 89.2244 13.0711 89.2245 13.0693C89.2245 13.0675 89.2245 13.0656 89.2245 13.0638C89.2246 13.062 89.2246 13.0602 89.2246 13.0584C89.2246 13.0565 89.2246 13.0547 89.2247 13.0529C89.2247 13.0511 89.2247 13.0492 89.2247 13.0474C89.2248 13.0456 89.2248 13.0438 89.2248 13.0419C89.2248 13.0401 89.2249 13.0383 89.2249 13.0364C89.2249 13.0346 89.2249 13.0328 89.225 13.0309C89.225 13.0291 89.225 13.0273 89.225 13.0254C89.2251 13.0236 89.2251 13.0217 89.2251 13.0199C89.2251 13.0181 89.2251 13.0162 89.2252 13.0144C89.2252 13.0125 89.2252 13.0107 89.2252 13.0088C89.2253 13.007 89.2253 13.0052 89.2253 13.0033C89.2253 13.0015 89.2254 12.9996 89.2254 12.9978C89.2254 12.9959 89.2254 12.9941 89.2255 12.9922C89.2255 12.9903 89.2255 12.9885 89.2255 12.9866C89.2256 12.9848 89.2256 12.9829 89.2256 12.9811C89.2256 12.9792 89.2257 12.9773 89.2257 12.9755C89.2257 12.9736 89.2257 12.9718 89.2258 12.9699C89.2258 12.968 89.2258 12.9662 89.2258 12.9643C89.2259 12.9624 89.2259 12.9606 89.2259 12.9587C89.2259 12.9568 89.226 12.955 89.226 12.9531C89.226 12.9512 89.226 12.9493 89.226 12.9475C89.2261 12.9456 89.2261 12.9437 89.2261 12.9418C89.2261 12.94 89.2262 12.9381 89.2262 12.9362C89.2262 12.9343 89.2262 12.9324 89.2263 12.9306C89.2263 12.9287 89.2263 12.9268 89.2263 12.9249C89.2264 12.923 89.2264 12.9211 89.2264 12.9192C89.2264 12.9174 89.2265 12.9155 89.2265 12.9136C89.2265 12.9117 89.2265 12.9098 89.2266 12.9079C89.2266 12.906 89.2266 12.9041 89.2266 12.9022C89.2267 12.9003 89.2267 12.8984 89.2267 12.8965C89.2267 12.8946 89.2268 12.8927 89.2268 12.8908C89.2268 12.8889 89.2268 12.887 89.2269 12.8851C89.2269 12.8832 89.2269 12.8813 89.2269 12.8794C89.227 12.8775 89.227 12.8756 89.227 12.8737C89.227 12.8718 89.2271 12.8699 89.2271 12.868C89.2271 12.866 89.2271 12.8641 89.2272 12.8622C89.2272 12.8603 89.2272 12.8584 89.2272 12.8565C89.2273 12.8545 89.2273 12.8526 89.2273 12.8507C89.2273 12.8488 89.2274 12.8469 89.2274 12.845C89.2274 12.843 89.2274 12.8411 89.2275 12.8392C89.2275 12.8373 89.2275 12.8353 89.2275 12.8334C89.2276 12.8315 89.2276 12.8295 89.2276 12.8276C89.2276 12.8257 89.2277 12.8238 89.2277 12.8218C89.2277 12.8199 89.2277 12.818 89.2278 12.816C89.2278 12.8141 89.2278 12.8122 89.2278 12.8102C89.2279 12.8083 89.2279 12.8063 89.2279 12.8044C89.2279 12.8025 89.228 12.8005 89.228 12.7986C89.228 12.7966 89.228 12.7947 89.2281 12.7927C89.2281 12.7908 89.2281 12.7888 89.2281 12.7869C89.2282 12.7849 89.2282 12.783 89.2282 12.781C89.2283 12.7791 89.2283 12.7771 89.2283 12.7752C89.2283 12.7732 89.2284 12.7713 89.2284 12.7693C89.2284 12.7674 89.2284 12.7654 89.2285 12.7635C89.2285 12.7615 89.2285 12.7595 89.2285 12.7576C89.2286 12.7556 89.2286 12.7537 89.2286 12.7517C89.2286 12.7497 89.2287 12.7478 89.2287 12.7458C89.2287 12.7438 89.2287 12.7419 89.2288 12.7399C89.2288 12.7379 89.2288 12.7359 89.2288 12.734C89.2289 12.732 89.2289 12.73 89.2289 12.7281C89.2289 12.7261 89.229 12.7241 89.229 12.7221C89.229 12.7202 89.229 12.7182 89.2291 12.7162C89.2291 12.7142 89.2291 12.7122 89.2292 12.7103C89.2292 12.7083 89.2292 12.7063 89.2292 12.7043C89.2293 12.7023 89.2293 12.7003 89.2293 12.6983C89.2293 12.6964 89.2294 12.6944 89.2294 12.6924C89.2294 12.6904 89.2294 12.6884 89.2295 12.6864C89.2295 12.6844 89.2295 12.6824 89.2295 12.6804C89.2296 12.6784 89.2296 12.6764 89.2296 12.6744C89.2296 12.6724 89.2297 12.6704 89.2297 12.6684C89.2297 12.6664 89.2298 12.6644 89.2298 12.6624C89.2298 12.6604 89.2298 12.6584 89.2299 12.6564C89.2299 12.6544 89.2299 12.6524 89.2299 12.6504C89.23 12.6484 89.23 12.6464 89.23 12.6444C89.23 12.6423 89.2301 12.6403 89.2301 12.6383C89.2301 12.6363 89.2301 12.6343 89.2302 12.6323C89.2302 12.6303 89.2302 12.6282 89.2303 12.6262C89.2303 12.6242 89.2303 12.6222 89.2303 12.6202C89.2304 12.6181 89.2304 12.6161 89.2304 12.6141C89.2304 12.6121 89.2305 12.61 89.2305 12.608C89.2305 12.606 89.2305 12.604 89.2306 12.6019C89.2306 12.5999 89.2306 12.5979 89.2306 12.5958C89.2307 12.5938 89.2307 12.5918 89.2307 12.5897C89.2308 12.5877 89.2308 12.5857 89.2308 12.5836C89.2308 12.5816 89.2309 12.5795 89.2309 12.5775C89.2309 12.5755 89.2309 12.5734 89.231 12.5714C89.231 12.5693 89.231 12.5673 89.231 12.5652C89.2311 12.5632 89.2311 12.5612 89.2311 12.5591C89.2312 12.5571 89.2312 12.555 89.2312 12.553C89.2312 12.5509 89.2313 12.5489 89.2313 12.5468C89.2313 12.5448 89.2313 12.5427 89.2314 12.5406C89.2314 12.5386 89.2314 12.5365 89.2315 12.5345C89.2315 12.5324 89.2315 12.5303 89.2315 12.5283C89.2316 12.5262 89.2316 12.5242 89.2316 12.5221C89.2316 12.52 89.2317 12.518 89.2317 12.5159C89.2317 12.5138 89.2317 12.5118 89.2318 12.5097C89.2318 12.5076 89.2318 12.5056 89.2319 12.5035C89.2319 12.5014 89.2319 12.4993 89.2319 12.4973C89.232 12.4952 89.232 12.4931 89.232 12.491C89.232 12.489 89.2321 12.4869 89.2321 12.4848C89.2321 12.4827 89.2322 12.4806 89.2322 12.4786C89.2322 12.4765 89.2322 12.4744 89.2323 12.4723C89.2323 12.4702 89.2323 12.4681 89.2323 12.4661C89.2324 12.464 89.2324 12.4619 89.2324 12.4598C89.2325 12.4577 89.2325 12.4556 89.2325 12.4535C89.2325 12.4514 89.2326 12.4493 89.2326 12.4472C89.2326 12.4451 89.2326 12.443 89.2327 12.4409C89.2327 12.4388 89.2327 12.4367 89.2328 12.4346C89.2328 12.4325 89.2328 12.4304 89.2328 12.4283C89.2329 12.4262 89.2329 12.4241 89.2329 12.422C89.2329 12.4199 89.233 12.4178 89.233 12.4157C89.233 12.4136 89.2331 12.4115 89.2331 12.4094C89.2331 12.4073 89.2331 12.4052 89.2332 12.403C89.2332 12.4009 89.2332 12.3988 89.2333 12.3967C89.2333 12.3946 89.2333 12.3925 89.2333 12.3903C89.2334 12.3882 89.2334 12.3861 89.2334 12.384C89.2334 12.3819 89.2335 12.3797 89.2335 12.3776C89.2335 12.3755 89.2336 12.3734 89.2336 12.3712C89.2336 12.3691 89.2336 12.367 89.2337 12.3648C89.2337 12.3627 89.2337 12.3606 89.2338 12.3585C89.2338 12.3563 89.2338 12.3542 89.2338 12.3521L90.2338 12.3651ZM90.2042 14.6205C90.1915 15.0173 90.1789 15.403 90.1666 15.7774L89.1671 15.7443C89.1795 15.3703 89.192 14.985 89.2047 14.5885L90.2042 14.6205ZM90.1666 15.7768C90.1346 16.7781 90.0861 17.6036 90.02 18.2498C89.9553 18.8829 89.8703 19.3848 89.7498 19.713L88.811 19.3686C88.8847 19.1677 88.9611 18.775 89.0252 18.1481C89.088 17.5344 89.1355 16.7345 89.1671 15.7449L90.1666 15.7768ZM89.7498 19.713C89.5438 20.2747 89.2944 20.7436 88.9863 21.089L88.2399 20.4235C88.4334 20.2065 88.6289 19.865 88.811 19.3686L89.7498 19.713ZM88.9863 21.089C88.3848 21.7637 87.6043 22.0967 86.6864 22.0847L86.6995 21.0848C87.3387 21.0932 87.8384 20.8739 88.2399 20.4235L88.9863 21.089ZM86.6864 22.0847C85.7445 22.0724 84.9496 21.7066 84.3384 20.9983L85.0955 20.345C85.5168 20.8332 86.0393 21.0762 86.6995 21.0848L86.6864 22.0847ZM84.3369 20.9966C83.7152 20.2696 83.3887 19.2935 83.3084 18.1219L84.3061 18.0536C84.3768 19.0853 84.6566 19.8318 85.0969 20.3467L84.3369 20.9966ZM83.3079 18.1117C83.2429 16.7585 83.2154 15.6648 83.2262 14.8342L84.2262 14.8473C84.2157 15.6488 84.2422 16.7197 84.3067 18.0638L83.3079 18.1117ZM83.2262 14.8342C83.2369 14.0168 83.2499 13.311 83.2652 12.7169L84.2649 12.7426C84.2497 13.3312 84.2368 14.0327 84.2262 14.8473L83.2262 14.8342ZM83.2651 12.7232C83.273 12.1203 83.2893 11.4469 83.3141 10.7034L84.3135 10.7366C84.2889 11.475 84.2728 12.1415 84.265 12.7363L83.2651 12.7232ZM83.3142 10.6996C83.4023 8.54339 83.4876 6.60773 83.57 4.8927L84.5688 4.94068C84.4866 6.65282 84.4014 8.58603 84.3134 10.7404L83.3142 10.6996ZM83.5699 4.89453C83.5732 4.821 83.564 4.78286 83.559 4.76842C83.5554 4.75804 83.5551 4.76181 83.5603 4.76629L84.2105 4.00651C84.4998 4.2541 84.5837 4.60575 84.5689 4.93884L83.5699 4.89453ZM83.5603 4.76629C83.5141 4.72673 83.4735 4.71259 83.4207 4.71189L83.4337 3.71198C83.7253 3.71579 83.9902 3.81796 84.2105 4.00651L83.5603 4.76629ZM83.4207 4.71189C83.3671 4.71119 83.3176 4.72488 83.258 4.77067L82.6487 3.97775C82.8765 3.80268 83.143 3.70818 83.4337 3.71198L83.4207 4.71189ZM83.258 4.77067C83.2577 4.77092 83.2588 4.77004 83.26 4.7685C83.261 4.76707 83.26 4.76794 83.2579 4.77324C83.2533 4.78477 83.243 4.81945 83.2442 4.89027L82.2444 4.90843C82.2382 4.56602 82.3408 4.21433 82.6487 3.97775L83.258 4.77067ZM83.2443 4.89247C83.2597 6.01156 83.264 7.11562 83.2573 8.20465L82.2573 8.19847C82.264 7.11627 82.2597 6.01886 82.2444 4.90623L83.2443 4.89247ZM83.2573 8.2081C83.2431 9.29247 83.2327 10.3694 83.2262 11.4389L82.2262 11.4328C82.2328 10.3609 82.2431 9.28169 82.2573 8.19502L83.2573 8.2081ZM83.2262 11.4395C83.2072 14.0367 83.2316 15.8907 83.298 17.0117L82.2998 17.0708C82.2312 15.9138 82.2072 14.0309 82.2262 11.4322L83.2262 11.4395ZM83.298 17.0114C83.365 18.1326 83.4786 18.9442 83.6281 19.4697L82.6663 19.7434C82.4865 19.1115 82.368 18.213 82.2998 17.071L83.298 17.0114ZM83.6297 19.4755C83.7737 20.0055 83.9846 20.4698 84.2591 20.8731L83.4325 21.4358C83.0899 20.9325 82.8351 20.3648 82.6647 19.7376L83.6297 19.4755ZM84.2588 20.8726C84.8608 21.7551 85.652 22.183 86.6737 22.1964L86.6606 23.1963C85.3017 23.1785 84.212 22.5785 83.4327 21.4362L84.2588 20.8726ZM86.6737 22.1964C87.5615 22.208 88.2377 21.9737 88.7484 21.5324C89.2658 21.0854 89.6648 20.3813 89.9067 19.3613L90.8797 19.5921C90.6065 20.7443 90.1269 21.6629 89.4023 22.2891C88.671 22.9209 87.7417 23.2104 86.6606 23.1963L86.6737 22.1964ZM89.9075 19.3579C90.0631 18.7219 90.1483 18.0015 90.1589 17.1937L91.1588 17.2068C91.1474 18.0758 91.0556 18.8731 90.8789 19.5955L89.9075 19.3579ZM90.1589 17.1937L90.1658 16.6659L91.1657 16.679L91.1588 17.2068L90.1589 17.1937Z" fill="#BB23FD"/>
<path d="M21 21V4" stroke="white" stroke-width="2.8" stroke-linecap="round"/>
<path d="M2 21V17.5V10" stroke="white" stroke-width="2.8" stroke-linecap="round"/>
<path d="M2 10L12 16.5C15.9833 10.6421 17.0167 9.85786 21 4" stroke="#BB23FD" stroke-width="2.8" stroke-linecap="round" stroke-linejoin="round"/>
<path d="M26.07 12.777C26.07 12.041 25.978 11.4967 25.794 11.144L27.105 10.914C27.3657 10.9753 27.5267 11.1287 27.588 11.374C27.6647 11.6193 27.703 11.8723 27.703 12.133C27.703 12.317 27.6723 13.375 27.611 15.307C27.5497 17.2237 27.519 18.2893 27.519 18.504C27.519 18.7187 27.5267 18.964 27.542 19.24C27.5727 19.5007 27.6493 19.7767 27.772 20.068C27.9867 20.666 28.508 20.965 29.336 20.965C29.9493 20.965 30.4707 20.7503 30.9 20.321C31.3447 19.8763 31.6667 19.2937 31.866 18.573C32.2493 17.2697 32.441 15.8437 32.441 14.295V11.19H33.982V17.469C33.982 18.8337 34.0817 19.7767 34.281 20.298C34.4803 20.804 34.925 21.057 35.615 21.057L35.661 22.092C35.4157 22.1533 35.109 22.184 34.741 22.184C33.9743 22.184 33.4377 21.9617 33.131 21.517C32.8397 21.057 32.694 20.528 32.694 19.93C32.694 19.7613 32.7017 19.585 32.717 19.401H32.579C32.3337 20.3363 31.8813 21.0493 31.222 21.54C30.578 22.0307 29.727 22.276 28.669 22.276C27.6263 22.276 26.898 21.954 26.484 21.31C26.07 20.666 25.863 19.7843 25.863 18.665C25.863 18.527 25.8937 17.538 25.955 15.698C26.0317 13.858 26.07 12.8843 26.07 12.777ZM39.9667 11.65C39.9667 12.4627 39.9053 13.145 39.7827 13.697H39.9207C40.1353 12.8383 40.5493 12.1637 41.1627 11.673C41.7913 11.167 42.5503 10.914 43.4397 10.914C44.651 10.914 45.4867 11.2207 45.9467 11.834C46.4067 12.432 46.6367 13.3367 46.6367 14.548C46.6367 14.594 46.6213 15.376 46.5907 16.894C46.5753 18.412 46.5677 19.378 46.5677 19.792C46.5677 20.206 46.6137 20.5127 46.7057 20.712C46.813 20.9113 47.1427 21.011 47.6947 21.011L47.7407 22.046C47.526 22.138 47.2117 22.184 46.7977 22.184C46.0617 22.184 45.5557 22.0153 45.2797 21.678C45.019 21.3407 44.8887 20.804 44.8887 20.068C44.8887 20.0373 44.904 19.2093 44.9347 17.584C44.9653 15.9587 44.9807 15.1153 44.9807 15.054C44.9807 14.1647 44.8657 13.4747 44.6357 12.984C44.4057 12.478 43.9457 12.225 43.2557 12.225C42.581 12.225 42.0137 12.4397 41.5537 12.869C41.109 13.2983 40.7717 13.858 40.5417 14.548C40.1277 15.882 39.9207 17.3003 39.9207 18.803V22H38.3337V11.19L39.9667 10.983V11.65ZM52.4999 11.65C52.4999 12.4627 52.4385 13.145 52.3159 13.697H52.4539C52.6685 12.8383 53.0825 12.1637 53.6959 11.673C54.3245 11.167 55.0835 10.914 55.9729 10.914C57.1842 10.914 58.0199 11.2207 58.4799 11.834C58.9399 12.432 59.1699 13.3367 59.1699 14.548C59.1699 14.594 59.1545 15.376 59.1239 16.894C59.1085 18.412 59.1009 19.378 59.1009 19.792C59.1009 20.206 59.1469 20.5127 59.2389 20.712C59.3462 20.9113 59.6759 21.011 60.2279 21.011L60.2739 22.046C60.0592 22.138 59.7449 22.184 59.3309 22.184C58.5949 22.184 58.0889 22.0153 57.8129 21.678C57.5522 21.3407 57.4219 20.804 57.4219 20.068C57.4219 20.0373 57.4372 19.2093 57.4679 17.584C57.4985 15.9587 57.5139 15.1153 57.5139 15.054C57.5139 14.1647 57.3989 13.4747 57.1689 12.984C56.9389 12.478 56.4789 12.225 55.7889 12.225C55.1142 12.225 54.5469 12.4397 54.0869 12.869C53.6422 13.2983 53.3049 13.858 53.0749 14.548C52.6609 15.882 52.4539 17.3003 52.4539 18.803V22H50.8669V11.19L52.4999 10.983V11.65ZM65.3321 22.184C64.6267 22.184 64.1361 22.0153 63.8601 21.678C63.5841 21.3407 63.4461 20.7887 63.4461 20.022V11.19H65.1021V19.079C65.1021 19.8917 65.1634 20.4207 65.2861 20.666C65.4087 20.896 65.7614 21.011 66.3441 21.011L66.3901 22.023C66.0374 22.1303 65.6847 22.184 65.3321 22.184ZM63.2851 7.579C63.2851 6.85833 63.6377 6.498 64.3431 6.498C64.9871 6.498 65.3091 6.85067 65.3091 7.556C65.3091 8.246 64.9717 8.591 64.2971 8.591C63.6224 8.591 63.2851 8.25367 63.2851 7.579ZM71.0975 11.65C71.0975 12.4627 71.0362 13.145 70.9135 13.697H71.0515C71.2662 12.8383 71.6802 12.1637 72.2935 11.673C72.9222 11.167 73.6812 10.914 74.5705 10.914C75.7819 10.914 76.6175 11.2207 77.0775 11.834C77.5375 12.432 77.7675 13.3367 77.7675 14.548C77.7675 14.594 77.7522 15.376 77.7215 16.894C77.7062 18.412 77.6985 19.378 77.6985 19.792C77.6985 20.206 77.7445 20.5127 77.8365 20.712C77.9439 20.9113 78.2735 21.011 78.8255 21.011L78.8715 22.046C78.6569 22.138 78.3425 22.184 77.9285 22.184C77.1925 22.184 76.6865 22.0153 76.4105 21.678C76.1499 21.3407 76.0195 20.804 76.0195 20.068C76.0195 20.0373 76.0349 19.2093 76.0655 17.584C76.0962 15.9587 76.1115 15.1153 76.1115 15.054C76.1115 14.1647 75.9965 13.4747 75.7665 12.984C75.5365 12.478 75.0765 12.225 74.3865 12.225C73.7119 12.225 73.1445 12.4397 72.6845 12.869C72.2399 13.2983 71.9025 13.858 71.6725 14.548C71.2585 15.882 71.0515 17.3003 71.0515 18.803V22H69.4645V11.19L71.0975 10.983V11.65Z" fill="white"/>
<path d="M25.794 11.144L25.7422 10.8485L25.3384 10.9193L25.528 11.2828L25.794 11.144ZM27.105 10.914L27.1737 10.622L27.1138 10.6079L27.0532 10.6185L27.105 10.914ZM27.588 11.374L27.297 11.4468L27.2991 11.4552L27.3017 11.4635L27.588 11.374ZM27.611 15.307L27.9108 15.3166L27.9108 15.3165L27.611 15.307ZM27.542 19.24L27.2425 19.2566L27.243 19.2659L27.2441 19.2751L27.542 19.24ZM27.772 20.068L28.0544 19.9666L28.0516 19.959L28.0485 19.9516L27.772 20.068ZM30.9 20.321L30.6879 20.1089L30.9 20.321ZM31.866 18.573L31.5782 18.4883L31.5769 18.493L31.866 18.573ZM32.441 11.19V10.89H32.141V11.19H32.441ZM33.982 11.19H34.282V10.89H33.982V11.19ZM34.281 20.298L34.0008 20.4051L34.0019 20.408L34.281 20.298ZM35.615 21.057L35.9147 21.0437L35.902 20.757H35.615V21.057ZM35.661 22.092L35.7338 22.383L35.9716 22.3236L35.9607 22.0787L35.661 22.092ZM33.131 21.517L32.8774 21.6776L32.884 21.6873L33.131 21.517ZM32.717 19.401L33.016 19.4259L33.043 19.101H32.717V19.401ZM32.579 19.401V19.101H32.3475L32.2888 19.3249L32.579 19.401ZM31.222 21.54L31.0429 21.2993L31.0402 21.3014L31.222 21.54ZM26.484 21.31L26.2316 21.4722L26.484 21.31ZM25.955 15.698L25.6552 15.6855L25.6552 15.688L25.955 15.698ZM26.37 12.777C26.37 12.0272 26.2782 11.4234 26.06 11.0052L25.528 11.2828C25.6778 11.5699 25.77 12.0548 25.77 12.777H26.37ZM25.8458 11.4395L27.1568 11.2095L27.0532 10.6185L25.7422 10.8485L25.8458 11.4395ZM27.0363 11.206C27.1254 11.227 27.1797 11.2592 27.2144 11.2922C27.2482 11.3245 27.2781 11.3715 27.297 11.4468L27.879 11.3012C27.8365 11.1312 27.7553 10.9788 27.6281 10.8578C27.5018 10.7375 27.3453 10.6624 27.1737 10.622L27.0363 11.206ZM27.3017 11.4635C27.3691 11.6794 27.403 11.9022 27.403 12.133H28.003C28.003 11.8424 27.9602 11.5592 27.8743 11.2845L27.3017 11.4635ZM27.403 12.133C27.403 12.3107 27.3726 13.3612 27.3112 15.2975L27.9108 15.3165C27.972 13.3888 28.003 12.3233 28.003 12.133H27.403ZM27.3112 15.2974C27.2499 17.2101 27.219 18.2831 27.219 18.504H27.819C27.819 18.2956 27.8494 17.2372 27.9108 15.3166L27.3112 15.2974ZM27.219 18.504C27.219 18.7255 27.2269 18.9766 27.2425 19.2566L27.8415 19.2234C27.8264 18.9514 27.819 18.7118 27.819 18.504H27.219ZM27.2441 19.2751C27.2786 19.5687 27.3641 19.8722 27.4955 20.1844L28.0485 19.9516C27.9346 19.6811 27.8667 19.4326 27.8399 19.2049L27.2441 19.2751ZM27.4896 20.1694C27.6196 20.5313 27.8485 20.8139 28.1747 21.001C28.4948 21.1846 28.8885 21.265 29.336 21.265V20.665C28.9555 20.665 28.6745 20.5959 28.4733 20.4805C28.2782 20.3686 28.1391 20.2027 28.0544 19.9666L27.4896 20.1694ZM29.336 21.265C30.028 21.265 30.6259 21.0194 31.1121 20.5331L30.6879 20.1089C30.3154 20.4813 29.8707 20.665 29.336 20.665V21.265ZM31.1121 20.5331C31.5998 20.0454 31.9446 19.4141 32.1551 18.653L31.5769 18.493C31.3887 19.1732 31.0895 19.7072 30.6879 20.1089L31.1121 20.5331ZM32.1538 18.6576C32.5463 17.3233 32.741 15.8684 32.741 14.295H32.141C32.141 15.8189 31.9524 17.216 31.5782 18.4883L32.1538 18.6576ZM32.741 14.295V11.19H32.141V14.295H32.741ZM32.441 11.49H33.982V10.89H32.441V11.49ZM33.682 11.19V17.469H34.282V11.19H33.682ZM33.682 17.469C33.682 18.8323 33.7795 19.8264 34.0008 20.4051L34.5612 20.1909C34.3838 19.7269 34.282 18.835 34.282 17.469H33.682ZM34.0019 20.408C34.1249 20.7204 34.3299 20.9654 34.6156 21.128C34.8963 21.2877 35.2354 21.357 35.615 21.357V20.757C35.3046 20.757 35.0764 20.6998 34.9124 20.6065C34.7535 20.5161 34.6364 20.3816 34.5601 20.188L34.0019 20.408ZM35.3153 21.0703L35.3613 22.1053L35.9607 22.0787L35.9147 21.0437L35.3153 21.0703ZM35.5882 21.801C35.3748 21.8543 35.0945 21.884 34.741 21.884V22.484C35.1235 22.484 35.4565 22.4523 35.7338 22.383L35.5882 21.801ZM34.741 21.884C34.0285 21.884 33.6074 21.6794 33.378 21.3467L32.884 21.6873C33.2679 22.244 33.9202 22.484 34.741 22.484V21.884ZM33.3844 21.3565C33.1265 20.9492 32.994 20.477 32.994 19.93H32.394C32.394 20.579 32.5529 21.1648 32.8776 21.6775L33.3844 21.3565ZM32.994 19.93C32.994 19.7704 33.0013 19.6024 33.016 19.4259L32.418 19.3761C32.4021 19.5676 32.394 19.7523 32.394 19.93H32.994ZM32.717 19.101H32.579V19.701H32.717V19.101ZM32.2888 19.3249C32.0576 20.2065 31.6383 20.8562 31.0429 21.2993L31.4011 21.7807C32.1243 21.2424 32.6098 20.4662 32.8692 19.4771L32.2888 19.3249ZM31.0402 21.3014C30.4625 21.7415 29.6815 21.976 28.669 21.976V22.576C29.7725 22.576 30.6935 22.3198 31.4038 21.7786L31.0402 21.3014ZM28.669 21.976C27.6875 21.976 27.0762 21.6764 26.7364 21.1478L26.2316 21.4722C26.7198 22.2316 27.5652 22.576 28.669 22.576V21.976ZM26.7364 21.1478C26.3647 20.5697 26.163 19.7519 26.163 18.665H25.563C25.563 19.8168 25.7753 20.7623 26.2316 21.4722L26.7364 21.1478ZM26.163 18.665C26.163 18.5336 26.1933 17.5529 26.2548 15.708L25.6552 15.688C25.594 17.5231 25.563 18.5204 25.563 18.665H26.163ZM26.2547 15.7105C26.3311 13.877 26.37 12.8926 26.37 12.777H25.77C25.77 12.8761 25.7322 13.839 25.6553 15.6855L26.2547 15.7105ZM39.7827 13.697L39.4898 13.6319L39.4087 13.997H39.7827V13.697ZM39.9207 13.697V13.997H40.1549L40.2117 13.7698L39.9207 13.697ZM41.1627 11.673L41.3501 11.9073L41.3508 11.9067L41.1627 11.673ZM45.9467 11.834L45.7067 12.014L45.7089 12.0169L45.9467 11.834ZM46.5907 16.894L46.2907 16.8879L46.2907 16.891L46.5907 16.894ZM46.7057 20.712L46.4333 20.8377L46.4372 20.8461L46.4415 20.8542L46.7057 20.712ZM47.6947 21.011L47.9944 20.9977L47.9816 20.711H47.6947V21.011ZM47.7407 22.046L47.8588 22.3217L48.0496 22.24L48.0404 22.0327L47.7407 22.046ZM45.2797 21.678L45.0422 21.8615L45.0475 21.868L45.2797 21.678ZM44.9347 17.584L44.6347 17.5783L44.9347 17.584ZM44.6357 12.984L44.3625 13.1081L44.364 13.1113L44.6357 12.984ZM41.5537 12.869L41.3489 12.6497L41.3453 12.6532L41.5537 12.869ZM40.5417 14.548L40.257 14.4531L40.2552 14.4591L40.5417 14.548ZM39.9207 22V22.3H40.2207V22H39.9207ZM38.3337 22H38.0337V22.3H38.3337V22ZM38.3337 11.19L38.2959 10.8924L38.0337 10.9256V11.19H38.3337ZM39.9667 10.983H40.2667V10.6426L39.9289 10.6854L39.9667 10.983ZM39.6667 11.65C39.6667 12.4494 39.6062 13.1083 39.4898 13.6319L40.0755 13.7621C40.2045 13.1817 40.2667 12.4759 40.2667 11.65H39.6667ZM39.7827 13.997H39.9207V13.397H39.7827V13.997ZM40.2117 13.7698C40.4126 12.9663 40.7945 12.3517 41.3501 11.9073L40.9753 11.4387C40.3042 11.9756 39.8581 12.7103 39.6296 13.6242L40.2117 13.7698ZM41.3508 11.9067C41.9206 11.448 42.6113 11.214 43.4397 11.214V10.614C42.4893 10.614 41.6621 10.886 40.9746 11.4393L41.3508 11.9067ZM43.4397 11.214C44.6121 11.214 45.3299 11.5117 45.7067 12.014L46.1867 11.654C45.6434 10.9296 44.6899 10.614 43.4397 10.614V11.214ZM45.7089 12.0169C46.1106 12.5391 46.3367 13.3657 46.3367 14.548H46.9367C46.9367 13.3077 46.7027 12.3249 46.1845 11.6511L45.7089 12.0169ZM46.3367 14.548C46.3367 14.5478 46.3367 14.5487 46.3366 14.5513C46.3366 14.5537 46.3366 14.557 46.3365 14.5611C46.3364 14.5693 46.3362 14.5805 46.336 14.5948C46.3355 14.6232 46.3348 14.6633 46.3338 14.7149C46.3319 14.8183 46.3291 14.9677 46.3252 15.1631C46.3176 15.554 46.3061 16.129 46.2907 16.8879L46.8906 16.9001C46.9212 15.3856 46.9367 14.598 46.9367 14.548H46.3367ZM46.2907 16.891C46.2754 18.4085 46.2677 19.3762 46.2677 19.792H46.8677C46.8677 19.3798 46.8753 18.4155 46.8907 16.897L46.2907 16.891ZM46.2677 19.792C46.2677 20.2176 46.3133 20.5778 46.4333 20.8377L46.9781 20.5863C46.914 20.4475 46.8677 20.1944 46.8677 19.792H46.2677ZM46.4415 20.8542C46.5485 21.0528 46.7447 21.1624 46.9466 21.2234C47.1513 21.2853 47.4047 21.311 47.6947 21.311V20.711C47.4326 20.711 47.2452 20.6869 47.1202 20.6491C46.9925 20.6105 46.9702 20.5705 46.9698 20.5698L46.4415 20.8542ZM47.395 21.0243L47.441 22.0593L48.0404 22.0327L47.9944 20.9977L47.395 21.0243ZM47.6225 21.7703C47.4636 21.8383 47.1976 21.884 46.7977 21.884V22.484C47.2257 22.484 47.5884 22.4377 47.8588 22.3217L47.6225 21.7703ZM46.7977 21.884C46.0915 21.884 45.7014 21.7197 45.5119 21.488L45.0475 21.868C45.4099 22.311 46.0318 22.484 46.7977 22.484V21.884ZM45.5171 21.4946C45.3173 21.236 45.1887 20.781 45.1887 20.068H44.5887C44.5887 20.827 44.7207 21.4453 45.0423 21.8614L45.5171 21.4946ZM45.1887 20.068C45.1887 20.0688 45.1887 20.0664 45.1888 20.0573C45.1889 20.0495 45.1891 20.0384 45.1894 20.0241C45.1898 19.9956 45.1905 19.9545 45.1915 19.9009C45.1934 19.7936 45.1963 19.6365 45.2001 19.4296C45.2078 19.0156 45.2193 18.4023 45.2346 17.5897L44.6347 17.5783C44.6041 19.2002 44.5887 20.0336 44.5887 20.068H45.1887ZM45.2346 17.5897C45.2652 15.9676 45.2807 15.1191 45.2807 15.054H44.6807C44.6807 15.1116 44.6655 15.9498 44.6347 17.5783L45.2346 17.5897ZM45.2807 15.054C45.2807 14.1455 45.1642 13.4048 44.9073 12.8567L44.364 13.1113C44.5671 13.5445 44.6807 14.1839 44.6807 15.054H45.2807ZM44.9088 12.8599C44.7687 12.5517 44.5529 12.3115 44.2627 12.1519C43.9767 11.9946 43.6358 11.925 43.2557 11.925V12.525C43.5655 12.525 43.7997 12.5819 43.9736 12.6776C44.1435 12.771 44.2727 12.9103 44.3626 13.1081L44.9088 12.8599ZM43.2557 11.925C42.511 11.925 41.8688 12.1645 41.349 12.6497L41.7584 13.0883C42.1586 12.7148 42.651 12.525 43.2557 12.525V11.925ZM41.3453 12.6532C40.8602 13.1216 40.4997 13.7254 40.2571 14.4531L40.8263 14.6429C41.0437 13.9906 41.3578 13.4751 41.7621 13.0848L41.3453 12.6532ZM40.2552 14.4591C39.8316 15.824 39.6207 17.2725 39.6207 18.803H40.2207C40.2207 17.3282 40.4238 15.94 40.8282 14.6369L40.2552 14.4591ZM39.6207 18.803V22H40.2207V18.803H39.6207ZM39.9207 21.7H38.3337V22.3H39.9207V21.7ZM38.6337 22V11.19H38.0337V22H38.6337ZM38.3714 11.4876L40.0044 11.2806L39.9289 10.6854L38.2959 10.8924L38.3714 11.4876ZM39.6667 10.983V11.65H40.2667V10.983H39.6667ZM52.3159 13.697L52.023 13.6319L51.9419 13.997H52.3159V13.697ZM52.4539 13.697V13.997H52.6881L52.7449 13.7698L52.4539 13.697ZM53.6959 11.673L53.8833 11.9073L53.884 11.9067L53.6959 11.673ZM58.4799 11.834L58.2399 12.014L58.2421 12.0169L58.4799 11.834ZM59.1239 16.894L58.8239 16.8879L58.8239 16.891L59.1239 16.894ZM59.2389 20.712L58.9665 20.8377L58.9704 20.8461L58.9747 20.8542L59.2389 20.712ZM60.2279 21.011L60.5276 20.9977L60.5148 20.711H60.2279V21.011ZM60.2739 22.046L60.3921 22.3217L60.5828 22.24L60.5736 22.0327L60.2739 22.046ZM57.8129 21.678L57.5754 21.8615L57.5807 21.868L57.8129 21.678ZM57.4679 17.584L57.1679 17.5783L57.4679 17.584ZM57.1689 12.984L56.8957 13.1081L56.8972 13.1113L57.1689 12.984ZM54.0869 12.869L53.8822 12.6497L53.8785 12.6532L54.0869 12.869ZM53.0749 14.548L52.7902 14.4531L52.7884 14.4591L53.0749 14.548ZM52.4539 22V22.3H52.7539V22H52.4539ZM50.8669 22H50.5669V22.3H50.8669V22ZM50.8669 11.19L50.8291 10.8924L50.5669 10.9256V11.19H50.8669ZM52.4999 10.983H52.7999V10.6426L52.4621 10.6854L52.4999 10.983ZM52.1999 11.65C52.1999 12.4494 52.1394 13.1083 52.023 13.6319L52.6087 13.7621C52.7377 13.1817 52.7999 12.4759 52.7999 11.65H52.1999ZM52.3159 13.997H52.4539V13.397H52.3159V13.997ZM52.7449 13.7698C52.9458 12.9663 53.3277 12.3517 53.8833 11.9073L53.5085 11.4387C52.8374 11.9756 52.3913 12.7103 52.1628 13.6242L52.7449 13.7698ZM53.884 11.9067C54.4538 11.448 55.1445 11.214 55.9729 11.214V10.614C55.0225 10.614 54.1953 10.886 53.5078 11.4393L53.884 11.9067ZM55.9729 11.214C57.1453 11.214 57.8631 11.5117 58.2399 12.014L58.7199 11.654C58.1766 10.9296 57.2231 10.614 55.9729 10.614V11.214ZM58.2421 12.0169C58.6438 12.5391 58.8699 13.3657 58.8699 14.548H59.4699C59.4699 13.3077 59.2359 12.3249 58.7177 11.6511L58.2421 12.0169ZM58.8699 14.548C58.8699 14.5478 58.8699 14.5487 58.8698 14.5513C58.8698 14.5537 58.8698 14.557 58.8697 14.5611C58.8696 14.5693 58.8694 14.5805 58.8692 14.5948C58.8687 14.6232 58.868 14.6633 58.8671 14.7149C58.8651 14.8183 58.8623 14.9677 58.8584 15.1631C58.8508 15.554 58.8393 16.129 58.8239 16.8879L59.4238 16.9001C59.4544 15.3856 59.4699 14.598 59.4699 14.548H58.8699ZM58.8239 16.891C58.8086 18.4085 58.8009 19.3762 58.8009 19.792H59.4009C59.4009 19.3798 59.4085 18.4155 59.4239 16.897L58.8239 16.891ZM58.8009 19.792C58.8009 20.2176 58.8465 20.5778 58.9665 20.8377L59.5113 20.5863C59.4472 20.4475 59.4009 20.1944 59.4009 19.792H58.8009ZM58.9747 20.8542C59.0817 21.0528 59.2779 21.1624 59.4798 21.2234C59.6845 21.2853 59.9379 21.311 60.2279 21.311V20.711C59.9658 20.711 59.7784 20.6869 59.6534 20.6491C59.5257 20.6105 59.5034 20.5705 59.503 20.5698L58.9747 20.8542ZM59.9282 21.0243L59.9742 22.0593L60.5736 22.0327L60.5276 20.9977L59.9282 21.0243ZM60.1557 21.7703C59.9968 21.8383 59.7308 21.884 59.3309 21.884V22.484C59.7589 22.484 60.1216 22.4377 60.3921 22.3217L60.1557 21.7703ZM59.3309 21.884C58.6247 21.884 58.2346 21.7197 58.0451 21.488L57.5807 21.868C57.9431 22.311 58.565 22.484 59.3309 22.484V21.884ZM58.0503 21.4946C57.8505 21.236 57.7219 20.781 57.7219 20.068H57.1219C57.1219 20.827 57.2539 21.4453 57.5755 21.8614L58.0503 21.4946ZM57.7219 20.068C57.7219 20.0688 57.7219 20.0664 57.722 20.0573C57.7221 20.0495 57.7223 20.0384 57.7226 20.0241C57.723 19.9956 57.7237 19.9545 57.7247 19.9009C57.7266 19.7936 57.7295 19.6365 57.7333 19.4296C57.741 19.0156 57.7525 18.4023 57.7678 17.5897L57.1679 17.5783C57.1373 19.2002 57.1219 20.0336 57.1219 20.068H57.7219ZM57.7678 17.5897C57.7984 15.9676 57.8139 15.1191 57.8139 15.054H57.2139C57.2139 15.1116 57.1987 15.9498 57.1679 17.5783L57.7678 17.5897ZM57.8139 15.054C57.8139 14.1455 57.6974 13.4048 57.4405 12.8567L56.8972 13.1113C57.1003 13.5445 57.2139 14.1839 57.2139 15.054H57.8139ZM57.442 12.8599C57.3019 12.5517 57.0861 12.3115 56.796 12.1519C56.5099 11.9946 56.1691 11.925 55.7889 11.925V12.525C56.0987 12.525 56.3329 12.5819 56.5068 12.6776C56.6767 12.771 56.8059 12.9103 56.8958 13.1081L57.442 12.8599ZM55.7889 11.925C55.0442 11.925 54.402 12.1645 53.8822 12.6497L54.2916 13.0883C54.6918 12.7148 55.1842 12.525 55.7889 12.525V11.925ZM53.8785 12.6532C53.3934 13.1216 53.0329 13.7254 52.7903 14.4531L53.3595 14.6429C53.5769 13.9906 53.891 13.4751 54.2953 13.0848L53.8785 12.6532ZM52.7884 14.4591C52.3648 15.824 52.1539 17.2725 52.1539 18.803H52.7539C52.7539 17.3282 52.957 15.94 53.3614 14.6369L52.7884 14.4591ZM52.1539 18.803V22H52.7539V18.803H52.1539ZM52.4539 21.7H50.8669V22.3H52.4539V21.7ZM51.1669 22V11.19H50.5669V22H51.1669ZM50.9046 11.4876L52.5376 11.2806L52.4621 10.6854L50.8291 10.8924L50.9046 11.4876ZM52.1999 10.983V11.65H52.7999V10.983H52.1999ZM63.8601 21.678L63.6279 21.868L63.8601 21.678ZM63.4461 11.19V10.89H63.1461V11.19H63.4461ZM65.1021 11.19H65.4021V10.89H65.1021V11.19ZM65.2861 20.666L65.0177 20.8002L65.0214 20.8072L65.2861 20.666ZM66.3441 21.011L66.6438 20.9974L66.6308 20.711H66.3441V21.011ZM66.3901 22.023L66.4774 22.31L66.7004 22.2422L66.6898 22.0094L66.3901 22.023ZM65.3321 21.884C64.6617 21.884 64.2838 21.7221 64.0923 21.488L63.6279 21.868C63.9884 22.3086 64.5918 22.484 65.3321 22.484V21.884ZM64.0923 21.488C63.8828 21.232 63.7461 20.7666 63.7461 20.022H63.1461C63.1461 20.8107 63.2854 21.4493 63.6279 21.868L64.0923 21.488ZM63.7461 20.022V11.19H63.1461V20.022H63.7461ZM63.4461 11.49H65.1021V10.89H63.4461V11.49ZM64.8021 11.19V19.079H65.4021V11.19H64.8021ZM64.8021 19.079C64.8021 19.4916 64.8176 19.8395 64.8501 20.1198C64.8817 20.3927 64.9322 20.6291 65.0177 20.8002L65.5544 20.5318C65.5173 20.4575 65.4758 20.3068 65.4461 20.0507C65.4172 19.802 65.4021 19.4791 65.4021 19.079H64.8021ZM65.0214 20.8072C65.1322 21.0149 65.3308 21.1386 65.5496 21.21C65.768 21.2812 66.037 21.311 66.3441 21.311V20.711C66.0685 20.711 65.8698 20.6833 65.7356 20.6395C65.6017 20.5959 65.5627 20.5471 65.5508 20.5248L65.0214 20.8072ZM66.0444 21.0246L66.0904 22.0366L66.6898 22.0094L66.6438 20.9974L66.0444 21.0246ZM66.3027 21.736C65.9771 21.8351 65.6538 21.884 65.3321 21.884V22.484C65.7157 22.484 66.0977 22.4256 66.4774 22.31L66.3027 21.736ZM63.5851 7.579C63.5851 7.26331 63.6623 7.08195 63.764 6.97809C63.8645 6.87542 64.0383 6.798 64.3431 6.798V6.198C63.9425 6.198 63.5874 6.30074 63.3352 6.55841C63.0842 6.81488 62.9851 7.17402 62.9851 7.579H63.5851ZM64.3431 6.798C64.6115 6.798 64.7597 6.87022 64.846 6.96478C64.9371 7.06451 65.0091 7.24316 65.0091 7.556H65.6091C65.6091 7.16351 65.5201 6.81316 65.2891 6.56022C65.0535 6.30211 64.7187 6.198 64.3431 6.198V6.798ZM65.0091 7.556C65.0091 7.85643 64.9356 8.02633 64.8416 8.12251C64.7487 8.21745 64.5864 8.291 64.2971 8.291V8.891C64.6824 8.891 65.0261 8.79205 65.2706 8.54199C65.5139 8.29317 65.6091 7.94557 65.6091 7.556H65.0091ZM64.2971 8.291C64.006 8.291 63.8428 8.21843 63.7502 8.12587C63.6576 8.0333 63.5851 7.87009 63.5851 7.579H62.9851C62.9851 7.96258 63.0812 8.30536 63.3259 8.55013C63.5707 8.7949 63.9135 8.891 64.2971 8.891V8.291ZM70.9135 13.697L70.6207 13.6319L70.5395 13.997H70.9135V13.697ZM71.0515 13.697V13.997H71.2858L71.3426 13.7698L71.0515 13.697ZM72.2935 11.673L72.4809 11.9073L72.4816 11.9067L72.2935 11.673ZM77.0775 11.834L76.8375 12.014L76.8397 12.0169L77.0775 11.834ZM77.7215 16.894L77.4216 16.8879L77.4215 16.891L77.7215 16.894ZM77.8365 20.712L77.5641 20.8377L77.568 20.8461L77.5724 20.8542L77.8365 20.712ZM78.8255 21.011L79.1252 20.9977L79.1125 20.711H78.8255V21.011ZM78.8715 22.046L78.9897 22.3217L79.1805 22.24L79.1712 22.0327L78.8715 22.046ZM76.4105 21.678L76.1731 21.8615L76.1783 21.868L76.4105 21.678ZM76.0655 17.584L75.7656 17.5783L76.0655 17.584ZM75.7665 12.984L75.4934 13.1081L75.4949 13.1113L75.7665 12.984ZM72.6845 12.869L72.4798 12.6497L72.4762 12.6532L72.6845 12.869ZM71.6725 14.548L71.3879 14.4531L71.386 14.4591L71.6725 14.548ZM71.0515 22V22.3H71.3515V22H71.0515ZM69.4645 22H69.1645V22.3H69.4645V22ZM69.4645 11.19L69.4268 10.8924L69.1645 10.9256V11.19H69.4645ZM71.0975 10.983H71.3975V10.6426L71.0598 10.6854L71.0975 10.983ZM70.7975 11.65C70.7975 12.4494 70.737 13.1083 70.6207 13.6319L71.2064 13.7621C71.3354 13.1817 71.3975 12.4759 71.3975 11.65H70.7975ZM70.9135 13.997H71.0515V13.397H70.9135V13.997ZM71.3426 13.7698C71.5434 12.9663 71.9253 12.3517 72.4809 11.9073L72.1061 11.4387C71.4351 11.9756 70.989 12.7103 70.7605 13.6242L71.3426 13.7698ZM72.4816 11.9067C73.0515 11.448 73.7422 11.214 74.5705 11.214V10.614C73.6202 10.614 72.7929 10.886 72.1054 11.4393L72.4816 11.9067ZM74.5705 11.214C75.743 11.214 76.4608 11.5117 76.8375 12.014L77.3175 11.654C76.7743 10.9296 75.8207 10.614 74.5705 10.614V11.214ZM76.8397 12.0169C77.2415 12.5391 77.4675 13.3657 77.4675 14.548H78.0675C78.0675 13.3077 77.8336 12.3249 77.3153 11.6511L76.8397 12.0169ZM77.4675 14.548C77.4675 14.5478 77.4675 14.5487 77.4675 14.5513C77.4675 14.5537 77.4674 14.557 77.4674 14.5611C77.4673 14.5693 77.4671 14.5805 77.4669 14.5948C77.4664 14.6232 77.4657 14.6633 77.4647 14.7149C77.4628 14.8183 77.4599 14.9677 77.4561 15.1631C77.4484 15.554 77.4369 16.129 77.4216 16.8879L78.0215 16.9001C78.0521 15.3856 78.0675 14.598 78.0675 14.548H77.4675ZM77.4215 16.891C77.4062 18.4085 77.3985 19.3762 77.3985 19.792H77.9985C77.9985 19.3798 78.0062 18.4155 78.0215 16.897L77.4215 16.891ZM77.3985 19.792C77.3985 20.2176 77.4442 20.5778 77.5641 20.8377L78.1089 20.5863C78.0449 20.4475 77.9985 20.1944 77.9985 19.792H77.3985ZM77.5724 20.8542C77.6793 21.0528 77.8756 21.1624 78.0775 21.2234C78.2822 21.2853 78.5356 21.311 78.8255 21.311V20.711C78.5635 20.711 78.3761 20.6869 78.2511 20.6491C78.1233 20.6105 78.1011 20.5705 78.1007 20.5698L77.5724 20.8542ZM78.5258 21.0243L78.5718 22.0593L79.1712 22.0327L79.1252 20.9977L78.5258 21.0243ZM78.7534 21.7703C78.5945 21.8383 78.3285 21.884 77.9285 21.884V22.484C78.3566 22.484 78.7192 22.4377 78.9897 22.3217L78.7534 21.7703ZM77.9285 21.884C77.2224 21.884 76.8323 21.7197 76.6427 21.488L76.1783 21.868C76.5408 22.311 77.1627 22.484 77.9285 22.484V21.884ZM76.6479 21.4946C76.4481 21.236 76.3195 20.781 76.3195 20.068H75.7195C75.7195 20.827 75.8516 21.4453 76.1731 21.8614L76.6479 21.4946ZM76.3195 20.068C76.3195 20.0688 76.3195 20.0664 76.3197 20.0573C76.3198 20.0495 76.32 20.0384 76.3202 20.0241C76.3207 19.9956 76.3214 19.9545 76.3224 19.9009C76.3243 19.7936 76.3271 19.6365 76.331 19.4296C76.3386 19.0156 76.3501 18.4023 76.3655 17.5897L75.7656 17.5783C75.735 19.2002 75.7195 20.0336 75.7195 20.068H76.3195ZM76.3655 17.5897C76.3961 15.9676 76.4115 15.1191 76.4115 15.054H75.8115C75.8115 15.1116 75.7963 15.9498 75.7656 17.5783L76.3655 17.5897ZM76.4115 15.054C76.4115 14.1455 76.2951 13.4048 76.0382 12.8567L75.4949 13.1113C75.698 13.5445 75.8115 14.1839 75.8115 15.054H76.4115ZM76.0396 12.8599C75.8996 12.5517 75.6837 12.3115 75.3936 12.1519C75.1076 11.9946 74.7667 11.925 74.3865 11.925V12.525C74.6964 12.525 74.9305 12.5819 75.1045 12.6776C75.2743 12.771 75.4035 12.9103 75.4934 13.1081L76.0396 12.8599ZM74.3865 11.925C73.6419 11.925 72.9996 12.1645 72.4798 12.6497L72.8892 13.0883C73.2894 12.7148 73.7818 12.525 74.3865 12.525V11.925ZM72.4762 12.6532C71.991 13.1216 71.6305 13.7254 71.3879 14.4531L71.9571 14.6429C72.1745 13.9906 72.4887 13.4751 72.8929 13.0848L72.4762 12.6532ZM71.386 14.4591C70.9624 15.824 70.7515 17.2725 70.7515 18.803H71.3515C71.3515 17.3282 71.5546 15.94 71.959 14.6369L71.386 14.4591ZM70.7515 18.803V22H71.3515V18.803H70.7515ZM71.0515 21.7H69.4645V22.3H71.0515V21.7ZM69.7645 22V11.19H69.1645V22H69.7645ZM69.5023 11.4876L71.1353 11.2806L71.0598 10.6854L69.4268 10.8924L69.5023 11.4876ZM70.7975 10.983V11.65H71.3975V10.983H70.7975Z" fill="white"/>
<path d="M66 7.49997C66.021 8.31736 65.2636 8.99842 64.4249 9.01996C63.5862 9.0415 62.8513 8.33831 62.8303 7.52092C62.8093 6.70354 63.6048 6.08049 64.4435 6.05896C65.2821 6.03742 65.979 6.68258 66 7.49997Z" fill="#BB23FD"/>
</svg>
