<svg width="187" height="166" viewBox="0 0 187 166" fill="none" xmlns="http://www.w3.org/2000/svg">
<g clip-path="url(#clip0_17_122)">
<path d="M130.757 126.667C115.522 139.729 95.9292 152.763 70.8289 165.168C70.2718 165.448 69.7084 165.722 69.1402 166L7 160.245C7.35748 159.982 7.74899 159.688 8.16952 159.366C33.2333 140.393 184.449 24.7923 177.662 2C178.392 3.86567 202.048 65.6074 130.757 126.667Z" fill="url(#paint0_linear_17_122)"/>
<path d="M131.912 160.223C131.656 160.485 131.394 160.745 131.129 161L117 156.519C117.191 156.288 117.413 156.015 117.669 155.706C121.854 150.584 134.295 135.247 146.443 119.109C159.498 101.768 172.217 83.5044 174 76C173.642 77.7065 162.493 129.654 131.912 160.223Z" fill="#E6E6E6"/>
<path d="M155.605 29.1128C155.601 29.1128 155.598 29.1138 155.594 29.114V8.43959C155.594 6.20127 154.704 4.05463 153.119 2.4719C151.535 0.889169 149.386 0 147.146 0H82.3538C80.1132 0 77.9644 0.889169 76.3801 2.4719C74.7957 4.05463 73.9056 6.20127 73.9056 8.43959V19.0384C73.7268 19.0422 73.5565 19.1158 73.4313 19.2435C73.3061 19.3711 73.2359 19.5427 73.2357 19.7214V24.9711C73.2359 25.1498 73.3061 25.3214 73.4313 25.4491C73.5565 25.5767 73.7268 25.6503 73.9056 25.6541V31.1536H73.8713C73.7813 31.1536 73.6922 31.1713 73.6091 31.2057C73.5259 31.2401 73.4504 31.2906 73.3867 31.3541C73.3231 31.4177 73.2726 31.4932 73.2382 31.5762C73.2038 31.6593 73.186 31.7483 73.186 31.8382V41.9898C73.186 42.0797 73.2038 42.1687 73.2382 42.2518C73.2726 42.3348 73.3231 42.4103 73.3867 42.4739C73.4504 42.5374 73.5259 42.5879 73.6091 42.6223C73.6922 42.6567 73.7813 42.6744 73.8713 42.6744H73.9056V46.7062H73.895C73.805 46.7062 73.7159 46.7239 73.6327 46.7583C73.5496 46.7927 73.474 46.8432 73.4104 46.9067C73.3468 46.9703 73.2963 47.0458 73.2619 47.1288C73.2274 47.2119 73.2097 47.3009 73.2097 47.3908V57.6417C73.2097 57.7316 73.2274 57.8206 73.2619 57.9037C73.2963 57.9867 73.3468 58.0622 73.4104 58.1258C73.474 58.1893 73.5496 58.2398 73.6327 58.2742C73.7159 58.3086 73.805 58.3263 73.895 58.3263H73.9056V157.413C73.9056 159.652 74.7957 161.798 76.3801 163.381C77.9644 164.964 80.1132 165.853 82.3538 165.853H147.146C149.386 165.853 151.535 164.964 153.119 163.381C154.704 161.798 155.594 159.652 155.594 157.413V49.2164C155.598 49.2164 155.601 49.2175 155.605 49.2175C155.765 49.2175 155.923 49.186 156.071 49.1247C156.22 49.0634 156.354 48.9737 156.467 48.8605C156.581 48.7473 156.671 48.6129 156.732 48.465C156.793 48.3171 156.825 48.1586 156.825 47.9985V30.3319C156.825 30.0086 156.696 29.6985 156.467 29.4699C156.239 29.2413 155.928 29.1128 155.605 29.1128Z" fill="#3F3D56"/>
<path d="M150.974 10.5304V154.777C150.973 156.496 150.289 158.144 149.073 159.359C147.856 160.574 146.206 161.256 144.486 161.256H85.8623C84.1419 161.256 82.492 160.574 81.2753 159.359C80.0586 158.144 79.3747 156.496 79.3741 154.777V10.5304C79.3741 8.81139 80.0577 7.16275 81.2745 5.94721C82.4912 4.73167 84.1415 4.04878 85.8623 4.04878H94.6347V5.1862C94.6354 6.6015 95.1984 7.95866 96.2002 8.95943C97.202 9.9602 98.5605 10.5227 99.9772 10.5233H129.803C131.217 10.5202 132.573 9.95651 133.573 8.95594C134.572 7.95538 135.133 6.59965 135.133 5.1862V4.0606H144.486C146.204 4.0606 147.853 4.74186 149.069 5.95485C150.286 7.16784 150.971 8.81343 150.974 10.5304Z" fill="white"/>
<path d="M55.4872 80.9393C55.1405 80.8052 54.7686 80.7487 54.3977 80.7737C54.0268 80.7987 53.6659 80.9046 53.3404 81.0841C53.0149 81.2635 52.7328 81.512 52.5138 81.8122C52.2949 82.1123 52.1445 82.4568 52.0732 82.8213L31.1827 94.1689L34.8557 98.2987L54.2564 85.8606C54.8773 85.9396 55.5056 85.7884 56.0223 85.4355C56.539 85.0827 56.9082 84.5527 57.0599 83.9461C57.2116 83.3395 57.1353 82.6983 56.8454 82.1442C56.5556 81.59 56.0723 81.1613 55.4872 80.9393H55.4872Z" fill="#95654A"/>
<path d="M50.1593 162.585L52.7624 160.903L47.5068 150.072L43.6647 152.555L50.1593 162.585Z" fill="#95654A"/>
<path d="M59.3462 160.074L51.165 165.36L49.1204 162.203L54.2589 158.882C55.0659 158.361 56.0472 158.181 56.9869 158.382C57.9266 158.583 58.7478 159.15 59.2698 159.956L59.3462 160.074L59.3462 160.074Z" fill="#2F2E41"/>
<path d="M20.9514 162.976H24.0515L25.5269 151.03H20.9514V162.976Z" fill="#95654A"/>
<path d="M30.0306 165.852H20.287V162.091H26.4068C26.8827 162.091 27.3539 162.185 27.7936 162.367C28.2333 162.549 28.6327 162.816 28.9692 163.152C29.3058 163.488 29.5727 163.887 29.7548 164.326C29.9369 164.765 30.0306 165.236 30.0306 165.712V165.852Z" fill="#2F2E41"/>
<path d="M92.0798 23.4087H85.6886C85.5317 23.4087 85.3811 23.3464 85.2702 23.2355C85.1592 23.1246 85.0968 22.9743 85.0968 22.8175C85.0968 22.6607 85.1592 22.5103 85.2702 22.3995C85.3811 22.2886 85.5317 22.2263 85.6886 22.2263H92.0798C92.2367 22.2263 92.3872 22.2886 92.4982 22.3995C92.6092 22.5103 92.6715 22.6607 92.6715 22.8175C92.6715 22.9743 92.6092 23.1246 92.4982 23.2355C92.3872 23.3464 92.2367 23.4087 92.0798 23.4087Z" fill="#3F3D56"/>
<path d="M92.0798 25.064H85.6886C85.5317 25.064 85.3811 25.0017 85.2702 24.8908C85.1592 24.7799 85.0968 24.6296 85.0968 24.4728C85.0968 24.316 85.1592 24.1656 85.2702 24.0547C85.3811 23.9439 85.5317 23.8816 85.6886 23.8816H92.0798C92.2367 23.8816 92.3872 23.9439 92.4982 24.0547C92.6092 24.1656 92.6715 24.316 92.6715 24.4728C92.6715 24.6296 92.6092 24.7799 92.4982 24.8908C92.3872 25.0017 92.2367 25.064 92.0798 25.064Z" fill="#3F3D56"/>
<path d="M92.0798 26.7192H85.6886C85.5317 26.7192 85.3811 26.657 85.2702 26.5461C85.1592 26.4352 85.0968 26.2849 85.0968 26.1281C85.0968 25.9713 85.1592 25.8209 85.2702 25.71C85.3811 25.5992 85.5317 25.5369 85.6886 25.5369H92.0798C92.2367 25.5369 92.3872 25.5992 92.4982 25.71C92.6092 25.8209 92.6715 25.9713 92.6715 26.1281C92.6715 26.2849 92.6092 26.4352 92.4982 26.5461C92.3872 26.657 92.2367 26.7192 92.0798 26.7192Z" fill="#3F3D56"/>
<path d="M141.621 25.0758H141.406L141.323 25.0072C141.595 24.6832 141.744 24.2738 141.744 23.8509C141.742 23.5029 141.637 23.1633 141.442 22.875C141.247 22.5868 140.971 22.3627 140.648 22.2313C140.326 22.0999 139.971 22.067 139.63 22.1367C139.289 22.2064 138.976 22.3756 138.731 22.623C138.486 22.8704 138.32 23.1847 138.254 23.5264C138.188 23.868 138.224 24.2216 138.359 24.5423C138.495 24.8631 138.722 25.1366 139.012 25.3284C139.303 25.5202 139.644 25.6215 139.992 25.6197C140.414 25.6167 140.823 25.468 141.148 25.1987L141.228 25.2673V25.4849L142.587 26.8446L142.994 26.4378L141.621 25.0758ZM139.992 25.0758C139.75 25.0767 139.513 25.0058 139.31 24.872C139.108 24.7382 138.95 24.5475 138.857 24.324C138.763 24.1005 138.738 23.8543 138.784 23.6165C138.831 23.3788 138.946 23.16 139.117 22.9881C139.288 22.8161 139.506 22.6986 139.744 22.6504C139.981 22.6022 140.228 22.6255 140.452 22.7174C140.677 22.8092 140.869 22.9655 141.004 23.1664C141.14 23.3673 141.213 23.6039 141.214 23.8461L141.214 23.8509C141.215 24.0108 141.184 24.1693 141.124 24.3174C141.063 24.4655 140.974 24.6003 140.862 24.714C140.749 24.8278 140.615 24.9183 140.468 24.9803C140.32 25.0424 140.162 25.0748 140.002 25.0758C139.999 25.0758 139.996 25.0758 139.992 25.0758H139.992Z" fill="#3F3D56"/>
<path d="M105.1 45.1639H93.6184C92.9278 45.1639 92.2655 44.8899 91.7772 44.402C91.2889 43.9142 91.0146 43.2526 91.0146 42.5627C91.0146 41.8729 91.2889 41.2112 91.7772 40.7234C92.2655 40.2356 92.9278 39.9616 93.6184 39.9616H105.1C105.791 39.9616 106.453 40.2356 106.941 40.7234C107.429 41.2112 107.704 41.8729 107.704 42.5627C107.704 43.2526 107.429 43.9142 106.941 44.402C106.453 44.8899 105.791 45.1639 105.1 45.1639Z" fill="#D236FE"/>
<path d="M140.25 50.8392H92.4348C92.0581 50.8392 91.6969 50.6897 91.4305 50.4236C91.1642 50.1575 91.0146 49.7966 91.0146 49.4204C91.0146 49.0441 91.1642 48.6832 91.4305 48.4171C91.6969 48.151 92.0581 48.0015 92.4348 48.0015H140.25C140.627 48.0015 140.988 48.151 141.254 48.4171C141.521 48.6832 141.67 49.0441 141.67 49.4204C141.67 49.7966 141.521 50.1575 141.254 50.4236C140.988 50.6897 140.627 50.8392 140.25 50.8392Z" fill="#E6E6E6"/>
<path d="M109.999 56.5145H92.4348C92.0581 56.5145 91.6969 56.365 91.4305 56.0989C91.1642 55.8328 91.0146 55.4719 91.0146 55.0956C91.0146 54.7193 91.1642 54.3585 91.4305 54.0924C91.6969 53.8263 92.0581 53.6768 92.4348 53.6768H109.999C110.375 53.6768 110.737 53.8263 111.003 54.0924C111.269 54.3585 111.419 54.7193 111.419 55.0956C111.419 55.4719 111.269 55.8328 111.003 56.0989C110.737 56.365 110.375 56.5145 109.999 56.5145Z" fill="#E6E6E6"/>
<path d="M105.1 108.065H93.6184C92.9278 108.065 92.2655 107.791 91.7772 107.303C91.2889 106.815 91.0146 106.154 91.0146 105.464C91.0146 104.774 91.2889 104.112 91.7772 103.624C92.2655 103.137 92.9278 102.863 93.6184 102.863H105.1C105.791 102.863 106.453 103.137 106.941 103.624C107.429 104.112 107.704 104.774 107.704 105.464C107.704 106.154 107.429 106.815 106.941 107.303C106.453 107.791 105.791 108.065 105.1 108.065Z" fill="#D236FE"/>
<path d="M140.25 113.74H92.4348C92.0581 113.74 91.6969 113.591 91.4305 113.325C91.1642 113.059 91.0146 112.698 91.0146 112.321C91.0146 111.945 91.1642 111.584 91.4305 111.318C91.6969 111.052 92.0581 110.903 92.4348 110.903H140.25C140.627 110.903 140.988 111.052 141.254 111.318C141.521 111.584 141.67 111.945 141.67 112.321C141.67 112.698 141.521 113.059 141.254 113.325C140.988 113.591 140.627 113.74 140.25 113.74Z" fill="#E6E6E6"/>
<path d="M109.999 119.415H92.4348C92.0581 119.415 91.6969 119.266 91.4305 119C91.1642 118.734 91.0146 118.373 91.0146 117.997C91.0146 117.62 91.1642 117.259 91.4305 116.993C91.6969 116.727 92.0581 116.578 92.4348 116.578H109.999C110.375 116.578 110.737 116.727 111.003 116.993C111.269 117.259 111.419 117.62 111.419 117.997C111.419 118.373 111.269 118.734 111.003 119C110.737 119.266 110.375 119.415 109.999 119.415Z" fill="#E6E6E6"/>
<path d="M105.1 137.151H93.6184C92.9278 137.151 92.2655 136.877 91.7772 136.389C91.2889 135.901 91.0146 135.239 91.0146 134.55C91.0146 133.86 91.2889 133.198 91.7772 132.71C92.2655 132.222 92.9278 131.948 93.6184 131.948H105.1C105.791 131.948 106.453 132.222 106.941 132.71C107.429 133.198 107.704 133.86 107.704 134.55C107.704 135.239 107.429 135.901 106.941 136.389C106.453 136.877 105.791 137.151 105.1 137.151Z" fill="#D236FE"/>
<path d="M140.25 142.826H92.4348C92.0581 142.826 91.6969 142.676 91.4305 142.41C91.1642 142.144 91.0146 141.783 91.0146 141.407C91.0146 141.031 91.1642 140.67 91.4305 140.404C91.6969 140.138 92.0581 139.988 92.4348 139.988H140.25C140.627 139.988 140.988 140.138 141.254 140.404C141.521 140.67 141.67 141.031 141.67 141.407C141.67 141.783 141.521 142.144 141.254 142.41C140.988 142.676 140.627 142.826 140.25 142.826Z" fill="#E6E6E6"/>
<path d="M109.999 148.501H92.4348C92.0581 148.501 91.6969 148.352 91.4305 148.086C91.1642 147.82 91.0146 147.459 91.0146 147.082C91.0146 146.706 91.1642 146.345 91.4305 146.079C91.6969 145.813 92.0581 145.664 92.4348 145.664H109.999C110.375 145.664 110.737 145.813 111.003 146.079C111.269 146.345 111.419 146.706 111.419 147.082C111.419 147.459 111.269 147.82 111.003 148.086C110.737 148.352 110.375 148.501 109.999 148.501Z" fill="#E6E6E6"/>
<path d="M146.996 93.2855H55.6266C55.0932 93.2849 54.5817 93.0729 54.2046 92.6961C53.8274 92.3193 53.6152 91.8084 53.6146 91.2755V66.4462C53.6152 65.9133 53.8273 65.4024 54.2045 65.0256C54.5817 64.6487 55.0931 64.4368 55.6266 64.4362H146.996C147.53 64.4368 148.041 64.6488 148.418 65.0256C148.795 65.4024 149.008 65.9133 149.008 66.4462V91.2755C149.008 91.8084 148.795 92.3193 148.418 92.6961C148.041 93.0729 147.53 93.2849 146.996 93.2855Z" fill="#D236FE"/>
<path d="M22.7789 122.825C23.6523 128.948 19.027 156.071 19.5407 156.068L26.1827 156.033C26.4194 155.579 29.4682 140.944 30.4246 138.596C31.7596 135.337 33.1065 132.038 33.632 128.557C34.1267 125.289 33.8829 121.96 33.5609 118.671C33.5759 118.573 33.5674 118.473 33.536 118.379C33.5047 118.285 33.4514 118.2 33.3807 118.13C33.3099 118.061 33.2237 118.01 33.1291 117.98C33.0345 117.951 32.9342 117.944 32.8366 117.961L23.9245 117.502C22.0877 117.408 21.6521 117.006 21.9314 118.808C22.1255 120.153 22.5848 121.463 22.7789 122.825Z" fill="#2F2E41"/>
<path d="M24.5305 107.94C22.7197 110.541 20.8213 113.534 21.4225 116.649C21.8794 119.013 23.6831 120.846 25.385 122.56C32.188 129.385 45.6023 159.497 45.6023 159.497C52.0759 155.359 45.4481 159.615 52.0172 155.241C51.4348 155.196 38.2052 107.687 37.1092 107.623C32.6757 107.329 28.8505 106.897 24.5305 107.94Z" fill="#2F2E41"/>
<path d="M31.693 83.1814C30.7732 82.362 24.3095 79.835 24.3095 79.835C24.1906 79.8192 24.07 79.8228 23.9523 79.8457C23.5845 79.9384 23.4167 80.3951 23.4952 80.7643C23.5738 81.1336 22.9292 87.2021 22.7631 89.9616C22.4721 94.7779 25.3112 105.688 25.2862 106.021C25.1889 107.211 24.6675 108.326 23.8167 109.164C24.0378 109.439 38.0819 109.988 39.0372 110.313C39.23 110.069 37.9498 92.764 37.8908 91.7865C37.7926 90.3024 32.9072 84.3052 31.693 83.1814Z" fill="#E6E6E6"/>
<path d="M21.6761 120.73C22.0089 120.564 22.3013 120.328 22.5328 120.037C22.7643 119.747 22.9292 119.409 23.0159 119.048C23.1026 118.687 23.109 118.311 23.0346 117.947C22.9602 117.583 22.8069 117.24 22.5854 116.942L28.5109 84.1814L22.9814 84.1086L18.8665 116.505C18.3896 116.91 18.0779 117.475 17.9906 118.094C17.9033 118.713 18.0463 119.343 18.3926 119.864C18.739 120.385 19.2645 120.761 19.8696 120.92C20.4748 121.08 21.1176 121.012 21.6761 120.73H21.6761Z" fill="#95654A"/>
<path d="M21.6285 86.6124C21.3979 86.6291 21.1682 86.5692 20.9752 86.4421C20.6462 86.1607 23.3304 81.8546 23.8607 81.7907C25.5863 81.5921 27.3616 81.5259 29.0351 81.9917C30.7086 82.4576 32.2828 83.517 33.0307 85.0848C33.3432 85.7374 31.0779 89.022 30.0482 88.5396C28.815 87.9626 23.2523 86.6526 21.6285 86.6124Z" fill="#E6E6E6"/>
<path d="M27.7191 79.482C31.1493 79.482 33.93 76.7041 33.93 73.2773C33.93 69.8506 31.1493 67.0726 27.7191 67.0726C24.2889 67.0726 21.5081 69.8506 21.5081 73.2773C21.5081 76.7041 24.2889 79.482 27.7191 79.482Z" fill="#95654A"/>
<path d="M21.6186 83.5362C22.4817 83.6264 23.3536 83.499 24.1547 83.1656C24.9557 82.8321 25.6603 82.3034 26.2039 81.6276C26.7476 80.9519 27.1129 80.1507 27.2665 79.2975C27.4201 78.4442 27.357 77.5661 27.0831 76.7435C26.836 76.0011 26.4228 75.3207 26.1965 74.5717C25.9701 73.8228 25.9639 72.9372 26.466 72.3368C27.4482 71.162 29.3415 71.9009 30.8558 71.6674C32.4694 71.4185 33.7073 69.872 33.8364 68.2461C33.9655 66.6202 33.1172 65.0112 31.8543 63.9774C30.5915 62.9437 28.9628 62.4346 27.3379 62.2751C25.2512 62.0703 23.1468 62.4057 21.2274 63.2489C19.308 64.0921 17.6383 65.4147 16.379 67.0895C15.1196 68.7643 14.3131 70.7348 14.0371 72.8112C13.7611 74.8876 14.0249 77.0001 14.8031 78.9452C15.4819 80.642 16.5908 82.2223 18.1657 83.1516C19.7407 84.0809 21.8208 84.2594 23.3905 83.3213" fill="#2F2E41"/>
<path d="M88.1212 75.7867H72.249C71.241 75.7867 70.4209 74.6199 70.4209 73.1856C70.4209 71.7513 71.241 70.5844 72.249 70.5844H88.1212C89.1293 70.5844 89.9493 71.7513 89.9493 73.1856C89.9493 74.6199 89.1293 75.7867 88.1212 75.7867Z" fill="white"/>
<path d="M130.782 81.462H71.8412C71.4645 81.462 71.1032 81.3125 70.8369 81.0465C70.5705 80.7804 70.4209 80.4195 70.4209 80.0432C70.4209 79.6669 70.5705 79.306 70.8369 79.0399C71.1032 78.7738 71.4645 78.6244 71.8412 78.6244H130.782C131.158 78.6244 131.52 78.7738 131.786 79.0399C132.052 79.306 132.202 79.6669 132.202 80.0432C132.202 80.4195 132.052 80.7804 131.786 81.0465C131.52 81.3125 131.158 81.462 130.782 81.462Z" fill="#E6E6E6"/>
<path d="M100.53 87.1373H71.8412C71.4645 87.1373 71.1032 86.9878 70.8369 86.7217C70.5705 86.4556 70.4209 86.0948 70.4209 85.7185C70.4209 85.3422 70.5705 84.9813 70.8369 84.7152C71.1032 84.4491 71.4645 84.2996 71.8412 84.2996H100.53C100.907 84.2996 101.268 84.4491 101.535 84.7152C101.801 84.9813 101.951 85.3422 101.951 85.7185C101.951 86.0948 101.801 86.4556 101.535 86.7217C101.268 86.9878 100.907 87.1373 100.53 87.1373Z" fill="#E6E6E6"/>
</g>
<defs>
<linearGradient id="paint0_linear_17_122" x1="186.5" y1="2" x2="66" y2="179.5" gradientUnits="userSpaceOnUse">
<stop stop-color="#E6E6E6"/>
<stop offset="1" stop-color="#E6E6E6" stop-opacity="0"/>
</linearGradient>
<clipPath id="clip0_17_122">
<rect width="187" height="166" fill="white"/>
</clipPath>
</defs>
</svg>
