<svg width="147" height="166" viewBox="0 0 147 166" fill="none" xmlns="http://www.w3.org/2000/svg">
<g clip-path="url(#clip0_18_209)">
<path d="M65.5446 44.7772C66.0153 45.0157 66.374 45.4278 66.5445 45.9259C66.7149 46.4239 66.6835 46.9685 66.457 47.4439C66.4095 47.5398 66.354 47.6316 66.2913 47.7184L70.305 53.5206L68.0667 56.5858L63.4309 48.0451C63.0899 47.7579 62.8539 47.3664 62.7597 46.9315C62.6655 46.4966 62.7184 46.0429 62.9103 45.6412C63.0216 45.4137 63.1769 45.2102 63.3671 45.0424C63.5574 44.8747 63.7789 44.7459 64.0192 44.6634C64.2594 44.581 64.5136 44.5465 64.7672 44.5619C65.0208 44.5773 65.2688 44.6424 65.4972 44.7533C65.5131 44.7611 65.5289 44.769 65.5446 44.7772Z" fill="#FFB6B6"/>
<path d="M89.3555 45.9467C89.7919 46.1953 90.1695 46.5345 90.4625 46.9414C90.7556 47.3483 90.9573 47.8133 91.0539 48.3049C91.1504 48.7964 91.1397 49.3028 91.0222 49.7898C90.9048 50.2768 90.6835 50.7329 90.3734 51.127L85.3912 57.4591L74.3601 65.5838C74.3601 65.5838 66.5911 58.8211 66.5289 56.7191C66.4666 54.6171 67.298 54.1719 66.4666 54.6171C65.6353 55.0623 64.8782 54.7286 65.1636 54.4936C65.449 54.2587 65.3484 54.2326 65.1753 53.8314C65.0022 53.4303 64.3939 51.5385 64.3939 51.5385L67.4234 49.0746C67.4234 49.0746 70.2511 50.7837 70.4373 51.5874C70.6236 52.3911 69.6059 52.0326 70.6236 52.3911C71.6412 52.7496 73.1461 51.7039 71.9407 52.8388C70.7354 53.9737 70.7735 54.52 71.7721 54.6053C72.7706 54.6907 74.3469 57.4602 74.3469 57.4602L85.1211 46.5308C85.663 45.9811 86.3724 45.6256 87.1384 45.52C87.9045 45.4143 88.6841 45.5644 89.3555 45.9467V45.9467Z" fill="#E6E6E6"/>
<path d="M90.4382 165.746H123.521C124.202 165.746 124.855 165.476 125.336 164.996C125.818 164.516 126.088 163.866 126.089 163.187V135.44C126.088 134.762 125.818 134.111 125.336 133.632C124.855 133.152 124.202 132.882 123.521 132.881H90.4382C89.7573 132.882 89.1045 133.152 88.6231 133.632C88.1416 134.111 87.8707 134.762 87.8699 135.44V163.187C87.8707 163.866 88.1416 164.516 88.6231 164.996C89.1045 165.476 89.7573 165.746 90.4382 165.746V165.746Z" fill="#F2F2F2"/>
<path d="M141.012 127.217L141.025 130.09L129.66 131.509L129.641 127.268L141.012 127.217Z" fill="#FFB6B6"/>
<path d="M139.673 126.473L139.407 131.273L141.471 131.264L144.654 135.812C144.811 136.037 145.036 136.205 145.296 136.293C145.557 136.382 145.838 136.384 146.1 136.302C146.362 136.219 146.591 136.055 146.753 135.834C146.915 135.612 147.001 135.345 147 135.071L146.974 129.358L144.928 128.383L146.968 127.989L146.958 125.835L139.673 126.473Z" fill="#2F2E41"/>
<path d="M46.0974 67.3269C53.0769 65.5959 59.0691 62.1932 63.7537 56.5761C64.1108 56.3581 64.3665 56.0079 64.4648 55.6022C64.5631 55.1966 64.4959 54.7687 64.2779 54.4123L56.1293 41.126C55.9105 40.7702 55.559 40.5153 55.1519 40.4174C54.7447 40.3195 54.3153 40.3865 53.9577 40.6037L36.3014 51.3545C35.9442 51.5725 35.6885 51.9227 35.5902 52.3284C35.4919 52.734 35.5592 53.162 35.7772 53.5183L43.9258 66.8046C44.1446 67.1605 44.4961 67.4153 44.9032 67.5132C45.3103 67.6111 45.7398 67.5441 46.0974 67.3269V67.3269Z" fill="#E6E6E6"/>
<path d="M50.8053 63.0606C54.4801 62.6609 58.2994 59.7344 62.1563 56.149C62.4908 55.9448 62.7303 55.6168 62.8224 55.2369C62.9144 54.857 62.8514 54.4563 62.6473 54.1225L55.6442 42.704C55.4393 42.3708 55.1101 42.1321 54.7288 42.0404C54.3475 41.9487 53.9453 42.0114 53.6104 42.2148L37.8987 51.7816C37.5643 51.9858 37.3247 52.3138 37.2327 52.6937C37.1407 53.0736 37.2037 53.4744 37.4078 53.8081L41.7461 60.8816C42.6588 62.366 44.1251 63.4291 45.8235 63.8376C47.5218 64.2461 49.3134 63.9666 50.8053 63.0606V63.0606Z" fill="white"/>
<path d="M47.5831 49.3406L53.0189 58.2591C53.0617 58.3294 53.118 58.3906 53.1846 58.4392C53.2511 58.4878 53.3266 58.5229 53.4068 58.5424C53.487 58.5619 53.5702 58.5655 53.6518 58.553C53.7333 58.5405 53.8116 58.512 53.8822 58.4694C53.9527 58.4267 54.0141 58.3706 54.0629 58.3042C54.1116 58.2379 54.1468 58.1626 54.1664 58.0828C54.186 58.0029 54.1896 57.9199 54.177 57.8387C54.1644 57.7574 54.1358 57.6794 54.093 57.6091L48.6572 48.6907C48.6144 48.6204 48.5581 48.5592 48.4915 48.5106C48.4249 48.4619 48.3494 48.4269 48.2693 48.4073C48.1891 48.3878 48.1059 48.3842 48.0243 48.3967C47.9427 48.4093 47.8644 48.4377 47.7939 48.4804C47.7234 48.5231 47.662 48.5792 47.6132 48.6455C47.5644 48.7118 47.5292 48.7871 47.5097 48.867C47.4901 48.9469 47.4865 49.0298 47.4991 49.1111C47.5117 49.1923 47.5402 49.2703 47.5831 49.3406V49.3406Z" fill="#D236FE"/>
<path d="M45.2221 50.7692L50.6579 59.6878C50.7445 59.8294 50.884 59.931 51.0458 59.9703C51.2075 60.0095 51.3783 59.9832 51.5206 59.8971C51.6629 59.811 51.7651 59.6721 51.8047 59.511C51.8443 59.3499 51.8182 59.1797 51.732 59.0378L46.2962 50.1193C46.2096 49.9777 46.0701 49.876 45.9083 49.8368C45.7466 49.7975 45.5758 49.8239 45.4335 49.91C45.2912 49.9961 45.189 50.1349 45.1494 50.296C45.1097 50.4571 45.1359 50.6273 45.2221 50.7692V50.7692Z" fill="#D236FE"/>
<path d="M81.9799 79.2803C81.9799 79.2803 83.1265 96.897 84.0742 99.6253C85.1029 102.578 84.9694 107.059 86.5139 111.35C86.9903 112.675 87.4773 114.018 87.9642 115.351C88.061 115.62 88.1605 115.888 88.2574 116.157C88.8935 117.891 89.5296 119.597 90.1369 121.209C90.2233 121.436 90.3097 121.66 90.3934 121.882C90.3961 121.887 90.3961 121.893 90.3987 121.895C92.4039 127.151 94.1211 131.285 94.807 131.969C95.54 132.699 100.493 133.001 106.613 133.085C117.956 133.236 133.312 132.639 133.312 132.639L133.288 126.491C133.288 126.491 133.152 126.452 132.898 126.376C132.43 126.241 131.558 125.988 130.419 125.651C125.663 124.253 116.236 121.439 111.919 119.884C110.699 119.446 109.888 119.107 109.705 118.927C108.631 117.884 108.158 118.927 107.477 119.97C106.796 121.014 106.587 119.97 105.697 119.203C104.807 118.437 102.802 119.49 102.802 119.49C102.802 119.49 102.783 118.796 102.755 117.691C102.713 116.058 102.65 113.517 102.587 110.974C102.59 110.972 102.59 110.971 102.587 110.971C102.563 110.014 102.54 109.057 102.519 108.149C102.501 107.445 102.485 106.769 102.469 106.143C102.427 104.268 102.399 102.849 102.399 102.494C102.399 101.336 102.399 102.236 101.48 101.537C101.342 101.43 101.212 101.314 101.09 101.19C100.893 101.015 100.713 100.823 100.55 100.616C100.482 100.47 100.904 100.669 101.451 100.559C101.747 100.499 102.022 100.359 102.244 100.155C103.399 99.1193 102.152 95.9423 102.152 95.9423C104.775 90.7152 104.587 86.4271 103.359 83.125C102.442 80.753 100.985 78.6254 99.1028 76.9094C98.3859 76.2302 97.6058 75.6205 96.7729 75.0887L96.6918 74.6584L95.8044 69.8773C93.8628 68.8021 91.6193 68.3959 89.4223 68.7218C87.7777 68.9605 86.1854 69.4746 84.7129 70.2425C83.5103 70.8448 82.3815 71.5835 81.3491 72.4439L81.9799 79.2803Z" fill="#2F2E41"/>
<path d="M106.099 159.095L103.228 159.361L100.808 148.205L105.047 147.813L106.099 159.095Z" fill="#FFB6B6"/>
<path d="M97.8279 163.467L102.095 159.906L101.904 157.859L102.896 157.825L105.972 157.726L106.726 157.7L108.006 164.875L105.851 165.073L105.278 163.083L104.485 165.201L98.7755 165.731C98.5018 165.756 98.2272 165.693 97.9916 165.552C97.7561 165.411 97.572 165.199 97.4662 164.946C97.3604 164.693 97.3384 164.413 97.4035 164.147C97.4686 163.881 97.6172 163.643 97.8279 163.467H97.8279Z" fill="#2F2E41"/>
<path d="M90.1369 121.209C91.2285 127.135 95.8541 141.025 98.6499 149.155C99.9247 152.869 100.815 155.383 100.815 155.383L102.268 154.927L104.718 154.155L105.613 153.873L106.697 153.532C106.697 153.532 106.443 140.172 106.613 133.085C106.671 130.8 106.77 129.167 106.935 128.844C107.616 127.513 106.477 127.373 105.275 127.036C104.071 126.7 105.011 126.194 105.48 125.114C105.796 124.394 105.173 123.437 104.731 122.889C104.609 122.735 104.479 122.588 104.341 122.448C104.341 122.448 107.404 121.41 110.867 120.239C110.87 120.241 110.87 120.239 110.87 120.239C111.218 120.121 111.569 120.004 111.919 119.884C110.699 119.446 109.888 119.107 109.705 118.927C108.631 117.884 108.158 118.927 107.477 119.97C106.796 121.014 106.587 119.97 105.697 119.203C104.807 118.437 102.802 119.49 102.802 119.49C102.802 119.49 102.783 118.796 102.755 117.691C102.713 116.058 102.65 113.517 102.587 110.974C102.59 110.971 102.59 110.971 102.587 110.971C102.563 110.014 102.54 109.057 102.519 108.149C100.673 109.558 98.8828 110.94 97.2598 112.218C97.2572 112.221 97.252 112.223 97.252 112.229C93.3489 115.301 90.4196 117.769 90.0086 118.551C89.8228 118.906 89.8856 119.848 90.1369 121.209Z" fill="#2F2E41"/>
<path d="M100.854 76.3777C102.081 76.0046 103.371 77.264 103.334 78.5418C103.297 79.8197 102.272 80.9015 101.093 81.4041C99.913 81.9067 81.2121 85.0449 79.8283 84.3359C78.4444 83.6269 77.439 81.9263 78.05 80.5004C78.4435 79.5821 79.2919 75.3127 80.0444 74.6534C82.5774 72.4339 80.2529 69.539 78.6888 66.5612C77.3054 63.9273 74.3227 61.9126 74.3524 58.94C74.3738 56.8035 75.9956 55.0627 77.5143 53.5541L82.3427 48.7578L86.9264 44.2046C87.9059 43.2316 92.108 42.7169 92.8604 43.169C94.4327 44.1139 98.3232 59.8574 98.8791 61.2933C99.0576 61.7544 97.8976 67.6547 97.4247 67.8037C96.1181 71.9294 98.4159 72.7256 100.914 76.2643" fill="#E6E6E6"/>
<path d="M63.3412 52.545C63.8535 52.6726 64.2956 52.9944 64.5734 53.4419C64.8513 53.8893 64.9429 54.4272 64.8288 54.9409C64.804 55.045 64.7705 55.1468 64.7288 55.2454L69.9427 60.0068L68.4488 63.493L62.0141 56.201C61.6173 55.9971 61.2994 55.668 61.1101 55.2651C60.9207 54.8622 60.8705 54.4082 60.9674 53.9739C61.0248 53.7273 61.1305 53.4944 61.2783 53.2885C61.4261 53.0826 61.6132 52.9078 61.8288 52.7739C62.0445 52.64 62.2845 52.5498 62.5351 52.5083C62.7857 52.4669 63.0421 52.475 63.2896 52.5323C63.3069 52.5363 63.324 52.5405 63.3412 52.545Z" fill="#FFB6B6"/>
<path d="M86.8119 48.3812C87.293 48.5262 87.7371 48.7728 88.114 49.1041C88.491 49.4354 88.7919 49.8438 88.9963 50.3013C89.2007 50.7589 89.3038 51.2549 89.2986 51.7557C89.2935 52.2566 89.1801 52.7504 88.9662 53.2037L85.5308 60.4852L76.6017 70.8614C76.6017 70.8614 67.5121 66.0004 66.9798 63.9654C66.4475 61.9305 67.158 61.3114 66.4475 61.9305C65.7371 62.5496 64.9244 62.3929 65.1498 62.1004C65.3753 61.8078 65.2713 61.8048 65.0126 61.4524C64.7539 61.0999 63.7366 59.3915 63.7366 59.3915L66.1366 56.3151C66.1366 56.3151 69.2762 57.3511 69.638 58.093C69.9998 58.8349 68.9275 58.7121 69.9998 58.8349C71.0721 58.9576 72.3043 57.6032 71.3841 58.9779C70.4639 60.3526 70.6236 60.8765 71.6161 60.7372C72.6085 60.598 74.7662 62.9464 74.7662 62.9464L82.8156 49.8937C83.2205 49.2371 83.8322 48.7327 84.5551 48.459C85.2781 48.1854 86.0716 48.158 86.8119 48.3812Z" fill="#E6E6E6"/>
<path d="M89.8064 41.1989C85.484 41.1989 81.9799 37.7075 81.9799 33.4007C81.9799 29.0938 85.484 25.6024 89.8064 25.6024C94.1289 25.6024 97.6329 29.0938 97.6329 33.4007C97.6329 37.7075 94.1289 41.1989 89.8064 41.1989Z" fill="#FFB6B6"/>
<path d="M95.8541 27.6354C95.7736 26.9336 95.2908 26.0662 94.955 25.4441C94.6192 24.822 93.9708 24.3139 93.2632 24.3573C92.974 24.3907 92.6973 24.4932 92.4566 24.6562C92.2158 24.8193 92.0182 25.0379 91.8806 25.2934C91.6105 25.808 91.4633 26.3778 91.4506 26.9583C91.3766 28.2536 91.5937 29.549 92.0859 30.7501C92.5782 31.9512 93.3333 33.0277 94.2961 33.9011C94.8446 34.3913 95.5048 34.8275 96.2414 34.8441C96.5759 34.8362 96.9055 34.7616 97.2107 34.6248C97.5159 34.4881 97.7905 34.2919 98.0185 34.0478C99.2108 32.8579 99.3911 30.9019 98.7543 29.3448C98.1175 27.7877 97.8334 27.1818 96.3777 26.3313" fill="#2F2E41"/>
<path d="M84.8595 38.8512C84.9904 39.545 83.7862 42.8446 84.1711 43.4393C84.1711 43.4393 88.1557 44.8183 89.6792 44.9174C91.5404 45.0374 93.0374 44.2766 94.7783 43.1315C94.8098 42.5103 94.9902 41.9057 95.3044 41.3683C95.2781 41.7846 95.363 42.2004 95.5505 42.5733C98.1002 40.5493 99.0573 34.9833 96.5364 32.3985L93.9186 26.3993C94.7039 26.6601 92.3332 22.6301 89.8333 25.5488C86.705 22.3744 80.645 26.9442 79.8857 31.0263C80.6163 30.1049 80.9969 30.2135 81.1842 30.8489C81.3996 30.3145 81.7408 29.8395 82.1789 29.4639C81.961 29.893 81.8497 30.368 81.8543 30.8489C86.7888 31.1541 85.8704 34.471 81.8259 39.4399C83.3215 38.5122 82.3123 42.5098 83.1109 43.4654C83.1501 42.7976 84.7182 39.5007 84.8595 38.8512Z" fill="#2F2E41"/>
<path d="M26.4397 26.7296C30.7618 21.0014 33.2599 14.5958 33.3418 7.29293C33.481 6.89937 33.4579 6.46685 33.2775 6.09025C33.0971 5.71365 32.7742 5.42372 32.3795 5.28408L17.6474 0.090254C17.2524 -0.0484934 16.8183 -0.0254675 16.4404 0.154284C16.0624 0.334036 15.7714 0.655832 15.6313 1.04907L8.72918 20.4858C8.58993 20.8793 8.61305 21.3118 8.79344 21.6884C8.97384 22.065 9.29679 22.3549 9.69145 22.4946L24.4236 27.6884C24.8185 27.8272 25.2526 27.8041 25.6306 27.6244C26.0086 27.4446 26.2995 27.1228 26.4397 26.7296Z" fill="#E6E6E6"/>
<path d="M27.3944 20.4605C29.9939 17.8417 31.1066 13.1708 31.8317 7.96485C31.9621 7.59627 31.9405 7.1912 31.7715 6.8385C31.6026 6.4858 31.3001 6.21428 30.9305 6.08351L18.2694 1.61985C17.8995 1.4899 17.493 1.51145 17.139 1.67978C16.785 1.84812 16.5125 2.14949 16.3812 2.51778L10.2393 19.8138C10.1089 20.1824 10.1305 20.5874 10.2995 20.9401C10.4685 21.2928 10.7709 21.5644 11.1406 21.6951L18.9838 24.4603C20.6315 25.0391 22.4424 24.9431 24.0191 24.1932C25.5959 23.4434 26.8097 22.101 27.3944 20.4605V20.4605Z" fill="white"/>
<path d="M16.2117 11.8352L26.0743 15.343C26.2313 15.3988 26.404 15.3902 26.5546 15.3191C26.7052 15.248 26.8213 15.1202 26.8773 14.9638C26.9333 14.8074 26.9247 14.6353 26.8533 14.4852C26.782 14.3352 26.6537 14.2195 26.4968 14.1637L16.6342 10.656C16.4773 10.6004 16.3046 10.6091 16.1542 10.6802C16.0037 10.7513 15.8878 10.8791 15.8318 11.0353C15.7758 11.1916 15.7844 11.3636 15.8556 11.5136C15.9269 11.6636 16.0549 11.7793 16.2117 11.8352V11.8352Z" fill="#D236FE"/>
<path d="M25.063 11.3377L27.2327 12.1094C27.3105 12.1372 27.3929 12.1494 27.4754 12.1453C27.5578 12.1413 27.6387 12.1211 27.7133 12.0859C27.788 12.0507 27.8549 12.0012 27.9103 11.9402C27.9657 11.8792 28.0085 11.808 28.0363 11.7305C28.0641 11.653 28.0762 11.5708 28.0721 11.4887C28.068 11.4065 28.0476 11.326 28.0122 11.2516C27.9768 11.1773 27.927 11.1107 27.8658 11.0555C27.8045 11.0004 27.733 10.9578 27.6552 10.9302L25.4854 10.1585C25.3285 10.1029 25.1559 10.1116 25.0054 10.1827C24.855 10.2539 24.739 10.3816 24.683 10.5379C24.6271 10.6941 24.6356 10.8662 24.7069 11.0161C24.7781 11.1661 24.9062 11.2818 25.063 11.3377V11.3377Z" fill="#D236FE"/>
<path d="M14.3545 17.0195L24.2171 20.5272C24.374 20.5829 24.5467 20.5741 24.6971 20.503C24.8476 20.4319 24.9635 20.3041 25.0195 20.1479C25.0755 19.9916 25.0669 19.8196 24.9957 19.6696C24.9245 19.5196 24.7964 19.4039 24.6396 19.348L14.777 15.8402C14.6201 15.7846 14.4474 15.7933 14.297 15.8645C14.1465 15.9356 14.0306 16.0633 13.9746 16.2196C13.9186 16.3759 13.9272 16.5479 13.9984 16.6979C14.0697 16.8479 14.1977 16.9635 14.3545 17.0195V17.0195Z" fill="#D236FE"/>
<path d="M15.2832 14.4274L25.1457 17.9351C25.3027 17.9909 25.4755 17.9823 25.626 17.9112C25.7766 17.8401 25.8927 17.7123 25.9487 17.5559C26.0047 17.3996 25.9961 17.2274 25.9248 17.0774C25.8534 16.9273 25.7251 16.8117 25.5682 16.7559L15.7056 13.2481C15.6279 13.2204 15.5455 13.2082 15.463 13.2122C15.3805 13.2162 15.2996 13.2364 15.225 13.2716C15.1504 13.3068 15.0834 13.3563 15.028 13.4173C14.9726 13.4783 14.9298 13.5496 14.902 13.627C14.8743 13.7045 14.8621 13.7867 14.8663 13.8689C14.8704 13.951 14.8908 14.0316 14.9262 14.1059C14.9616 14.1802 15.0113 14.2469 15.0726 14.302C15.1338 14.3572 15.2054 14.3998 15.2832 14.4274V14.4274Z" fill="#D236FE"/>
<path d="M32.5042 9.37712C31.0584 9.37712 29.8864 8.20934 29.8864 6.7688C29.8864 5.32826 31.0584 4.16047 32.5042 4.16047C33.9499 4.16047 35.1219 5.32826 35.1219 6.7688C35.1219 8.20934 33.9499 9.37712 32.5042 9.37712Z" fill="#D236FE"/>
<path d="M17.8011 114.891C22.1232 109.163 24.6213 102.757 24.7032 95.4544C24.8424 95.0608 24.8193 94.6283 24.6389 94.2517C24.4585 93.8751 24.1356 93.5852 23.7409 93.4456L9.00878 88.2517C8.6138 88.113 8.17972 88.136 7.80176 88.3158C7.4238 88.4955 7.13283 88.8173 6.99269 89.2106L0.0905848 108.647C-0.0486673 109.041 -0.0255509 109.473 0.154847 109.85C0.335244 110.226 0.658189 110.516 1.05285 110.656L15.785 115.85C16.1799 115.989 16.614 115.966 16.992 115.786C17.37 115.606 17.6609 115.284 17.8011 114.891V114.891Z" fill="#E6E6E6"/>
<path d="M18.7557 108.622C21.3552 106.003 22.4679 101.332 23.193 96.1264C23.3234 95.7578 23.3018 95.3527 23.1328 95C22.9639 94.6473 22.6614 94.3758 22.2918 94.245L9.63081 89.7814C9.26089 89.6514 8.85435 89.673 8.50036 89.8413C8.14638 90.0096 7.87386 90.311 7.7426 90.6793L1.60067 107.975C1.47026 108.344 1.49193 108.749 1.66089 109.102C1.82985 109.454 2.13232 109.726 2.50195 109.857L10.3452 112.622C11.9929 113.201 13.8037 113.105 15.3805 112.355C16.9572 111.605 18.1711 110.262 18.7557 108.622V108.622Z" fill="white"/>
<path d="M7.57313 99.9967L17.4357 103.504C17.5927 103.56 17.7654 103.552 17.916 103.481C18.0666 103.409 18.1827 103.282 18.2387 103.125C18.2947 102.969 18.2861 102.797 18.2147 102.647C18.1434 102.497 18.0151 102.381 17.8582 102.325L7.99557 98.8174C7.83868 98.7618 7.66604 98.7705 7.51559 98.8417C7.36514 98.9128 7.24918 99.0405 7.19319 99.1968C7.13721 99.3531 7.1458 99.5251 7.21703 99.6751C7.28827 99.8251 7.41634 99.9407 7.57313 99.9967V99.9967Z" fill="#D236FE"/>
<path d="M16.4244 99.4992L18.5941 100.271C18.751 100.327 18.9236 100.318 19.0741 100.247C19.2245 100.176 19.3405 100.048 19.3965 99.8915C19.4525 99.7353 19.4439 99.5633 19.3727 99.4133C19.3014 99.2633 19.1733 99.1476 19.0166 99.0917L16.8468 98.32C16.7691 98.2922 16.6866 98.28 16.6042 98.2841C16.5217 98.2881 16.4408 98.3083 16.3662 98.3435C16.2916 98.3787 16.2246 98.4282 16.1692 98.4892C16.1138 98.5502 16.071 98.6214 16.0432 98.6989C16.0155 98.7764 16.0033 98.8586 16.0075 98.9407C16.0116 99.0229 16.0319 99.1034 16.0673 99.1778C16.1027 99.2521 16.1525 99.3187 16.2137 99.3739C16.275 99.4291 16.3466 99.4716 16.4244 99.4992V99.4992Z" fill="#D236FE"/>
<path d="M6.64456 102.589L16.5071 106.097C16.6641 106.152 16.8368 106.144 16.9874 106.073C17.138 106.002 17.2541 105.874 17.3101 105.717C17.3661 105.561 17.3575 105.389 17.2861 105.239C17.2148 105.089 17.0865 104.973 16.9296 104.917L7.06701 101.41C6.98927 101.382 6.90682 101.37 6.82436 101.374C6.74189 101.378 6.66102 101.398 6.58639 101.433C6.51176 101.468 6.44482 101.518 6.3894 101.579C6.33398 101.64 6.29117 101.711 6.26342 101.789C6.23566 101.866 6.22351 101.948 6.22764 102.03C6.23178 102.113 6.25213 102.193 6.28753 102.267C6.32292 102.342 6.37267 102.408 6.43393 102.464C6.49519 102.519 6.56677 102.561 6.64456 102.589Z" fill="#D236FE"/>
<path d="M23.342 97.2778C21.8962 97.2778 20.7242 96.11 20.7242 94.6694C20.7242 93.2289 21.8962 92.0611 23.342 92.0611C24.7878 92.0611 25.9598 93.2289 25.9598 94.6694C25.9598 96.11 24.7878 97.2778 23.342 97.2778Z" fill="#D236FE"/>
<path d="M64.781 47.6928C63.3353 47.6928 62.1633 46.5251 62.1633 45.0845C62.1633 43.644 63.3353 42.4762 64.781 42.4762C66.2268 42.4762 67.3988 43.644 67.3988 45.0845C67.3988 46.5251 66.2268 47.6928 64.781 47.6928Z" fill="#D236FE"/>
<path d="M91.9804 32.4627C92.0436 32.4626 92.1045 32.4398 92.1521 32.3985C92.1997 32.3571 92.2307 32.3001 92.2394 32.2377C92.2481 32.1754 92.234 32.1121 92.1995 32.0594C92.165 32.0067 92.1126 31.9682 92.0519 31.9509C91.9833 31.8381 92.0114 31.3632 92.034 30.9794C92.1191 29.5386 92.2616 27.1272 89.912 25.4994C89.8551 25.4599 89.7847 25.4446 89.7164 25.4568C89.648 25.469 89.5874 25.5078 89.5478 25.5646C89.5081 25.6214 89.4928 25.6915 89.505 25.7596C89.5173 25.8277 89.5562 25.8881 89.6132 25.9276C91.7217 27.3885 91.5952 29.5311 91.5113 30.9487C91.4635 31.7592 91.4289 32.3447 91.9223 32.4562C91.9414 32.4605 91.9609 32.4627 91.9804 32.4627V32.4627Z" fill="#D236FE"/>
<path d="M91.8584 26.7619C93.4561 26.1012 95.158 25.7254 96.8862 25.6517C98.2571 25.5938 99.8926 25.8983 100.45 27.1476C100.788 27.9055 100.608 28.7939 100.299 29.5639C99.9893 30.3339 99.5554 31.0614 99.3763 31.8714C98.9905 33.6163 99.901 35.4654 101.298 36.5851C102.696 37.7048 104.499 38.1989 106.278 38.4235C104.942 38.9176 103.585 39.4164 102.164 39.5349C100.743 39.6535 99.2262 39.3458 98.1655 38.3967C97.0177 37.3697 96.5767 35.7745 96.3814 34.2498C96.1862 32.725 96.1761 31.1547 95.6573 29.707C95.1386 28.2594 93.9471 26.9112 92.4098 26.7829" fill="#2F2E41"/>
</g>
<defs>
<clipPath id="clip0_18_209">
<rect width="147" height="166" fill="white" transform="matrix(-1 0 0 1 147 0)"/>
</clipPath>
</defs>
</svg>
