<svg width="230" height="157" viewBox="0 0 230 157" fill="none" xmlns="http://www.w3.org/2000/svg">
<g clip-path="url(#clip0_58_81)">
<path d="M79.9131 150.39C79.7301 150.398 79.5489 150.35 79.3941 150.252C79.2394 150.155 79.1184 150.012 79.0478 149.843C78.9771 149.674 78.9601 149.488 78.9991 149.309C79.038 149.13 79.1311 148.968 79.2656 148.843L79.3268 148.6C79.3187 148.581 79.3106 148.561 79.3025 148.542C79.1181 148.107 78.8092 147.736 78.4145 147.476C78.0199 147.216 77.557 147.078 77.0842 147.08C76.6113 147.082 76.1495 147.223 75.7568 147.486C75.3641 147.749 75.0579 148.122 74.8768 148.558C74.153 150.299 73.2314 152.043 73.0045 153.884C72.9045 154.698 72.9467 155.523 73.1291 156.322C71.429 152.619 70.5462 148.593 70.5405 144.519C70.5401 143.496 70.597 142.475 70.7109 141.459C70.805 140.626 70.9355 139.799 71.1025 138.978C72.0137 134.523 73.9701 130.347 76.8111 126.794C78.1861 126.044 79.2981 124.892 79.9972 123.492C80.2505 122.989 80.4295 122.452 80.5286 121.898C80.3735 121.918 79.9438 119.559 80.0608 119.414C79.8446 119.086 79.4577 118.924 79.2217 118.604C78.0475 117.014 76.4299 117.292 75.5854 119.452C73.7814 120.361 73.764 121.869 74.8709 123.32C75.5751 124.242 75.6719 125.491 76.2898 126.479C76.2262 126.56 76.1601 126.639 76.0965 126.72C74.9345 128.212 73.9216 129.815 73.0726 131.504C73.279 129.611 73.0326 127.697 72.3535 125.918C71.6653 124.259 70.3753 122.863 69.2392 121.429C67.8747 119.708 65.0766 120.459 64.8362 122.642C64.8338 122.663 64.8316 122.684 64.8294 122.705C64.9981 122.8 65.1633 122.901 65.3249 123.008C65.5279 123.143 65.6852 123.337 65.7762 123.563C65.8672 123.789 65.8877 124.038 65.8348 124.276C65.782 124.514 65.6584 124.731 65.4802 124.897C65.3021 125.064 65.0776 125.173 64.8363 125.21L64.8116 125.214C64.8717 125.821 64.9779 126.423 65.1294 127.015C63.6721 132.643 66.8184 134.693 71.311 134.785C71.4101 134.836 71.5068 134.887 71.606 134.935C70.7529 137.349 70.2178 139.864 70.0142 142.416C69.8989 143.922 69.9057 145.434 70.0345 146.939L70.0269 146.886C69.7014 145.213 68.8077 143.703 67.4968 142.612C65.5497 141.014 62.7989 140.426 60.6984 139.142C60.4751 138.999 60.2156 138.923 59.9503 138.922C59.685 138.921 59.4251 138.997 59.2011 139.139C58.9772 139.281 58.7986 139.484 58.6864 139.724C58.5743 139.964 58.5332 140.231 58.568 140.494C58.5708 140.512 58.5737 140.531 58.5766 140.55C58.8897 140.677 59.1946 140.824 59.4895 140.989C59.6582 141.084 59.8234 141.185 59.985 141.292C60.188 141.427 60.3453 141.621 60.4363 141.847C60.5273 142.073 60.5477 142.322 60.4949 142.56C60.4421 142.798 60.3185 143.015 60.1403 143.181C59.9622 143.348 59.7377 143.457 59.4964 143.494L59.4717 143.498C59.4539 143.501 59.4386 143.503 59.4208 143.506C59.9558 144.781 60.7068 145.956 61.6407 146.977C62.5519 151.891 66.4658 152.357 70.6524 150.926H70.6549C71.1143 152.919 71.7798 154.86 72.6409 156.716H79.7353C79.7607 156.637 79.7836 156.556 79.8065 156.477C79.1498 156.518 78.4906 156.479 77.8434 156.36C78.3698 155.715 78.8962 155.065 79.4225 154.42C79.4343 154.408 79.4453 154.395 79.4556 154.382C79.7226 154.052 79.9921 153.724 80.2591 153.394L80.2593 153.394C80.2735 152.382 80.1572 151.372 79.9133 150.39L79.9131 150.39Z" fill="#F2F2F2"/>
<path d="M25.3451 139.674L27.3026 141.74L36.3918 135.015L33.5028 131.965L25.3451 139.674Z" fill="#A0616A"/>
<path d="M28.5528 140.817L26.3367 138.738L25.7925 138.228L20.1508 142.733L21.6184 144.282L23.3458 143.176L22.5523 145.268L26.4433 149.375C26.6297 149.572 26.8743 149.704 27.1414 149.752C27.4084 149.801 27.684 149.763 27.9278 149.644C28.1716 149.524 28.3709 149.331 28.4966 149.09C28.6223 148.85 28.6679 148.576 28.6266 148.308L27.7868 142.883L29.2666 141.485L28.5528 140.817Z" fill="#1F1E29"/>
<path d="M68.3651 64.4465L67.7445 71.2128C67.7445 71.2128 66.6612 76.3106 67.4113 75.8974C68.1614 75.4842 66.8165 77.3439 67.1707 78.9566C67.5249 80.5692 64.1452 92.5953 65.676 91.3495C67.2067 90.1037 64.7913 98.7102 63.2637 102.956C62.796 104.269 62.3154 105.597 61.8316 106.916C61.7362 107.183 61.6407 107.447 61.5421 107.714C60.9151 109.43 60.2881 111.121 59.6868 112.716C59.6009 112.939 59.518 113.161 59.4354 113.381C59.4321 113.387 59.4321 113.393 59.429 113.393C57.4495 118.596 55.7533 122.689 55.0755 123.366C54.7223 123.719 49.1181 127.762 43.4694 131.811C37.5407 136.06 31.5641 140.318 31.5641 140.318L25.9822 134.471C25.9822 134.471 26.1159 134.433 26.3673 134.356C26.8319 134.223 27.6912 133.972 28.8178 133.638C33.5149 132.255 27.548 130.104 31.8125 128.566C33.0153 128.133 33.8173 127.797 33.9986 127.619C35.0584 126.586 36.481 124.123 37.1524 125.156C37.8239 126.188 40.8695 118.513 41.7477 117.754C42.2187 117.344 43.7558 115.427 45.0734 113.743C46.2062 112.293 47.18 111.013 47.18 111.013C47.18 111.013 47.1991 110.326 47.2277 109.233C47.2692 107.615 47.3296 105.101 47.3934 102.584C47.3901 102.581 47.3901 102.581 47.3934 102.581C47.4156 101.634 47.4378 100.687 47.4602 99.7874C47.476 99.0914 47.4919 98.4209 47.5079 97.8011C47.5492 95.9451 47.5778 94.5404 47.5778 94.1908C47.5778 93.0435 47.5778 93.9366 48.4848 93.2437C48.6203 93.1374 48.7489 93.0228 48.8699 92.9004C49.0638 92.7261 49.2427 92.5358 49.4046 92.3315C49.4714 92.1886 49.0545 92.3824 48.5134 92.2744C48.2204 92.2156 47.9495 92.077 47.7306 91.8739C46.5912 90.8506 47.8198 87.7043 47.8198 87.7043C45.2293 82.5301 45.4171 78.2873 46.6295 75.0169C47.5361 72.6702 48.975 70.5652 50.8334 68.8673C51.5407 68.1942 52.3112 67.5907 53.1344 67.0652L53.214 66.6363L54.0891 61.904C54.5545 61.6487 55.0385 61.4288 55.537 61.2462C57.0914 60.6892 58.7593 60.5232 60.3932 60.7631C62.0171 60.9977 63.5893 61.5061 65.0428 62.2663C66.2308 62.8624 67.3457 63.594 68.3651 64.4465Z" fill="#1F1E29"/>
<path d="M43.9232 150.216L46.759 150.479L49.1486 139.437L44.9628 139.048L43.9232 150.216Z" fill="#A0616A"/>
<path d="M52.0904 154.544L47.8769 151.019L48.0679 148.992L47.0878 148.96L44.0518 148.861H44.0486L43.3039 148.836L42.0405 155.936L44.1695 156.133L44.7327 154.162L45.5188 156.26L46.6454 156.365L51.1548 156.784C51.193 156.788 51.2344 156.791 51.2726 156.791C51.4519 156.791 51.6291 156.753 51.7926 156.68C51.9561 156.606 52.1021 156.499 52.2209 156.365C52.4055 156.163 52.5185 155.906 52.5423 155.634C52.5609 155.429 52.5296 155.223 52.4508 155.033C52.3721 154.843 52.2485 154.675 52.0904 154.544Z" fill="#1F1E29"/>
<path d="M59.6868 112.716C58.608 118.58 54.0412 132.329 51.279 140.376C50.0219 144.053 49.1436 146.541 49.1436 146.541L47.7116 146.09H47.7083L45.2866 145.327L44.405 145.048H44.4018L43.3325 144.708C43.3325 144.708 43.4567 138.141 43.4694 131.811C43.4789 129.157 43.4662 126.541 43.4154 124.469C43.358 122.209 43.2593 120.592 43.0971 120.271C42.4255 118.955 43.549 118.815 44.736 118.485C45.9261 118.151 44.9969 117.649 44.5354 116.581C44.2237 115.869 44.8378 114.919 45.2738 114.378C45.3941 114.226 45.5227 114.081 45.6589 113.943C45.6589 113.943 45.4488 113.87 45.0734 113.743C46.2062 112.294 47.18 111.013 47.18 111.013C47.18 111.013 47.1991 110.326 47.2277 109.233C47.2692 107.615 47.3296 105.101 47.3933 102.584C47.3901 102.581 47.3901 102.581 47.3933 102.581C47.4156 101.634 47.4378 100.687 47.4602 99.7875C49.2804 101.183 51.0498 102.549 52.6538 103.814C52.6557 103.816 52.6573 103.818 52.6584 103.82C52.6595 103.822 52.6601 103.825 52.6601 103.827C56.5139 106.868 59.4068 109.309 59.8141 110.085C59.9987 110.434 59.935 111.369 59.6868 112.716Z" fill="#1F1E29"/>
<path d="M154.562 9.18246C155.093 9.13292 155.622 9.29206 156.037 9.62603C156.452 9.96 156.719 10.4424 156.784 10.9707C156.795 11.0783 156.797 11.1866 156.791 11.2946L163.353 14.0933L163.103 17.9186L154.528 13.114C154.082 13.0521 153.669 12.8445 153.353 12.5235C153.037 12.2024 152.837 11.7861 152.783 11.3394C152.755 11.085 152.777 10.8275 152.849 10.5816C152.92 10.3358 153.04 10.1064 153.2 9.90657C153.36 9.70675 153.558 9.54042 153.783 9.41706C154.008 9.2937 154.254 9.21574 154.509 9.18761C154.527 9.18566 154.545 9.18394 154.562 9.18246Z" fill="#FFB6B6"/>
<path d="M199.212 32.7953C199.05 32.0537 198.748 31.3494 198.324 30.7199C198.206 30.5407 198.077 30.3688 197.939 30.205C197.423 29.5917 196.943 29.0292 196.497 28.527C196.227 28.2123 195.962 27.9199 195.714 27.6499C194.273 26.0703 193.327 25.2345 192.895 25.1645C192.685 25.1296 192.478 25.1041 192.277 25.0787C191.249 24.9516 190.505 24.8594 190.482 23.7756C190.48 23.6203 190.491 23.4651 190.514 23.3116C190.553 23.0538 190.609 22.7989 190.683 22.5488C190.725 22.4071 190.758 22.2627 190.782 22.1167C190.813 21.9292 190.801 21.7892 190.699 21.7034C190.572 21.5987 190.358 21.6145 189.957 21.7734C189.894 21.7988 189.821 21.8274 189.744 21.8623C189.719 21.8719 189.693 21.8847 189.664 21.8974C189.614 21.9196 189.556 21.945 189.499 21.9736C189.019 22.2025 188.277 22.231 187.431 22.1452C184.932 21.891 181.553 20.6325 181.511 20.6165L160.228 12.3566L160.03 12.6744L159.562 13.4307L159.4 13.6913L159.216 13.99L158.41 15.2867L158.003 15.9415L164.877 21.1187L165.625 21.6812L166.268 22.1675L179.392 32.0547L184.286 35.2805L185.378 35.9987L190.031 39.0625C190.699 39.5037 191.45 39.8068 192.238 39.9536C193.026 40.1005 193.835 40.0883 194.618 39.9176C195.401 39.747 196.142 39.4215 196.797 38.9602C197.452 38.4989 198.008 37.9113 198.432 37.2319C199.258 35.91 199.538 34.3192 199.212 32.7953Z" fill="#E6E6E6"/>
<path d="M52.4822 53.0087L53.0786 58.5329L52.7279 65.7766L68.7941 63.8706L70.3035 53.0087L68.3801 53.0277L52.4822 53.0087Z" fill="#FFB6B6"/>
<path d="M66.1482 35.166L60.1017 30.3988L56.9277 30.2145L52.218 33.2276L51.0648 39.1032L48.3374 45.7195L52.3378 63.5749C52.3378 63.5749 52.713 64.8562 51.7298 65.0101C50.7466 65.164 50.8645 67.0527 50.8645 67.0527C50.8645 67.0527 51.0647 68.6895 50.11 68.8336C49.1552 68.9778 46.6095 68.9778 48.8371 71.8381C51.0648 74.6985 68.6843 63.8802 68.6843 63.8802L71.2434 50.4702C71.2434 50.4702 76.2063 43.8132 70.8616 40.0006L66.1482 35.166Z" fill="#E6E6E6"/>
<path d="M39.7524 75.7061C39.4859 75.374 39.2957 74.9877 39.1949 74.5743C39.0942 74.1609 39.0854 73.7304 39.1692 73.3133C39.2531 72.8961 39.4275 72.5024 39.6802 72.1599C39.9329 71.8173 40.2577 71.5342 40.6318 71.3306L48.2374 45.8403L52.9931 48.2315L44.7104 72.6636C45.0113 73.3139 45.0629 74.0518 44.8554 74.7375C44.6479 75.4232 44.1957 76.0091 43.5846 76.3841C42.9734 76.7591 42.2457 76.8972 41.5394 76.7723C40.8332 76.6473 40.1973 76.2679 39.7524 75.7061Z" fill="#A0616A"/>
<path d="M53.3102 32.9918C53.3102 32.9918 51.9508 32.2702 51.0209 35.3925C50.2765 37.8922 44.2359 52.7811 44.1588 56.4011C43.6617 56.5063 43.2138 56.7736 42.8856 57.1611C42.5574 57.5485 42.3676 58.034 42.3461 58.541L49.8147 59.5406C51.1198 58.4413 51.4622 56.9565 50.9573 56.5159L52.5789 52.0928L59.3441 38.0202L54.3022 33.4959L53.3102 32.9918Z" fill="#E6E6E6"/>
<path d="M93.2176 67.3274C93.314 66.9129 93.3183 66.4824 93.2302 66.0662C93.142 65.6499 92.9635 65.258 92.7073 64.9181C92.451 64.5781 92.1233 64.2985 91.7471 64.0987C91.3709 63.899 90.9555 63.784 90.53 63.762L73.083 43.8625L69.382 48.2728L87.4297 66.7253C87.44 67.4416 87.713 68.1292 88.197 68.6579C88.6811 69.1866 89.3425 69.5195 90.0559 69.5938C90.7693 69.668 91.4852 69.4782 92.068 69.0605C92.6507 68.6428 93.0597 68.0261 93.2176 67.3274H93.2176Z" fill="#A0616A"/>
<path d="M62.497 34.6687C62.497 34.6687 63.4103 33.431 65.6007 35.8447C67.3543 37.777 79.2481 48.5931 80.885 51.8238C81.3788 51.7039 81.8985 51.7516 82.3622 51.9592C82.8259 52.1668 83.2072 52.5226 83.4462 52.9704L77.1448 57.0972C75.492 56.6696 74.5404 55.4787 74.8049 54.8633L71.4275 51.5755L59.2338 41.8085L61.8208 35.5517L62.497 34.6687Z" fill="#E6E6E6"/>
<path d="M127.558 89.3054C152.164 89.3054 172.111 69.3847 172.111 44.8112C172.111 20.2378 152.164 0.317139 127.558 0.317139C102.952 0.317139 83.0049 20.2378 83.0049 44.8112C83.0049 69.3847 102.952 89.3054 127.558 89.3054Z" fill="#D236FE"/>
<path opacity="0.2" d="M125.451 60.5589C123.41 62.5972 120.642 63.7423 117.755 63.7423C114.869 63.7423 112.1 62.5972 110.059 60.5589V60.5589C108.305 58.8066 107.203 56.5086 106.936 54.0454C106.669 51.5822 107.252 49.1017 108.589 47.0146L106.194 49.4542C104.153 51.4925 103.007 54.2571 103.007 57.1397C103.007 60.0223 104.153 62.7869 106.194 64.8252V64.8252C108.235 66.8635 111.004 68.0086 113.89 68.0086C116.776 68.0086 119.545 66.8635 121.586 64.8252L126.892 59.323L126.972 58.981L125.451 60.5589Z" fill="black"/>
<path opacity="0.2" d="M130.505 26.5664C132.891 24.9437 135.824 24.334 138.66 24.8712C141.496 25.4085 144.002 27.0488 145.627 29.4313V29.4314C147.023 31.4794 147.677 33.9423 147.48 36.4121C147.283 38.8819 146.247 41.2104 144.544 43.012L147.352 41.0609C149.738 39.4382 151.38 36.9355 151.918 34.1034C152.456 31.2713 151.845 28.3417 150.221 25.9592V25.9592C148.596 23.5767 146.09 21.9364 143.254 21.3991C140.418 20.8618 137.485 21.4716 135.099 23.0943L128.859 27.5124L128.716 27.8335L130.505 26.5664Z" fill="black"/>
<path d="M113.89 69.3684C111.549 69.3685 109.26 68.6751 107.313 67.3761C105.366 66.077 103.849 64.2306 102.953 62.0704C102.057 59.9101 101.823 57.533 102.279 55.2397C102.736 52.9463 103.864 50.8398 105.519 49.1864L115.565 38.9504C116.664 37.8511 117.969 36.9789 119.406 36.3836C120.843 35.7883 122.383 35.4816 123.938 35.481C125.494 35.4803 127.034 35.7858 128.471 36.38C129.908 36.9742 131.214 37.8453 132.314 38.9437C132.493 39.1225 132.593 39.365 132.593 39.6178C132.593 39.8707 132.493 40.1131 132.314 40.2919C132.135 40.4707 131.892 40.5712 131.639 40.5712C131.385 40.5712 131.143 40.4707 130.964 40.2919C129.102 38.4325 126.576 37.3878 123.943 37.3878C121.31 37.3879 118.784 38.4325 116.922 40.292C115.447 45.487 112.259 49.0516 106.876 50.528C105.953 51.4481 105.22 52.5408 104.719 53.7439C104.219 54.947 103.961 56.2367 103.96 57.5395C103.958 58.8422 104.214 60.1324 104.713 61.3363C105.211 62.5402 105.942 63.6342 106.864 64.5558C107.786 65.4775 108.881 66.2086 110.086 66.7075C111.291 67.2064 112.583 67.4633 113.887 67.4634C115.192 67.4636 116.483 67.207 117.688 66.7084C118.894 66.2098 119.989 65.4789 120.911 64.5575C120.693 62.4262 121.317 60.4228 126.204 59.068C126.291 58.9775 126.395 58.9049 126.51 58.8545C126.625 58.8041 126.749 58.7768 126.874 58.7743C127 58.7718 127.125 58.794 127.242 58.8398C127.359 58.8855 127.465 58.9538 127.556 59.0408C127.646 59.1279 127.719 59.2318 127.769 59.3468C127.819 59.4618 127.846 59.5855 127.848 59.711C127.85 59.8364 127.828 59.961 127.782 60.0776C127.735 60.1943 127.667 60.3007 127.579 60.3908L122.273 65.893C121.176 66.9976 119.87 67.8736 118.431 68.4702C116.992 69.0668 115.448 69.3721 113.89 69.3684Z" fill="white"/>
<path d="M130.2 54.8879C128.645 54.8921 127.104 54.5882 125.667 53.9938C124.231 53.3994 122.926 52.5263 121.829 51.425C121.65 51.2462 121.55 51.0037 121.55 50.7508C121.55 50.4979 121.65 50.2554 121.829 50.0766C122.009 49.8978 122.251 49.7974 122.505 49.7974C122.758 49.7975 123.001 49.8979 123.18 50.0768C124.102 50.9975 125.196 51.7279 126.401 52.2262C127.605 52.7246 128.896 52.981 130.2 52.981C131.504 52.981 132.795 52.7246 134 52.2262C135.204 51.7279 136.299 50.9976 137.221 50.0768C138.493 42.4224 143.68 41.3422 148.189 39.123C149.111 38.2023 149.843 37.1092 150.342 35.9062C150.841 34.7032 151.097 33.4138 151.097 32.1117C151.097 30.8095 150.841 29.5202 150.342 28.3171C149.843 27.1141 149.111 26.0211 148.189 25.1003C147.267 24.1796 146.173 23.4492 144.968 22.9509C143.764 22.4526 142.472 22.1961 141.169 22.1961C139.865 22.1962 138.574 22.4526 137.369 22.9509C136.164 23.4493 135.07 24.1796 134.148 25.1004C132.894 28.7143 131.662 32.3709 127.926 31.3136C127.838 31.4021 127.733 31.4724 127.617 31.5203C127.501 31.5682 127.377 31.5929 127.251 31.5929C126.998 31.5929 126.755 31.4924 126.576 31.3136C126.397 31.1348 126.297 30.8923 126.297 30.6395C126.297 30.3866 126.397 30.1441 126.576 29.9654L132.798 23.7521C133.897 22.6543 135.202 21.7835 136.638 21.1894C138.075 20.5952 139.614 20.2894 141.168 20.2894C142.723 20.2894 144.262 20.5952 145.699 21.1893C147.135 21.7834 148.44 22.6543 149.539 23.7521C150.638 24.8499 151.51 26.1531 152.105 27.5875C152.7 29.0218 153.007 30.5591 153.007 32.1116C153.007 33.6642 152.7 35.2015 152.105 36.6358C151.511 38.0702 150.639 39.3735 149.539 40.4713L138.571 51.4252C137.474 52.5264 136.17 53.3995 134.733 53.9939C133.296 54.5883 131.755 54.8921 130.2 54.8879Z" fill="white"/>
<path d="M166.268 22.1676C164.397 18.994 162.145 16.0601 159.562 13.4308C158.986 12.8461 158.391 12.2739 157.784 11.7178C157.446 11.4096 157.106 11.1076 156.759 10.8119C156.1 10.2463 155.422 9.69959 154.732 9.17213C146.93 3.21278 137.379 -0.0110588 127.557 2.85026e-05C102.817 2.85026e-05 82.6859 20.1018 82.6859 44.812C82.6847 47.5366 82.9329 50.2556 83.4272 52.9352C83.428 52.9502 83.4302 52.9651 83.4337 52.9797C83.6597 54.2097 83.9397 55.4237 84.2643 56.6155C86.5638 65.0277 91.271 72.587 97.809 78.3669C104.347 84.1467 112.432 87.8958 121.072 89.1546C129.712 90.4134 138.532 89.1271 146.451 85.4536C154.37 81.78 161.043 75.8787 165.654 68.4732C166.274 67.4752 166.857 66.4518 167.404 65.4031C170.889 58.6878 172.612 51.2 172.413 43.6392C172.215 36.0783 170.1 28.6911 166.268 22.1676ZM127.557 88.9883C121.748 88.9903 115.995 87.849 110.627 85.6296C105.259 83.4102 100.382 80.1563 96.274 76.0538C92.166 71.9512 88.9078 67.0805 86.6855 61.7199C84.4631 56.3592 83.3203 50.6138 83.3223 44.812C83.3223 20.4513 103.168 0.635659 127.557 0.635659C133.46 0.639 139.302 1.82232 144.739 4.11588C150.176 6.40944 155.098 9.76681 159.216 13.9901C160.29 15.0848 161.303 16.2371 162.252 17.4417C163.191 18.6204 164.067 19.8478 164.877 21.1188C168.253 26.4152 170.459 32.3697 171.348 38.5851C172.237 44.8004 171.789 51.1337 170.032 57.1622C169.641 58.5097 169.183 59.8287 168.667 61.1222C168.148 62.4189 167.572 63.6902 166.936 64.9233C163.214 72.1559 157.572 78.2266 150.626 82.4711C143.681 86.7156 135.7 88.9702 127.557 88.9883Z" fill="#3F3D56"/>
<path d="M188.599 150.317L185.674 150.292L184.379 138.762L188.696 138.798L188.599 150.317Z" fill="#FFB6B6"/>
<path d="M189.375 148.969L188.611 148.919L185.496 148.706L184.493 148.639L184.474 150.727L179.802 153.892C179.572 154.049 179.397 154.275 179.304 154.538C179.211 154.8 179.205 155.086 179.286 155.352C179.367 155.619 179.531 155.853 179.755 156.019C179.978 156.186 180.249 156.277 180.528 156.279L186.342 156.327L187.361 154.267L187.733 156.34L189.929 156.359L189.375 148.969Z" fill="#1F1E29"/>
<path d="M219.395 148.182L216.6 149.041L211.88 138.439L216.007 137.172L219.395 148.182Z" fill="#FFB6B6"/>
<path d="M219.728 146.665L218.984 146.846L215.951 147.581L214.974 147.819L215.588 149.818L212.091 154.242C211.939 154.435 211.844 154.666 211.818 154.91C211.792 155.154 211.835 155.401 211.942 155.621C212.049 155.842 212.216 156.028 212.424 156.159C212.632 156.289 212.873 156.358 213.119 156.359C213.248 156.358 213.377 156.339 213.501 156.301L219.06 154.595L219.407 152.322L220.39 154.185L222.488 153.54L219.728 146.665Z" fill="#1F1E29"/>
<path d="M182.716 53.3662L177.134 69.5665L176.949 70.8628C175.543 72.1965 177.31 72.6359 176.647 72.9876C175.985 73.3393 175.539 74.3252 176.432 74.5014C177.325 74.6775 180.203 137.865 184 140.318C187.797 142.772 190.107 144.547 189.41 140.954C189.129 139.507 189.526 131.746 190.101 122.995C190.166 122.003 191.195 120.953 190.303 119.989C189.41 119.025 190.413 118.39 190.469 117.59C191.27 106.162 192.194 94.8803 192.194 94.8803C192.194 94.8803 198.112 115.175 199.648 113.604C201.185 112.033 200.577 115.901 201.046 117.057C201.439 118.023 199.764 119.92 202.225 119.949C204.685 119.978 210.464 139.705 211.05 139.683C212.212 139.639 215.476 139.764 217.415 139.365C218.372 139.168 214.123 124.233 210.574 111.336C210.291 110.308 208.751 110.284 209.741 108.298C210.732 106.312 205.803 93.4642 206.226 92.87C207.349 91.2928 207.776 90.6072 206.669 90.5039C205.562 90.4006 205.235 91.0071 205.175 89.4772C205.115 87.9472 204.924 84.1744 204.924 84.1744C204.924 84.1744 204.122 69.2534 198.507 61.0097L198.028 56.1115L182.716 53.3662Z" fill="#1F1E29"/>
<path d="M196.661 22.4358L189.259 23.4884L188.812 28.8414L185.159 34.5478C185.159 34.5478 177.04 40.2542 182.702 49.2685C180.547 57.0337 178.405 64.4808 176.362 69.4457C174.771 79.2979 189.026 80.2422 205.322 76.7554C205.322 76.7554 205.097 72.5427 203.618 70.5175C202.139 68.4922 202.944 68.0501 202.944 68.0501L201.911 64.2664C202.496 58.7973 200.522 58.3065 199.594 55.7796L202.411 29.5616L196.661 22.4358Z" fill="#E6E6E6"/>
<path d="M161.125 68.2621C161.204 67.7358 161.485 67.2609 161.908 66.9383C162.332 66.6157 162.865 66.471 163.394 66.5349C163.502 66.5496 163.607 66.5732 163.711 66.6053L167.999 60.9088L171.659 62.0647L164.94 69.234C164.773 69.6519 164.473 70.0031 164.085 70.2325C163.698 70.462 163.245 70.5569 162.798 70.5025C162.544 70.4691 162.299 70.386 162.077 70.2579C161.855 70.1299 161.66 69.9595 161.504 69.7564C161.348 69.5533 161.234 69.3215 161.167 69.0742C161.101 68.8269 161.084 68.5689 161.117 68.3151C161.12 68.2974 161.122 68.2798 161.125 68.2621Z" fill="#FFB6B6"/>
<path d="M199.212 32.7953C199.107 32.665 198.992 32.5379 198.871 32.4139C198.031 31.5488 196.948 30.9572 195.765 30.7168C194.582 30.4764 193.355 30.5982 192.242 31.0664C192.134 31.1108 192.026 31.1617 191.921 31.2126C188.118 33.0781 186.065 34.3208 185.817 34.9024C185.731 35.0995 185.658 35.2933 185.585 35.4808C185.515 35.6651 185.448 35.8399 185.378 35.9988C185.085 36.6789 184.748 37.1017 183.888 36.9109C183.604 36.8414 183.329 36.7356 183.071 36.5964C182.953 36.5391 182.845 36.4788 182.743 36.4215C182.374 36.2182 182.106 36.072 181.925 36.2055C181.75 36.3357 181.744 36.6662 181.903 37.4322C181.955 37.7519 181.947 38.0787 181.877 38.3951C181.667 39.3183 181.337 40.2104 180.897 41.0489C180.237 42.3633 179.496 43.635 178.676 44.8563L171.105 55.6366L170.593 56.3644L170.032 57.1622L165.564 63.5248L165.829 63.7949L166.936 64.9232L167.181 65.1743L167.404 65.403L167.98 65.991L168.521 66.5408L180.592 56.7204L181.938 55.6238L184.35 53.6598L189.292 49.6395L198.645 40.9949C199.236 40.4536 199.71 39.7987 200.041 39.0696C200.372 38.3406 200.552 37.5523 200.571 36.752C200.571 36.698 200.574 36.6471 200.574 36.5931C200.577 35.2073 200.095 33.8638 199.212 32.7953Z" fill="#E6E6E6"/>
<path d="M192.217 22.2409C196.785 22.2409 200.488 18.5425 200.488 13.9803C200.488 9.41812 196.785 5.71973 192.217 5.71973C187.649 5.71973 183.945 9.41812 183.945 13.9803C183.945 18.5425 187.649 22.2409 192.217 22.2409Z" fill="#FFB6B6"/>
<path d="M203.179 25.4349C204.289 27.0216 205.031 28.8351 205.352 30.744C204.458 31.3156 203.416 31.6158 202.354 31.6082C202.318 31.4694 202.282 31.3305 202.241 31.1915C201.933 30.116 201.476 29.089 200.881 28.1409C200.963 29.1633 200.824 30.1912 200.474 31.1556C199.913 30.9008 199.312 30.7459 198.697 30.6977C198.196 30.6977 197.703 30.8139 197.255 31.0372C196.734 29.3138 196.255 27.7293 195.915 26.5924C195.905 29.4424 191.722 31.9272 187.158 31.5671C186.993 31.4642 188.647 26.7776 188.487 26.6696C188.121 26.4278 187.766 26.1654 187.41 25.9082C188.904 23.6034 190.527 21.1341 190.249 20.7637C190.269 21.2216 188.631 23.4234 186.849 25.5018C185.86 24.7764 191.48 12.975 188.703 12.0181C188.657 12.4348 188.044 12.4348 187.297 12.3474C187.1 11.6598 186.807 11.0034 186.427 10.3976C186.476 11.0079 186.402 11.6219 186.21 12.2033C185.473 12.2035 184.737 12.2811 184.016 12.4348C183.849 12.1725 183.665 11.9216 183.465 11.6837C183.484 11.9736 183.476 12.2648 183.439 12.5531C182.702 12.7126 182.094 12.8978 182.007 13.047C181.43 12.836 182.414 11.8843 182.053 11.3904C181.136 10.1558 182.496 8.35522 183.356 7.07937C185.123 4.466 189.002 3.56056 191.748 5.12962C191.871 4.70262 192.505 4.41968 193.319 4.22934C193.664 4.15341 194.017 4.12058 194.37 4.13159C197.873 4.19332 202.736 7.07937 202.926 10.5725C202.942 10.9223 202.967 11.303 202.993 11.7094C203.24 15.6192 202.937 19.2255 205.61 22.0858C206.579 23.1198 206.589 28.0174 206.218 30.5382C205.255 29.5247 204.569 25.5841 203.179 25.4349Z" fill="#1F1E29"/>
<path d="M112.078 45.9274C112.605 45.9274 113.033 45.5005 113.033 44.974C113.033 44.4474 112.605 44.0205 112.078 44.0205C111.551 44.0205 111.124 44.4474 111.124 44.974C111.124 45.5005 111.551 45.9274 112.078 45.9274Z" fill="#D236FE"/>
<path d="M142.311 45.2918C142.838 45.2918 143.266 44.8649 143.266 44.3383C143.266 43.8118 142.838 43.3849 142.311 43.3849C141.784 43.3849 141.356 43.8118 141.356 44.3383C141.356 44.8649 141.784 45.2918 142.311 45.2918Z" fill="#D236FE"/>
<path d="M51.4318 17.4151C50.7052 19.2223 48.6554 22.7761 48.3778 24.7148L48.5028 24.592C48.7412 24.9987 49.012 25.3855 49.3128 25.7486C49.8518 25.1833 50.5028 24.7362 51.2244 24.436C50.8304 25.2433 50.6022 26.1213 50.5533 27.0181C51.3268 29.4397 54.9029 28.3613 56.9982 28.0969C59.0906 30.4871 61.8743 31.1108 65.5197 29.7367C66.5392 29.8415 67.6805 29.9051 68.3949 29.3035C69.1093 28.7019 68.6839 27.5877 69.0683 26.745C71.8062 20.7424 69.2794 18.5768 67.1327 15.855C66.6602 15.256 66.6622 14.3622 66.0873 13.7907C65.2897 12.9985 64.0671 12.7549 62.9398 12.5597C63.2327 12.5751 63.5245 12.515 63.7873 12.3851C64.0502 12.2552 64.2751 12.06 64.4404 11.8181C64.5855 11.5745 64.6603 11.2956 64.6567 11.0121C64.6531 10.7287 64.5712 10.4517 64.42 10.2118C64.0169 9.54435 63.1791 9.1562 62.3709 9.05924C61.5746 9.00524 60.7748 9.0739 59.9995 9.26281C59.4972 9.32878 59.0109 9.48403 58.5634 9.7212C58.3523 9.83369 58.1806 10.0079 58.0713 10.2204C57.9619 10.433 57.9202 10.6738 57.9516 10.9107C58.0189 11.1295 58.1349 11.3302 58.2907 11.498C58.4466 11.6658 58.6384 11.7963 58.8518 11.8797C59.1772 12.0171 59.5194 12.1107 59.8695 12.1579C58.2615 11.9495 56.6281 12.2351 55.1865 12.9765C53.3799 13.9389 52.1609 15.609 51.4318 17.4151Z" fill="#1F1E29"/>
<path d="M61.2141 27.5466C64.7807 27.5466 67.672 24.6592 67.672 21.0973C67.672 17.5354 64.7807 14.6479 61.2141 14.6479C57.6475 14.6479 54.7562 17.5354 54.7562 21.0973C54.7562 24.6592 57.6475 27.5466 61.2141 27.5466Z" fill="#A0616A"/>
<path d="M55 17.6392C55.3744 18.7694 56.4445 19.1336 57.4335 19.3607C57.7453 19.4333 58.0591 19.5009 58.3757 19.5611C58.4926 19.4152 58.6168 19.2723 58.7466 19.1371C59.2856 18.5718 59.9367 18.1248 60.6582 17.8245C60.3462 18.4622 60.1388 19.1459 60.044 19.8494C60.6419 19.936 61.2431 20.0068 61.8476 20.0618C62.3591 20.1705 62.8928 20.0788 63.3385 19.8057C63.7843 19.5326 64.1079 19.0989 64.2425 18.5943C64.7928 19.4931 65.4435 20.3395 66.3334 20.6965C66.8423 20.8791 67.3963 20.8941 67.9143 20.7393C68.4324 20.5845 68.8871 20.2681 69.212 19.8364C69.725 19.1322 70.0808 18.3263 70.2552 17.473C70.5077 16.4722 70.648 15.3193 70.1522 14.6843C69.7549 14.1704 69.0698 14.1612 68.4375 14.2068C67.0421 14.3137 65.6614 14.5637 64.3172 14.9528L64.2035 15.2083C64.4345 13.8224 63.9334 12.4889 63.0063 12.0147C62.381 11.6976 61.6286 11.7508 60.8976 11.8151C59.9586 11.8569 59.0309 12.0361 58.144 12.3469C57.1266 12.7378 56.2549 13.433 55.6483 14.3375C54.9994 15.3214 54.677 16.6632 55 17.6392Z" fill="#1F1E29"/>
<path d="M64.2063 11.6114C64.1426 11.5926 64.3077 11.6167 64.2504 11.6183C64.2789 11.6166 64.3071 11.6127 64.3349 11.6065C64.3397 11.6055 64.404 11.585 64.3612 11.6001C64.4572 11.5715 64.5427 11.5157 64.6076 11.4396C64.7593 11.2522 64.8783 11.0407 64.9596 10.8139C65.0623 10.5141 65.2272 10.2394 65.4437 10.0078C65.5051 9.94618 65.5802 9.8999 65.6629 9.87271C65.7456 9.84552 65.8336 9.83818 65.9196 9.8513C66.0057 9.86442 66.0875 9.89763 66.1583 9.94822C66.2291 9.99882 66.287 10.0654 66.3272 10.1425C66.4089 10.44 66.3809 10.7569 66.2484 11.0356C66.1558 11.3191 66.018 11.5859 65.8404 11.8256C65.5427 12.2176 65.1373 12.5146 64.6735 12.6805C64.1367 12.8752 63.5514 12.8919 63.0043 12.7281C62.932 12.6982 62.87 12.6479 62.8259 12.5834C62.7817 12.5189 62.7573 12.443 62.7556 12.3648C62.7539 12.2867 62.775 12.2098 62.8163 12.1434C62.8576 12.077 62.9173 12.0241 62.9882 11.991L63.9006 11.6181C63.9486 11.597 64.0003 11.5855 64.0528 11.5844C64.1053 11.5832 64.1574 11.5924 64.2063 11.6114C64.2552 11.6304 64.2999 11.6588 64.3378 11.695C64.3757 11.7313 64.4061 11.7746 64.4272 11.8226C64.4484 11.8705 64.4598 11.9222 64.461 11.9746C64.4621 12.027 64.4529 12.0791 64.4339 12.1279C64.4149 12.1768 64.3864 12.2214 64.3501 12.2592C64.3139 12.2971 64.2705 12.3274 64.2224 12.3485L63.31 12.7215L63.2939 11.9844C63.4078 12.0172 63.5249 12.0372 63.6432 12.044C63.7694 12.0566 63.8968 12.0513 64.0215 12.0281C64.1409 12.0124 64.2583 11.9838 64.3715 11.9428C64.444 11.9164 64.5152 11.8863 64.5846 11.8526C64.6099 11.8404 64.6349 11.8277 64.6596 11.8145C64.6578 11.8155 64.764 11.7537 64.7174 11.7827C64.8354 11.7074 64.9462 11.6213 65.0482 11.5254C65.0842 11.4915 65.1173 11.4546 65.1474 11.4152C65.1993 11.3514 65.2475 11.2847 65.2917 11.2153C65.3816 11.0684 65.4528 10.9108 65.5036 10.7463C65.5268 10.6772 65.5464 10.6069 65.5623 10.5357C65.5667 10.4966 65.5738 10.4579 65.5834 10.4198C65.6173 10.329 65.577 10.4728 65.616 10.5122L65.7841 10.6359C65.8157 10.6453 65.849 10.6475 65.8816 10.6423C65.9141 10.6371 65.9451 10.6246 65.9721 10.6059C65.992 10.5779 65.9877 10.5825 65.9591 10.6198C65.9257 10.6637 65.8952 10.7096 65.8677 10.7574C65.8075 10.8698 65.7529 10.9852 65.7044 11.1031C65.604 11.3539 65.4771 11.5932 65.3258 11.8171C65.1776 12.0435 64.9615 12.2175 64.7085 12.3141C64.4555 12.4107 64.1784 12.4251 63.9167 12.3552C63.8185 12.3162 63.7396 12.2401 63.697 12.1435C63.6544 12.0468 63.6516 11.9374 63.6891 11.8387C63.7292 11.7414 63.8055 11.6634 63.9019 11.6211C63.9983 11.5787 64.1074 11.5752 64.2063 11.6114Z" fill="#1F1E29"/>
</g>
<defs>
<clipPath id="clip0_58_81">
<rect width="230" height="157" fill="white"/>
</clipPath>
</defs>
</svg>
